<?xml version="1.0" encoding="utf-8"?>
<!-- Generator: Adobe Illustrator 24.1.0, SVG Export Plug-In . SVG Version: 6.00 Build 0)  -->
<svg version="1.1" id="Layer_1" xmlns="http://www.w3.org/2000/svg" xmlns:xlink="http://www.w3.org/1999/xlink" x="0px" y="0px"
	 viewBox="0 0 1645.2 888.6" style="enable-background:new 0 0 1645.2 888.6;" xml:space="preserve">
<style type="text/css">

</style>
<g>
	<path class="st0" d="M80,235.6C73.4,187.2,62.7,139.2,43,94.3c-1.9-4.4-1.9-7.6,1.2-11.6C54.7,69,54.6,69.2,71.5,66.5
		c24.6-3.9,49.1-8.4,73.7-12.6c7.4-1.3,14.8-2.3,22.1-3.5c3.5-1.2,4.2,0.8,4.9,3.7c5.9,27,12.4,53.9,18.9,80.7
		c58,240.8,18,58.4,136.6,258.7c33.9,94.3,33.4,197,58.3,293.7c0.5,2.2,2.2,5.6-2.7,5.3c-32.4-10.9-64.1-23.7-97.9-30.3
		c-21.8-5-42.4-13.6-62.4-23.5c-14.2-7.3-31.4-12.8-43.8,0.3c-20,22.1-31.5-16.3-59.8-19.1c-26.1-4.6-40.9-26.2-57-44.8
		C49.1,557.7,29.9,551,8.4,549.8c-7.9-0.9-7.8-0.9-7.9-9.1c-4.7-96.2,23.8-127.2,52.9-209.3c6.4-26.3,4.7-53.9-0.6-80.3
		c-0.7-3-0.2-5.1,3.8-4.8c2.3,0.2,4.3-2.1,6.9-1.9c10.8,48.9,2.7,106.2-4,157.1c-0.6,4.1,1.3,6.2,4.8,7.5c11.4,4.3,22.4,9.6,33.2,15
		c24,11.2,44.9,27.1,66,42.6c-12.3-76.9-37.7-152.5-64.1-226C97.5,227.2,81.7,246.9,80,235.6z"/>
	<path class="st1" d="M1381.1,83.8c35.6,0,71.2,0,106.8-0.2c7.6-0.3,1.1,12.1,5,15.2c3.3,2.9,11.1-0.1,15.9,1.6
		c-2.3,2.4-5.3,1.5-8,1.6c-5.5,0.2-6.6,0.8-6.2,6.4c0.6,9-0.2,18,0.7,26.9c1.1,46.5,3.3,93.1-0.5,139.5
		c-1.7,41.4-7.9,82.4-12.8,123.5c-1.7,15.7-5,31.2-7.8,46.8c-3.5,11.2,7.2,7,7.6,15c-14.8,31.1-34.7,60.1-46.1,93.2
		c-2.3,3.3-4.5,16.8-8.5,14.9c-3.7-19.3-6.3-38.9-14.8-57.1c-5-12.4-10-22-6.2-35.3c-5,98-89.4,160.9-150.8,227.3
		c129.3,2.4,248.2,0.1,377.9,0.9c-0.3,1.3-0.9,1.7-2.3,2.7c-138.9,2.7-277.5,0.8-416.5,1.3c-8.6-1.7-44.4,4.4-44-5.7
		c-34.7-150.9-75.5-300.5-125.8-446.9c-9.9-32.6-20.2-65.2-32.2-97.1c-3.5-7.3,6.4-5.5,10.8-5.6c7.6,0.7,15.1-0.3,22.7,0.1
		c38.4,113.9,68.5,231.7,100.6,348.2c19-66.8,16.1-139.5,29.7-205.6c3.1-0.4,2.9,3.1,3.5,5.1c2.8,12,8.1,23.5,7.3,36.1
		c-12.1,87.8-22.1,176.1-30,264.3c15.2-52.1,21.4-106.3,33.2-159.2c20.3-85.6,37.6-173.4,65.7-256.4c2.9,1.9,1.8,4.7,1.4,7.2
		c-3.3,20.4-6.6,40.7-9.6,61.1c-6.4,44.1-12.6,88.1-17.1,132.4c-4.7,100.6-8.8,201.5-14.4,301.9c82.8-63.2,79-116.3,99.7-207.8
		c16.3-51,15.9-105.7,26.1-158.2C1354.3,242.9,1362.4,161,1381.1,83.8z"/>
	<path class="st2" d="M358.6,18.4c26-5.3,52.4-8.4,78.5-13.3c3.5-0.6,5.5-0.1,5.9,3.6c25.4,60.5,42,126.4,58.4,190.4
		c0.9,3.8,2.6,5.3,6.6,4.7c6.6-1,7.3-0.6,9.3,5.8c9.4,30.2,19.2,60.3,29.4,90.2c22.8,64.3,44.8,129.6,79.3,188.8
		c4.2,52.9-0.1,107-2.7,160.1c3.4,22.3-76.3-11.6-77.2-23.3C501.4,479.8,487,325.6,432.8,183c-18.5-43-39-85.1-55.7-128.9
		C370.9,43.3,368.8,25.3,358.6,18.4z"/>
	<path class="st3" d="M620.8,655.5c7.2-74.2,5-149.7,2.9-224c-1-32.6-1.7-65.4-4-97.8c1.9-22-9.5-40.7-14.3-61.1
		c-0.4-62.1-14.9-122.7-32.5-181.9c-6.1-12.2,18.9-5,25.1-6.8c18,66.9,37.2,134.2,55,201.4c16.8,57.2,41.2,111.7,58.1,168.9
		c23.6,68.2,37.9,139,59.9,207.7c7.2,21.7,13.6,43.7,21,65.4c0.9,2.4,2,5.2-1.2,7.1c-56.9,1.3-114.1,0-171.1,0.4
		c-8.2,0-9.1-1.2-8.1-9.5c0-7.2,4-13.5,3.7-20.7C617.7,688.5,617.3,671.1,620.8,655.5z"/>
	<path class="st4" d="M383.4,692.6c3-0.4,2-2.2,1.5-4.1c-6.5-25.7-11-51.7-15.5-77.8C358,540.4,350.7,469,329.8,400.5
		c3-0.4,3.8,2.2,5.2,3.9c9.5,12.8,21.1,23.5,33.7,33.1c1.3,1,2.9,3.1,4.7,1.9c0.9-34.8-7.7-71.8-10.1-107.3
		c-3.5-38.8-9-77.7-10.3-116.6c4.3-8.7,15.6,33.4,21.5,29.7c47.3,87.7,103.9,172.2,125.4,271.5c19.4,67.2,46.2,134.1,47.6,204.9
		c1.8,10.6-10.6,1-14.2-2c-21.5-20.3-51.9-22.3-75.6-38.1C431,659.1,421.9,710.8,383.4,692.6z"/>
	<path class="st3" d="M1635.8,695.5c0,0.8-2.7,9.9-3.5,9.9c-132,0-243.2,0-375.2,0c-14.8,0.4,49.5-53.1,53-60
		c35.7-38.2,75.2-78.3,88.1-130.5c2.9-14.1,5-28.3,7.4-42.5c0.1-0.8,0.1-1.7,1.8-2.4c-5.6,68.1-13.7,136.2-21.5,204.3
		c-0.2,1.5,1.9,2.3,2.6,0.9c19.6-33.1,25.8-71.8,39.2-107.1c25.4-66,67-124.1,87.5-192.1c12.7-20.4-3.8,68-2.6,72.6
		c-6.4,50.6-14.8,100.9-23.7,151.2c-4.7,25.2-8.2,50.5-13.1,75.7c-0.3,1.5,1.7,2.3,2.5,1.1c45.7-61.8,47.6-142.3,64.2-214.8
		c20.4-102.3,33.8-209.1,59.8-308.5c4.9,2.2,38.5,1.3,34.2,8.1c-11.3,42.6-20.6,85.7-29.7,128.9c-18.4,103.4-36.3,207.6-41.8,312.6
		c-0.7,33.2,38.7,43.6,63,55.6c18.8,7.3,17.5,4.1,16.9,23.9C1644.9,684.1,1635.9,693.8,1635.8,695.5z"/>
	<path class="st5" d="M353.8,214.5c4.8,62.4,11.7,124.7,18.6,186.9c-0.4,11.4,6.6,31.6,2,40.9c-1.4,0.5-2.5-0.4-3.6-1.2
		c-16.1-11.1-29.2-25.6-41-40.6c-22.5-36.1-56.3-100.7-93.5-119.6c-15.4-5.1-21.3-54.2-27.6-70.4c-8.3-33.6-16.7-67.2-25-100.8
		c-4.5-18.8-8.7-37.7-12.8-56.6c-0.5-2.3-1.8-2.4-3.5-2.6c34.7-6.2,69.5-12,104.4-17.7c17.6,41,36.1,81.6,55.2,121.9
		c8.1,17.3,16.4,34.6,25,51.6C353.2,208.7,355.4,211.3,353.8,214.5z"/>
	<path class="st6" d="M1630.9,706.8c-31.4,12.8-85,30-107.1,41.3c-14.8,8.7-31.7,29.3-39.8,32.7c-11.8,5.7-4.1,17.8-23,19.6
		c-26.1,3.8-51.7-7-77.9-5.8c-19.9,1.2-29.7,15.9-52.6,12.4c-25.1-1.2-49.9-5.9-74.9-7.8c-22.2-0.9-44,4.1-66.2,2.3
		c-12.2,0-24.3,0.1-36.5,0.1c-5.8,0.6-6.6,0.2-6.7-5.4c-1.8-15.4,3.6-38-2.8-51.2c-2.2-2.5-1.3-4.6,1.9-5.6
		c99.1-1.4,198.5,0,297.7-0.5c6.5-0.1,8-1.8,6.8-8.1c0.5-7.1-43.9-4.4-51.8-6.2c-73.1-4.3-146.3-9.5-219.4-14.6
		c126.6-10.1,309.2,0.2,454.5-3.4"/>
	<path class="st5" d="M544.8,695.5c-5.4-47.1-19.8-92.5-33.9-137.6c-14.9-47.1-26.1-95.3-45.2-141c-25.7-59.8-64.6-112.3-91.9-171.3
		c-14-22.2-18.5-51-26.4-76.2c-11.1-47.5-24.1-96.2-30.7-143.9c65.5-12.4,40.3-12,69.1,46.5c32.4,77,71.3,151.9,86.1,235
		c19.8,83.9,35.8,168.6,57.9,252c5.9,22.6,12,45.1,17.9,67.7c0.6,2.4,2,3.8,3.9,4.9c21.1,13,44.2,22.2,69.1,24.1
		c-0.1,23.2-3.5,46.9-8,69c-4.9,5.5-18.6,6.3-25.4,2c-4.4-2.9-9.7-4.3-14.6-6.3c-4.6-1.9-9.5-0.3-14.3-0.8
		C546.7,718.6,558.7,711,544.8,695.5z"/>
	<path class="st7" d="M1504.7,494.5c5.8-39.7,12.3-81.1,14.2-120.4c-1.6-0.5-1.8,0.9-2.2,2c-9.3,29.5-21.3,58.3-36,85.4
		c0.2-3.5-0.8-5.8-4.8-6.1c-10.4,2.9,5.4-45.3,4.1-52.9c4.2-29.2,7.2-58.6,10.8-88c5.6-49.4,4.6-98.9,4-148.3
		c0.3-20.9-1.5-41.7-1.4-62.5c-0.1-3.2,1-3.2,3.2-3.2c36.7-0.3,73.4,1.7,110,4c6.3,0.4,6.3,0.4,5.3,6.4
		c-27.8,148-57.6,295.7-86.1,443.5c-1.9-1.9-1.2-4.3-1.4-6.6C1522.5,528.8,1516.2,509.6,1504.7,494.5z"/>
	<path class="st8" d="M1381.3,83.8c-15.2,77.5-24.9,155.9-37.7,233.7c-56.7,117.3-90.6,244.8-127.7,368.3
		c21.6-198.6,51.8-398.9,93.6-594.4c1.2-7.8,1.2-7.8,9-7.8C1339.4,83.6,1360.4,83.7,1381.3,83.8z"/>
	<path class="st9" d="M321.8,872.4c3.7-7.1-12.5-5.9-16.3-7.8c-3-2.2-6.5-1.8-9.7-1.7c-8.3,0.4-15.8-3.8-24.1-3.4
		c-1.2,0.1-3-0.9-2.7-1.8c1.4-3.9-2.3-5.4-3.4-8c-2.9-7-9-9.3-15.6-10.8c-6.4-0.8-15.8-11.3-22.9-15.3c-3.8-1.7-9.6,1.1-11.7-3.5
		c-0.8-10.2,14.9-6.8,21.4-8c38.3-3.5,76.7-5.9,115-8.5c14.6-0.6,29.2-2.5,43.9-2.7c10.7,0.4,8.7-3.2,12.1-11.4
		c0.1-2.6,0.2-5.3,0.3-7.9c3.1,1,2.1,3.8,2.2,5.9c-0.6,20.7,20.8,14.2,34.5,15.6c4.9,0.5,10-0.2,14.4,2.8c1.5,1,3.2,0,4.9,0.1
		c9.7-5.5,26.2,0.1,30.5,0.7c5.1,1.5,6.8-4.1,11.1-5.2c13.6-1.1,26.5,0.6,40.1-0.1c23.2-0.4,8.3,31.1,19.4,42.5
		c0.2,1.4-1.5,1.6-1.9,3.1c5.4,2.8,22.3-5.4,18.8,3.1c-0.6,1.6-0.4,2.8,1.1,3.7c12.7,2.9,9.8,10.9,8.6,21.2
		c-1.4,5.5-7.5,3.6-12.4,4.5c28.3,8.8,58.7,3.4,88,4.3c-13.4-4.1-27.7-1.9-41.4-4.5c-4.5-5.6-4.7-14.9-0.4-20.9
		c1.7-1.3,4.1-1.2,5.5-3.7c-16.1-0.9-32.4-1.9-48.1-1.1c-0.5-0.8-0.5-1.8,0.2-2.3c6.4-4.5,4.9-11.5,5.5-17.7
		c1.4-25.1,4.2-24.1,27.9-20.4c17,0.9,3.6,32,16,35.5c3.6,0.9,6.2,3.5,7,7.1c1.7,5.5,14,1.2,18.9,6.9c0.9,0.7,2.1,1.3,3.3,1.1
		c10.2-3,10.9,6.5,16.1,0.5c7.3-8.7,13.3,0.4,21.9-0.9c15.2,2.2,30.6,4.2,45.9,3.9c2,0.3,5.5-0.5,6.4,1.7c0.5,4.7-21.3,7.1-25.3,5.9
		c-12.7,5.3-26.3,0-38.8,3.3c4.9,5.6,13.6,2.4,20,4.4c2.4,0,8.8,3.3,3.6,4.6c-50.8,0.3-101.6-0.5-152.3,0.4
		c-6.5-9.1,3.5-50.3-8.6-54.6c-13-2.4-26.2-0.5-39.2-2.6c-9.6,0.2-5.4,15.5-6.7,22c-3.7,3.2-9,1.6-14,4.2c7.6,4.5,18,0.3,22.9,4.8
		c0.3,4.1-1.6,6.8-5.5,7.7c-4,0.9-5.4,3.5-5.3,7.2c-0.3,4.7,1.4,11.5-5.7,11c-20.5-0.2-40.9-0.1-61.4-0.1
		c-47.9,0.2-96.6,2.8-144.4-0.3C297.7,881.8,330.2,886.8,321.8,872.4z"/>
	<path class="st10" d="M1429.6,724.5c6.3-0.2,12.5,1.5,18.9,1c2.2-0.2,3.2,1.5,3.1,3.6c1.2,11.3,1.2,11.3-10.1,11.3
		c-99,1.4-200.4-2.8-298.3,1.4c-0.7,3.7,5.8,1.9,4.5,8.3c0,15.3,0.2,30.7-0.1,46c-0.1,4.2,1.3,5.8,5.2,5.4
		c-39.5,5-78.7,12.4-118.5,14.7c-26.8,1.2-53.1,11-79.9,9.4c-6.6-1.4-36.7,0.2-37.9-4c6.9-1.7,6.9-6.7,6.8-12.5
		c-0.3-14.6-0.2-29.3,0-43.9c1.5-12-17.6-5.3-18.3-13.1c69-4.2,139.9,1.3,209.2-2c-5-13.4-33-2.7-32.7-13c-0.1-3.7,2.2-4.9,5.4-5.1
		c117.3-0.6,234.7,0.6,352-0.4C1436.8,727.2,1431.1,728.8,1429.6,724.5z"/>
	<path class="st11" d="M702.6,83.9c7.5-4.2,15.8,29.2,19.9,34.9c20.7,42,38.5,97.2,55,141.2c14.2,19.5-37,44.5-49.7,59.8
		c-3.7,3.6-5.3,3.2-7.1-1.6c-6.2-17.2-11.8-34.7-17.3-52.1c-19.5-59.6-36.6-120.2-59.4-178.6C640,80,695.5,86,702.6,83.9z"/>
	<path class="st12" d="M560.9,343.4c-16.6-44.6-31.2-89.8-45.2-135.3c-1.1-3.6-2.9-4.1-6.2-3.4c-7.3,1.6-7.5,1.5-9.3-5.5
		C484.6,134.7,465.1,71.3,443,8.8c8.9-1.4,17.8-2.8,26.7-4.3c4.8-1.7,6,1.6,7.3,5.1c7.8,21.6,15.8,43.1,23.3,64.9
		c1.9,5.5,2.4,5.7,7.9,3.7c5.4-1.7,12.5-6.9,14.2,1.6c21.5,66.9,41.3,134.3,60.1,201.9c0.3,3.4,2,6.6,1.9,10
		c-5.9,16.4-13.7,32.1-19.9,48.5C563.9,341.6,563.4,343.7,560.9,343.4z"/>
	<path class="st13" d="M1185.8,336.6c0.8-14.3-6.2-26.9-9.5-40.6c-10,69-9.4,142.9-30.2,208.9c-14.1-53.5-28.8-107.1-43.4-160.4
		c13.4-5.4,24.3-10.5,33.5-22.4c1.7-1.9,1.9-4.2,1.9-6.5c4-54-3.2-108.9-3.6-162.2c9-0.9,18.1,0.4,27.1-0.9c4.7-1.5,4.9,2.2,5.4,4.9
		c1.8,10.5,3.6,20.9,5,31.5c2.5,6.7,0.3,21.9,6.6,25c3.4,1.4,5.1,3.9,5.7,7.5c2.5,22.5,11,44.6,11.3,67.2
		c-2.5,14.4-5.1,28.7-7.4,43.1C1188,333.5,1188.4,335.9,1185.8,336.6z"/>
	<path class="st14" d="M80,235.6c1,2.1,1.8,3.2,4.8,2.1c16.7-6.2,12.6-6.3,18.2,8.3c26.6,70.9,47.6,143.9,62.5,218.1
		c1.7,4.4-1.4,7.5-4.8,2.8c-29.3-24.5-63.1-43.2-98.5-57.2c-3.8-1.6-5-4-4.3-7.8c8.3-51.9,12.6-105.7,5.6-157.6
		C68.4,241.3,80.1,242.7,80,235.6z"/>
	<path class="st15" d="M464.6,806.5c-2.8,1.6-5.6,2.7-8.2-0.6c-0.5-0.7-1.8-1.3-2.7-1.2c-7.6,0.7-15.1-2.1-22.7-0.5
		c-7.8,1.1-21.3-1.2-22.3-10.5c-0.1-4.1,1-8.3-0.8-12.2c0-2.3-1.2-2.9-3.5-3c-34-2-68.1-4-102.1-6.1c-45.2-3.5-92.3-2.2-135.6-16.8
		c94.9,5.7,192.5,7.3,288.4,2.2c45.5-1.6,91.1-2.8,136.6-4.9c3.1-0.1,5.6-0.6,3.4-4.6c3.5-0.1,3.6-2.4,3.6-5
		c1.1-8.3-11-5.1-15.9-8.5c2.2-2.5,5.2-2,8-1.8c25.3,2.8,54.9-1.6,78.1,2.4c-11.1,4.1-24.6,0.4-36.5,1.7c-5.5,0-5.9,0.5-5.9,6.1
		c0.9,67.4-12.9,46.4,67.7,57.9c2,0.3,5.5,0.4,5.6,3c-4.1,4.4-22.8,0.5-30.1,2.4c18,3.9,36.7-0.9,54.6,4.1c3.3,0.9,6.7,0.9,10,0.4
		c1-1.4-0.6-1.1-1-1.4c-4.3-2.3,2.9-4.1,5-3c15.1,7,62.1-4.4,51.7,23.1c-0.7,0.3-1.4,0.5-2,0.8c-3.5-2.1-7.5-2.1-11.2-1.9
		c-31.6,1.2-62.4-7-93.8-7.8c-15.2-3.3-31.4-3.4-47.9-5.7c-7.3,0-10.6-3.1-11.4-10.3c0.5-14.9-13.4-9.5-23.7-11.7
		c-10-0.2-6.3,11-18.4,17.6c-5.2,2.3-11.5-0.8-17.1,1.5c-3.1,0.8-4.3-2-5.2-4.3c-1.3-3.2-1.5-6.8-5.4-8.5c-1.4-0.6-1-2.1,0.4-2.6
		c7.5-2.5-5.9-28.3,6.7-29.6c-10.5-6.2-16.3,6.9-26,3.9c-5.8-0.5-29.9-2.8-29.5,5c1,6.9-5.8,17.4,1.3,22c-0.9,2.6-3.6,5.5-3.8,6.3
		c-2.7,8.9-14.6-2-12.9,8.5c0.1,1-0.1,2-0.9,2.7c-0.9-0.6-1.1-1.6-1.3-2.5C486.9,801.4,472.3,804.9,464.6,806.5z"/>
	<path class="st16" d="M562.6,767.3c-8.5,3-6.1,15.6-4.7,23.6c1.3,3.9,2.3,7.6-5,6.9c10.7-0.5,3,17.9,14.2,11.7
		c9.3-0.2,11.3,2.2,19.6-4.8c7.1-9.3,2.2-15.5,16.7-13.2c18.1,1.6,20.2-2.4,22.6,17.5c1.5,3,3.4,4.9,7,4.3
		c22.6,0.9,44.7,6.3,67.4,6.9c19.1,0.2,37.6,5.4,56.6,6.2c6.7,1.1,28.3-1.9,30.7,3.8c-6.9,0.6-13.9,0.1-20.5,3.1
		c0.8,2.6,3.4,2.5,4.6,4c-16,9.5,5.2,15.2,11.4,23.3c9.2,8.1-35.5,2.9-40,4.4c-13.8,0.3-27.5-1-41.3-1.5c-1,0-2.4-0.7-3,0.8
		c-7.3,3.1-12.5-8.7-19.5-0.5c-3.9,5.4-5.4,5.4-10.1,0.8c-1.5-1.5-2.8-0.8-4-0.2c-8.5,3-13.6-8.3-27.6-4.4c1.2-6.1-1-9.4-7.2-10.7
		c-9.7,0.1-2.2-32.5-10.9-34.7c-8.9,1-29.8-8.5-28.6,6.3c-2.8,7.8,1,24.6-5.2,29.2c-1.7,0.6-3.1,1.2-3,3.3l0,0
		c-4,0.8-3.5-1.3-2.3-3.6c4.1-7.3-13.7-2.2-15.8-5.5c-14.2-6.9,3.1-41.2-17.2-41.7c-6.2,0.5-12.5-1.2-18.7,0.7c-2,0.6-4.8,1-6.1-1.9
		c-2.8-1.4-6.2,0.2-9.6-0.2c-1.8,0-7.3,2.6-8.8,1.1c-3-2.4-3.2-5.1-2.7-9.2c2-4.9,0-22,4.8-22.7c10.5-0.9,21.3-3.1,31.9-0.3
		C547,769.4,550.7,762.3,562.6,767.3z"/>
	<path class="st17" d="M789.8,829.5c0.6-7.9-0.5-17.6-10.6-17c-12.3,0.1-24.4-2-36.5-3.2c-4.3-1-8.4-3.3-12.6-0.2
		c-8.1-2.8-30.4,1-34.4-4.6c1.1-0.1,2.2-0.2,3.5-0.4c-1.9-2-3.9-1.7-5.9-1.7c-10.8,0.1-21.3-2.5-32-3.4c-7.9-2.4-37.7,0.2-36.4-10.2
		c3.2-65.6-17-52.1,43.9-53.4c0.2,6-16.8,17.8-4.1,20.3c37.9,0.5,76,0,113.9,0.2c6.1,0.2,13.6-1.5,12.6,7.1c0.2,9.8,0,19.7,0.1,29.5
		c-2.2,32.9,4.7,21.7,30.8,28.8c12.6,3.2,25.4,2.2,38.1,0.8c2.3,3.7,8.8,0,9.6,4.4C843.7,829.1,816.2,826.8,789.8,829.5z"/>
	<path class="st18" d="M582.7,287.6c-19.3-69.8-39.8-139.2-61.7-208.2c-1.2-5.3-4.3-3.3-7.8-1.8c-11.9,4.5-12.1,4.6-16-7.4
		c-4.9-9.5-19.7-68.2-27.4-65.6c31.6-5.2,24.3-12.1,34.2,19.4c0.8,2.4,1.5,3.9,4.9,3c6.5,0,23-8.4,24.8,0.6
		c3.9,6.9,1.1,22.7,12.2,21.2c-4.2,2.7-3.2,6.2-2.1,10.1c18.7,59.9,36.8,119.9,53.3,180.4c1.4,7.4,7.9,16.2,3,23.3
		C594.3,267.1,587.3,288,582.7,287.6z"/>
	<path class="st19" d="M1194.6,288.5c4-59.6,24.7-118.2,30.1-177c7.1-2.4,1.7-5.2,6.4-6.8c13.3-4,26.5-8.3,39.8-12.1
		c12.3-2.6,25.2-0.3,37.7-1c-1.9,5-18.8,1.3-24.2,2.4c-6.3,0-6.8,0.3-8.2,6.2c-8.7,27.8-8.8,59-20.5,85.5
		c-12.7,45.1-24,90.6-36.2,135.8c-2.1,0.2-2.9-1.6-3.7-2.9C1209.7,308,1201,298.8,1194.6,288.5z"/>
	<path class="st20" d="M1255.8,185.7c7.6-15.3,13.2-93.2,25.8-93.2c9.2-0.5,19.3,1.7,28-1.1c-14.9,76.8-29.7,153.7-41.9,231.1
		c-2.3,1.4-3.3-0.6-4.3-1.9c-4.8-9.1-24.1-21.7-21.7-31.2c3.6-33.4,9.8-66.5,14.9-99.8C1256.7,188.4,1257.7,186.7,1255.8,185.7z"/>
	<path class="st21" d="M733.9,145.6c-3.9-7.3-7.1-15-9.2-23c92,2.2,184,6.1,275.9,9.7c8.9,0.8,5.8,17.8,13.5,20.5
		c-2.7,1.2-0.7,3.2-0.8,4.8c-18.2,4.6-37.6-1.5-56.3-0.3c-35.4-2.2-70.8-2.8-106.3-4.4c-36.5-1-73-3.2-109.4-4.8
		C738.6,147.9,735.9,147.8,733.9,145.6z"/>
	<path class="st22" d="M784.6,863.6c-5.5-7.8-34-19.6-12.8-26.3c19.1,8.1,38.4,15.2,59.5,15c129.3,6.9,263.8,6.3,390.4,19.2
		c-2.2,3-5.5,1.8-8.3,2c-18.7,1.3-37.5,4-56.2,1.3c-70.1,1.9-140-4.5-210-3.8c-20.5-0.9-40.8,0.7-61.2,2.5
		c-5.1-0.8-7.8,4.6-12.7,4.5c-25.3,0.4-50.7-0.1-75.9-1.2c-10.7,0.6-5-8-10.4-11.1C785.8,865.4,784.7,865,784.6,863.6z"/>
	<path class="st23" d="M243.3,833.4c5,6.1,14.2,3.6,19.4,9.4c1.7,1.9,8.7,8.3,9.5,11.3c0.1,1.6-3.6,1.2-2.5,3.3
		c11.8,3,25.7,3.4,38.1,6.8c-52.3-1.6-104.7-5.1-157.3-2.6c-7.8-1.2-35.5,4.1-38.1-2.6c-3.5-1.8-9.2-0.7-13.4-1.7
		c3.8-7.9,8-10-3.1-13.2c-21.6-5.1-44.1-3.3-66.1-4.2c-6.6,0.6-7.7-7.5-0.6-6.9c44.6-6.2,89.4-11.3,134.3-15.2
		c13.9-1.3,27.9-1.8,41.7-3.5c4.2-0.5,8.6-1.4,12.6,1.1c-6.3,9.1,5.4,4.1,9,7C229.3,822.7,238.8,828.5,243.3,833.4z"/>
	<path class="st24" d="M316.7,25.4c17.6,73.7,27.5,150,57.1,220.2c-0.6,12-17.2-30.8-20-31c-25.6-60.8-60.9-120.2-82-181.8
		C286.7,30.2,301.7,27.8,316.7,25.4z"/>
	<path class="st25" d="M595,748.2c4.9-0.4,5,6.8-0.3,6.2c-43.9,2.2-87.8,2.7-131.6,4.3c-64.2,1.7-128.4,5.1-192.6,3.6
		c-39.5-2.9-82.5,2.3-119.6-13.2C298.4,746.6,447.2,748.8,595,748.2z"/>
	<path class="st26" d="M217.8,815.4c-64.7,3.9-129.7,10.5-193.6,20c-2.1-2.2-4.7-3.6-8-5.1c127-31.7,261.2-30.7,391.5-40.9
		c0,15.6,2.7,11.5-12.2,12.7C336.3,806.7,276.7,809.6,217.8,815.4z"/>
	<path class="st27" d="M1224.7,111.5c3.6-0.4,3.1,1.6,2.6,4c-12,55.8-21.1,112.3-32.5,168.2c-4.2-11.7-8.2-66-16.4-68.2
		c-8-1.5-2.5-9.9-2.4-15.1c6.9-26.4,10.9-54.1,19.6-79.7C1205,116.4,1215.1,114.8,1224.7,111.5z"/>
	<path class="st28" d="M600.9,257.3c-15.8-55.7-31-111.7-48.9-166.8c-3.6-11.4-6.6-23-10.4-34.3c-4.3-9.2,5.9-7.5,11.8-7.8
		c8.7-0.3,8.7-0.3,11.2,8.3c3.2,6,4.4,26,10.8,27c-4.2,1.6-1.5,4.5-0.9,6.5c17.2,59.4,32.7,119.9,32.1,182.1
		C602.1,268.4,602,262.6,600.9,257.3z"/>
	<path class="st29" d="M429.8,887.3c21.2-2.5,43.9-0.2,65.6-0.8c4.5,0.1,6-1.3,5.5-5.6c-0.1-5.4-1.5-13.8,6.4-13.5
		c4.9,0,4.1-4.4,5.6-7c3.6-2.4,8.6-1,12.6-4.7c-22.6-3.4-25.5,2.3-20.8-23.8c0.5-3.4,2.2-3.8,4.7-3.4c11.2,1.3,22.3,1.6,33.4,1.8
		c4.4,1.6,12.7-1.1,13.2,5.2c4.1,17.1,1.1,34.7,2.9,51.9C515.8,887.7,472.8,887.5,429.8,887.3z"/>
	<path class="st16" d="M786.8,864.5c3-0.7,4,0.4,4.1,3.5c-1.7,13,13.3,4.7,20.7,8.1c-1.7,2.2-4.2,1.7-6.4,1.7
		c-12.4-0.2-24.8,0.2-37.1-0.5c1.6,0.2,4.2-0.6,5,1.5c-0.3,0.8-1,1.4-1.8,1.5c-12.2,2.9-24.8,6.4-37.2,5.8c-0.6,0.1,0.3,0.9,0,0.3
		c-0.1-0.3-0.1-0.4,0.2-0.4c3.6,0.6,19.8-2.7,19.6,1.2c-53-0.1-106,0.5-158.9-0.1c38.9-3.4,79.5,1.9,118.5-2
		c-9.7-4.2-24.4,1.5-29.3-8.8c6.3-4.1,33.5,2.4,39.3-3.2c6.2-2.6,13.6,3.4,19.8-2.5c2-1.6,5.3,0.5,8.9-2.4c-6.6-0.9-18.8,1.7-22.4-1
		C747.6,862.8,768.1,868.3,786.8,864.5z"/>
	<path class="st19" d="M1195.7,120.6c-5.5,28.7-13.1,56.9-19.5,85.4c-0.3,1.1,1.3,4.3-2.3,3.4c-3-8.4-5.2-58.2-12.1-56.9
		C1170.4,139.2,1177.4,120.8,1195.7,120.6z"/>
	<path class="st30" d="M1030.6,887.5c-50.9-0.1-101.8,0.6-152.7-0.2c-0.1-0.3-0.3-0.5-0.4-0.8c8.7-6,43.1,4.3,46.9-5.9
		c62.4-2.8,125.5,0.8,188.1-1.8c4.4,0.6,12.6-2,15,2.1C1115.3,894,1051.9,886.2,1030.6,887.5z"/>
	<path class="st31" d="M1030.6,887.5c32-1.8,65.6,4.7,96.3-5.7c-0.1-0.5-0.2-1-0.2-1.5c-10.7,0.1-21.5-0.6-32.2-0.5
		c-1.3-0.1-3.5,1.3-3.8-1.6c6.3-2.9,12.5-4.7,19.7-4.5c37.1-0.5,74.5,3.1,111.3-2.3c1.6,4-1.7,2.8-3.2,2.8
		c-11.8,0.3-23.6,1.2-35.2,3.2c-13.4,2.2-24.2,12.3-38.5,10.6C1106.8,888.5,1068.4,888.9,1030.6,887.5z"/>
	<path class="st1" d="M668.8,734.6c-39.3-1.8-79.9,5-118.2-5.7c-0.6-1.9-2.4-1.9-3.9-2.5c-1.6-10.3-0.9-20.7-2-31
		c2.4,1.6,3.4,4.6,6.6,5.8c1.2,0.5,0.8,4.5,1.8,6.6c1,2,2.6,3.2,0.4,5.8c-2,2.5,0.7,5.1,2.8,4.5c13.1-2.4,25.3,2.9,36.4,9.8
		c1.7,1.7,4.6-0.7,7.1-0.6c4.5,0.2,8.9-0.7,12.9-2.9c0,9,0,9,9.1,9c16.3,0,32.6,0,48.9,0C671.7,734.8,669.6,735.4,668.8,734.6z"/>
	<path class="st32" d="M753.7,887.4c-6.9-2.3-13.9,0.3-20.9-1.6c14.2,2.2,26.5-5.6,39.9-7.2c1.5-1.6,3.4-1.1,5.2-1.1
		c22.7,1.1,46.5-1.3,68.6,1.7c1.3,5.5-11.9,0.2-12.6,4.1c0.6,5-3,3.3-5.4,3.6C803.7,888.5,778.6,887.1,753.7,887.4z"/>
	<path class="st33" d="M824.9,827.5c21.3-1,42.7-0.7,64.1-0.6c-8.5,0.5-16.7-1.3-25.1-1.6c-1.4-0.1-3.3,0.6-3.2-2
		c3.3-4.6,51.7-5.3,55.9-1.8c17.7,1.4,36.2,2.7,54.1,3.9c-48.2,5.7-97.5,2.2-146.1,2.9C824.3,827.9,824.4,827.7,824.9,827.5z"/>
	<path class="st34" d="M821.7,887.4c3.5-1.7,7.5-0.1,11.1-1.3c-6-9.1,8.9-4.5,14-5.8c8.8-3.7,18,0.6,27.1-0.2
		c4.6,0.3,5.5,1.8,3.9,6.4C859.1,887.3,840.5,887.3,821.7,887.4z"/>
	<path class="st35" d="M321.8,872.4c18.3,12.8-35.6,16.8-41.7,12.2C294.1,880.7,308.7,878.8,321.8,872.4z"/>
	<path class="st21" d="M1158.1,152.8c-7.8,1.2-15.7-0.1-23.5,0.7c-16.3,4.1-34.8,0.5-51.8,1.5c-10.7-1.1-27.9,3-36.7-2.2
		C1083.5,152.7,1120.8,152.1,1158.1,152.8z"/>
	<path class="st28" d="M702.6,83.9c-18.9,1.9-38.8,0.2-58,0.8c-0.5,2.3-49.7,3-46.6-0.8C632.9,83.4,667.7,83.7,702.6,83.9z"/>
	<path class="st16" d="M559.8,887.3c10.3-1.9,21.5-1.4,31.9,0C581.1,887.3,570.4,887.3,559.8,887.3z"/>
	<path class="st9" d="M217.4,860.5c8.9,0.8,19.2-1.8,27.4,0.9C235.6,861.4,226.5,861.7,217.4,860.5z"/>
	<path class="st36" d="M851.8,887.4c8.5-2.2,17.3-0.4,26-0.8c0,0.3,0.1,0.6,0.1,0.9C869.2,887.9,860.5,887.8,851.8,887.4z"/>
	<path class="st9" d="M280.5,863.5c5.4,0.1,10.9-1,16.2,0.7C291.3,864.4,285.9,864.8,280.5,863.5z"/>
	<path class="st37" d="M792.8,829.4c4.6-2,9.5-0.7,14.2-0.8C802.3,829.7,797.6,829.4,792.8,829.4z"/>
	<path class="st21" d="M1035,152.8c-3.9,0.6-7.7,0.6-11.6,0C1027.3,152.3,1031.1,152.3,1035,152.8z"/>
	<path class="st9" d="M266.4,862.6c3.8,0.1,7.7-1.1,11.3,0.8C274,863.5,270.2,863.7,266.4,862.6z"/>
	<path class="st37" d="M824.9,827.5c-0.1,0.3-0.2,0.5-0.3,0.8c-3.6,0-7.2,0-10.8,0C817.4,826.5,821.2,827.7,824.9,827.5z"/>
	<path class="st9" d="M247.4,861.6c3.5,0.1,7-1,10.3,0.7C254.3,862.3,250.8,862.7,247.4,861.6z"/>
	<path class="st5" d="M546.7,726.4c2.7-1.3,4-0.5,3.9,2.5c-1.9-0.4-3.8-0.8-5.3-2.3C545.8,726.5,546.3,726.5,546.7,726.4z"/>
	<path class="st38" d="M1046,255.5c48.4,145.2,88.2,293,122.9,442c1.9,4.3,1.2,10.7-5.2,9.3c-13.8,0-27.7-0.1-41.5,0.1
		c-4.7,0.1-7.4-1.7-8.8-6.2c-15.4-48-31.3-95.9-45.8-144.3c-32.7-109.3-63.1-219.8-86.9-331.3C983.4,215.4,1039.5,250.6,1046,255.5z
		"/>
	<path class="st39" d="M1215.5,679.4c0.1,1.6,0.2,3.3,0.3,4.9c0.2,0.1,0.5,0.1,0.7,0.2c33.9-124.8,68.3-251.3,127-367
		c-5.7,46.1-12.5,92.1-18.4,138.2c-10,30-15.9,61.2-21.6,92.4c-6.7,58.5-42.3,108.2-88.5,143.1
		C1214.4,686.9,1214.2,683.2,1215.5,679.4z"/>
	<path class="st40" d="M1082.7,153.6c17.3,0,34.6,0,51.9-0.1c4,44.2,6,88.6,6.1,133c-0.5,11.5-0.7,23.4-1.6,34.7
		c-9.9,11.2-20.4,21.5-36.3,23.2c-10.4-35.3-20.8-70.6-31-106c6.4-3.5,30.2,1,26.5-10.1C1094.2,203.4,1086.7,178.4,1082.7,153.6z"/>
	<path class="st41" d="M1046,255.5c-18-8.3-34.2-20.9-53.1-27.9c-3.4-1.5-6.8-4.8-11.3-3c-2.6-0.4-2.5-2.8-3.2-4.5
		c-6-14.5-12.6-28.7-22.8-40.8c-6.2-7.4-13.3-14-20.8-20.2c-2.2-1.8-6-1.1-7.1-4.5c28.5,0.9,57.1,2.6,85.6,3
		C1026.2,189.4,1036.2,222.6,1046,255.5z"/>
	<path class="st42" d="M1241.6,289.4c1.8,11.3,16.4,20.6,22.7,30.5c1,1.1,1.5,2.6,3.3,2.6c-10.8,54-14.9,111.1-26.9,164
		c-1.7-0.5-2-2-2.5-3.4c-4.3-11-9-22.1-11.5-33.5C1226.4,395.9,1233.6,342.4,1241.6,289.4z"/>
	<path class="st43" d="M1194.6,288.5c9.9,9.7,16.9,21.7,25,33c-9.4,40-18.7,80.1-27.8,120.1c-2.7-0.4-2.6-2.7-3-4.5
		c-3-14.1-5.8-28.2-9.2-42.1C1179.5,359.5,1188.5,323.4,1194.6,288.5z"/>
	<path class="st44" d="M1082.7,153.6c8.3,25,11.8,51.2,17.6,76.8c4.1,8.3-23.3,8.4-28.4,8.1c-8.1-28.3-17.8-56.5-25-84.9
		C1058.8,153.6,1070.7,153.6,1082.7,153.6z"/>
	<path class="st45" d="M1178.8,388.6c6.3,17.2,7.1,35.9,12.9,53c-13.1,53.8-15.5,111.3-35.7,162.8
		C1161.1,532.2,1170.6,460.4,1178.8,388.6z"/>
	<path class="st46" d="M1226.7,449.6c5.5,11.9,9.1,24.7,14.1,36.8c0.9,26.4-6.8,53.4-9.1,79.9c-5.6,36.6-9.4,73.8-15.9,110.1
		C1219.2,600.8,1223.4,525.1,1226.7,449.6z"/>
	<path class="st47" d="M1427.7,568.5c-1.6,9.3-5,18.2-7.9,27.1c-9.6-15.9-10.9-36.4-21-52.1c2.7-16.9,3.5-34.2,6.9-51
		C1417.9,515.6,1425.6,542.2,1427.7,568.5z"/>
	<path class="st48" d="M1168.7,705.5c-30.4-143.1-72.8-283.6-114-423.9c28.6,80.9,51.4,163.9,74.4,246.6
		c14.9,57.9,29.7,115.8,42.9,174c0.5,2.1,0.8,4.4,3.8,4.4C1174.1,709.3,1168,709.2,1168.7,705.5z"/>
	<path class="st49" d="M560.9,343.4c8.8-16.6,14.7-34.8,22.8-51.9c12.7,33.5,17.5,71,28.2,105.8c3.6-8.1,5.1-30.4,10.6-33.7
		c2.9,41.9,2.6,83.9,3.2,125.7C596.9,444.5,579.6,393.1,560.9,343.4z"/>
	<path class="st50" d="M597.9,84.4c15.6,0.1,31.1,0.2,46.7,0.2c29.4,76.8,50.8,156.4,77.7,234.1c1,3.2,2.1,2.7,3.9,0.8
		c69.7-63.8,38.8-85.5,76.5,14.3c28.8,88.9,52.5,179.4,80.8,268.4c2.9,11.5-19.2,29.7-27.4,37c-6,3.4-17.7,14.6-21.2,3.5
		c-32.2-85.7-61.4-172.7-90.9-259.3c-25.6-66.4-56.3-130.8-93.1-191.6C630.6,157.2,601.4,126.3,597.9,84.4z"/>
	<path class="st51" d="M604.7,113.6c18.6,39.1,47,72.4,66.7,111c38.1,68.6,70.2,140.4,93.1,215.5c23.8,68,46.4,136.4,72.1,203.7
		c5.5,10.6,33-18.2,37.4-23.9c3.4-4,5.3-9.1,9.5-12.4c4.9,31,0.4,65.1,1.7,97.1c-0.8,10,1.7,20.5-1.2,30.1
		c-70.1,2.5-143.3,3.3-213.3-0.3c0-0.3,0-0.6,0-0.8c40.3,0,80.6,0,121,0c1.7-1.4,1.6-2.9,0.8-4.9c-14.2-39.3-25.8-79.4-37.6-119.4
		c-12.9-50.3-27.5-100.2-43.7-149.6c-14.3-47.1-31.7-93.1-48.8-139.2C641.1,252.1,624.1,182.3,604.7,113.6z"/>
	<path class="st52" d="M622.5,363.7c-5,12.3-5.2,25.5-11.3,37.5c-9.5-37.9-19-75.7-28.5-113.6c3.9-3.4,4.7-8.6,7.4-12.7
		c2.8-6.2,9.1-11.1,10.7-17.5c6.7,20,15.8,39.8,19.5,60.6C621,333.2,622.3,348.4,622.5,363.7z"/>
	<path class="st1" d="M737.7,547.5c9.5,14.2,9.3,32.9,15.3,48.9c5.7,17.3,6.9,36.8,16.6,52.5c5.4,27.3,14.1,54.1,24.5,79.9
		c1.2,2.1,1.4,4.8-2.5,4.7C774.4,671.5,751.7,610.4,737.7,547.5z"/>
	<path class="st2" d="M625.7,471.5c-2.1-13.1-0.2-26.8-0.8-40.1C627.2,444.3,625,458.3,625.7,471.5z"/>
	<path class="st4" d="M614.7,714.4c0-3.2-0.2-6.3,2-9C616.8,708.6,616.5,711.7,614.7,714.4z"/>
	<path class="st49" d="M622.4,358.2c-1.2-3.1-0.7-6.3-0.5-9.4C622.8,351.8,622.7,355,622.4,358.2z"/>
	<path class="st53" d="M1585.5,336.8c-6.6,9.9-3.9,22.3-8.3,33.2c-2.9,13.5-10.3,28.5-5.9,42.3c1.8,2,1,4.3,0.8,6.5
		c6.4,4.3,1.3,10.4,2.6,15.4c2.2,6.4-1.7,10.8-4,16c0.9,9,1.6,20.9-3.8,28.3c-6,4.4-4.1,12-7.9,18.3c-2.3-2.2-2-16.6-6.1-13.1
		c-3,2.7-3.2,0.2-3.2-1.9c0.1-3.5,3.3-7.5-0.5-10.1c-4-3.8-3.9-12.7,0.6-15.9c3.3-2.3,4.4-4,2.3-8.1c-7.2-12.5,14.8-24.3,6.1-36.2
		c-2.6-3-2.2-5.7,0.5-8.3c6.1-5.8,5.4-6.9,3.5-15c-3.7-12.6,10.4-18.2,5.9-31.2c-3.7-11.2,8.2-13.9,5.7-22.8
		c-2.4-6.2-1.5-12.1,2.9-17.2c5.7-7.8-6.3-19.3,5.1-28.1c7.7-6.1-4.8-16.8,5.8-29.3c5.3-8.3-5.2-14.3,5.4-23.5
		c5.3-7.2-4.6-16.4,4.1-22.8c1.9-1.7,1.5-3.9,1.5-6c0-8.4-0.9-16.6,5.6-23.9c2.8-3.1,4.9-7.9,4.5-12.9c-0.8-3.4,4.3-6,6.3-2.9
		c2.7,4.5-3.1,5.6-1.4,8c1.2,1.3,2.9,1.8,5,1.4c3.9-0.8,6.1,2,4.3,5.6c-5.1,7.1-0.5,21-7.7,25.2c-4.1,1-4.8,5.3-6.7,8.2
		c-1.7,5.3,7.2-1.4,5,6.5c-0.1,5.3-6,8.1-4,13.7c-5.5,3.3-0.9,8.2-1.9,12.2c-0.3,1.2,0.2,2.6-1.8,3c-5.6,1.1-9.5,8.4-6.1,12.8
		c5.8,7.5,1.5,14.1-0.7,21c-2,2.9-8.4,2.3-7.4,7.4c-1.2,7.7,10.6,5.4,4.3,11.9c-3.6,3.1-3.7,8.5-8.4,11c-2.2,1.2-1.3,5.1-0.7,7.5
		c1.4,3.7,3.9-3.3,6.4-1c1.5,1,1.8,2.9,1.1,4c-2.5,4-2.5,8.5-3.5,12.8c-0.3,1.2-0.4,3.1-1.9,3.2
		C1586.3,341.8,1587.2,338.6,1585.5,336.8z"/>
	<path class="st54" d="M1523.7,562.5c-3.8,20.5-7,41.6-15.1,60.8c-1.6-9.1-7.5-25.9-15.7-30.1c-3.4,0.7-0.9,7.4-5.2,7.2
		c3.6-23.3,8.7-46.3,11.1-69.7c0.8-2.7,2.2-6.6,5.7-4.5C1517.2,533.3,1524.2,548.1,1523.7,562.5z"/>
	<path class="st55" d="M1487.7,600.5c3.8-2.2,1.2-13.4,7.2-8.2c6.7,7.1,15.3,21.2,13.7,31.1c-7.7,23.2-21.3,42.9-35.7,62.3
		C1477.8,657.3,1482.4,628.8,1487.7,600.5z"/>
	<path class="st56" d="M1409.8,628.6c-6,20.3-14.4,39.9-26.5,57.3c5.3-32.3,7.4-64.9,10.5-97.3c4.2-2.5,5.7-2.2,7.5,2.2
		C1404.5,602.3,1413.1,616.8,1409.8,628.6z"/>
	<path class="st57" d="M1409.8,628.6c0.2-12.6-5.7-24.1-9.1-36c-1-4-2.8-5.6-6.9-4.1c1.5-15,3.2-30,5-45c5.9-1.5,13.4,33.8,16.9,40
		C1423.9,598,1414.8,614.3,1409.8,628.6z"/>
	<path class="st58" d="M1523.7,562.5c-2.5-13.7-6-26.8-19.1-34.8c-2.3-1.4-3.5-1-5,0.8c1.7-11.3,3.7-22.6,5-34
		c2.1-1.3,3.1,0.3,3.8,1.8C1518.6,516.4,1530.5,539.5,1523.7,562.5z"/>
	<path class="st53" d="M1585.5,363.5c-0.2,2.3-4.6,2.6-4.3,0.1C1581.4,361.5,1585.9,360.7,1585.5,363.5z"/>
	<path class="st59" d="M883.7,734.4c0.1-4,0.1-8,0.2-12c156.5-5.1,321.3,0.6,475.7-1.8c12.5-0.3,24.7,2.3,37.3,2.1
		c15.3,1.7,35.1-3.1,46.3,10c-118.3,1.8-237.5,0.1-356.1,0.6c-6.2-1.3-5.8,8.5,0.2,7c6.6,0.2,13.3-1,19.7,1.8
		c5.3,2,18.2,11.2,4.6,10.1c-69,0-137.9,0-206.9,0.1C893.4,755.4,890.4,740.4,883.7,734.4z"/>
	<path class="st60" d="M1359.6,720.6c0.9,1.4,2.8,0.4,4.6,1.9c-160.3,0-320.1,0.1-480.3,0c0-5.3,0-10.7,0-16
		c94.1-3.9,190.3-1,285-0.1C1231.4,714.5,1296.3,715.7,1359.6,720.6z"/>
	<path class="st61" d="M625.8,858.4c-3.1,6.7-2.6,13.3,0,20c-3.5,2.8-7.7,1.6-11.5,1.6c-8.2-1.2-18,0.7-25.5-2.6
		c3.5-6.3,2.3-13.1,2-19.9c1.5-1.7,3.6-1.7,5.5-1.4C605.9,858.4,616.8,854.5,625.8,858.4z"/>
	<path class="st62" d="M588.7,877.4c26.7,1.6,54.1-0.6,80.4,4.8c2.9,0.6,2.6,3.9-0.6,3.2c-29.8-1.2-60.6,3.7-89.7-4.2
		c-1.4-0.4-3.5-0.8-3.3-2.4C576.8,875.8,585.5,878.1,588.7,877.4z"/>
	<path class="st63" d="M786.8,864.5c5.5,3.2-13.6,2.3-15.6,2.8c-24.3-0.4-49.8,2.6-73.3-3.6C727,864.4,757.4,862,786.8,864.5z"/>
	<path class="st64" d="M625.8,858.4c-11.7,0.1-23.4-0.1-35-0.9c-2.2-2.1-6.9,0.6-7.9-4c14.9-3.7,31-0.9,46.4-0.8
		c1.5,0.1,3.7-1,4.3,1.2c0.8,2.5-2,2.5-3.2,3.6C628.9,858.9,627.2,857.8,625.8,858.4z"/>
	<path class="st65" d="M503.8,852.4c4,0.4,23.9-0.7,23.8,3.7c-6.1,7.1-26.5,4.4-35.5,2.6c-1.6-0.5-3.7-0.5-3.5-2.7
		C491.1,851.4,499.1,853.7,503.8,852.4z"/>
	<path class="st66" d="M564.8,844.3c4.2,0.5,11.8-2.9,13.8,2C575.1,850.4,549.9,848.3,564.8,844.3z"/>
	<path class="st16" d="M599.1,851.5c-3.7,1.1-7.5,0.8-11.3,0.7C591.5,850.6,595.3,851.7,599.1,851.5z"/>
	<path class="st67" d="M883.7,734.4c5,2,6.8,6.9,9.4,10.9c5.3,12.1,33.1,6.5,31.7,17.5c-4.3,69.4,19.4,58.3-47,58.5
		c-1.8-1.9-1.6-4.3-1.6-6.6c1.3-26.4-2.8-54.5,1.6-80.2C879.7,734.5,881.7,734.5,883.7,734.4z"/>
	<path class="st68" d="M1004.7,706.3c-40.3,0-80.5,0.1-120.8,0.1c0-0.3,0-0.7,0-1c21.2-3.6,44.3-0.2,66.2-1.3c6.5,0,6.5,0,4.1-5.8
		c-38.3-84.3-64.5-173.2-98.8-259c-26.5-59.4-53.3-118.9-74.6-180.5c-1.4-4.6-5.8-5.1-8.2-8.2c-7.4-20.3-14.7-40.5-22.1-60.8
		c1.6-1.8,3.4-0.8,5.1-0.4c27.4,7.6,54.9,15.3,82.2,23.3c9.8,3.2,17.4,39.6,23,50.3c22.2,59.7,40.2,120.8,60.1,181.3
		c1,4.2,5.9,14.1,9.8,6.7c0.7-1.3,0.9-2.9,2.4-3.7c15.9,49.1,23.2,103.7,36.6,154.5c7.5,32.4,14.6,65,23.8,97
		C994,707.3,1004.3,701.5,1004.7,706.3z"/>
	<path class="st69" d="M772.6,250.6c12.2-1.8,35.8,85.1,45.6,100.6c54.4,115.1,89.5,237.5,139.9,354.2c-25,0-49.6,0-74.3,0
		c-0.2-32.6,0.1-65.3-0.4-97.9c-5.6-18.6-11.3-37.1-16.9-55.7C836.9,450.9,808.3,349.6,772.6,250.6z"/>
	<path class="st70" d="M859.8,263.5c-5.1-13.3-10.4-26.6-15-40.1c-2-5.9-5-9-11.3-10.7c-27.8-7.1-55.2-16.2-82.9-22.9
		c-4.6-12.1-9.2-24.2-13.8-36.2c-0.2-4.5,3.3-3.4,5.4-3.2c27.4,2.8,54.8,6.5,82.2,9.8c42.9,5.5,50.6,59.9,60.5,94
		c-1.5,7.6-6.6,0.4-10,4.6C871,262.6,864.8,268.9,859.8,263.5z"/>
	<path class="st71" d="M883.6,251.6c-12.5-32.6-17.4-85.7-60.4-90.1c-27.5-3.8-55.1-7-82.7-10c-1.6-0.1-3.5-0.4-3.9,2
		c-1.2-2.6-2.9-4.9-2.7-8c36.6,1.9,72.9,4.8,109.1,10.3c19.1,1.8,29.6,13.3,35.9,29.7c5.5,18.3,45.3,118.9,32.2,127.4
		c-4.9,1.2-7.2-4.4-8-8.3C893.6,288.4,888.7,269.9,883.6,251.6z"/>
	<path class="st72" d="M695.6,804.5c3.2,1.2,49.8,2,40.1,7c-10.4,2.4-19.7-1.9-30-2.4c-13.4,0.4-27.7,1.9-40.6-2.8
		C675.1,803.1,685.4,805.1,695.6,804.5z"/>
	<path class="st73" d="M562.6,767.3c-5.5,0-11.1,0-16.6,0C542.9,762.3,567.5,763.4,562.6,767.3z"/>
	<path class="st74" d="M518.7,765.6c3.8-2.9,7.6-2.4,11.5,0C526.3,765.6,522.5,765.6,518.7,765.6z"/>
	<path class="st17" d="M670.7,734.3c4.3,0.1,8.6,0.2,12.9,0.3c-3,2.9-9.8,3.4-15,0.8c0-0.3,0-0.5,0-0.8
		C669.4,734.5,670.1,734.4,670.7,734.3z"/>
	<path class="st16" d="M724.8,811.6c3.6,0,7.3-0.1,10.9-0.1C732.1,813.1,728.5,812.9,724.8,811.6z"/>
	<path class="st37" d="M668.8,735.5c69.4-1.8,139.4-1,209-0.9c0,28.9,0,57.8,0,86.7c-5.7,0.3-11.4,1-17,2.1
		c-15.6,2-31.6,2.1-47.2-2.5c-7.4-3.5-23.9,1.8-23.8-10c0-15.8-0.2-31.7,0.1-47.5c0.1-4.7-1.1-6.2-6-6.2
		c-38.8,0.2-77.6,0.1-116.4,0.1c-3.3,0-7.3,0.6-9.1-2.6C656.1,747.4,665,741.2,668.8,735.5z"/>
	<path class="st37" d="M869.7,825.5c7.6-0.2,15.1,1.8,22.8,1.8c-19.9,0-39.8,0-59.7,0c1.4-1.4,3.1-0.9,4.7-0.9
		C848.1,825.6,859.6,828,869.7,825.5z"/>
	<path class="st75" d="M898.8,295.5c5.3,2.6,5.4,8,6.7,12.6c25.5,28.1-24.9-115.5-27.8-121.8c-10.6-37.3-52.1-27.1-81-36.8
		c43.3,0.9,87.2,2.9,130.1,4.9c-2.7,3.2-11.1-0.9-6.8,5.9c13.1,21.3,20.8,45.2,29,68.7c7.5,25.2,19.6,50.2,23.8,75.7
		c-3.5,0.9-4.1-2-5.3-4c-4.6-12-31.1,1-38.8,5.6c-2.9,1.9-5,3.7-3.6,7.6c12.7,46,29.3,90.7,44.2,136c10.2,27.2,19.7,54.5,27.8,82.4
		c5.8,15.1-14.6,7.1-22.6,10.4c-9.8,2.8-11.7-7.8-14.5-14.6c-1.6-2.8-2.4-5.8-2.3-9c1.3-2.9-0.4-5-2-7.2
		C937.8,439.9,915.8,366.7,898.8,295.5z"/>
	<path class="st76" d="M972.7,304.5c-17.4-49.1-29.2-101.2-55.4-146.5c-4.4-5.9,7.7-2.8,10.4-3.5c41.1,20.2,54.8,68.6,63.2,110.1
		c10.2,42,20.4,83.9,30.8,125.9c0.9,6.7,2.5,13.2,4.3,19.7c3.7,6.5-10.7,15.4-15.6,7.4c-3.6-5.1-2.4-12.2-7.7-16.3
		c-3.9-8.5-6.2-17.5-9-26.4C987.6,351.4,976.2,327.9,972.7,304.5z"/>
	<path class="st77" d="M1163.7,874.3c-20.2,0-40.4,0.1-60.6,0.2c-1.5,0-5-1.6-3.4,2.9c0.4,2.1-7.4,0.6-9.1,1.1
		c-66.2,3.4-133.4-1-200,0.5c-3.1,0-6.8,1.3-9.1-2.3c1.4-1.9,3.5-1.8,5.5-1.8c16.5-0.3,33.7-0.1,49.8,1.3c-5-1.6-15.4,2.9-16.7-4.1
		c0.7-5.1,21.9-0.2,26.6-2.6C1019,869.7,1091.7,873.8,1163.7,874.3z"/>
	<path class="st78" d="M881.6,876.6c60.9,1.9,122.1,0.2,183.1,1.9c1.2,3.1-1.3,2.3-2.7,2.4c-46,1.5-92.1,0.4-138.2,0.7
		c-19.6,4.7-40.8-0.6-60.9-0.9c-31-1.5-62.1-1.6-93.2-2.3c-0.5-1.4-3.1,0.7-2.8-1.8c36.9-0.5,73.9-0.3,110.8-0.1
		C879.1,875.5,880.4,875.2,881.6,876.6z"/>
	<path class="st79" d="M881.6,876.6c-1.3-0.1-2.6-0.1-3.8-0.2c-0.1-9.3,58.9-6.1,69-7c-5.3,3-24.2-1.7-25.5,2.6
		c0.7,6.2,11.9,2.3,16.4,3.3c0,0.4,0,0.8,0,1.2C918.9,876.6,900.3,876.6,881.6,876.6z"/>
	<path class="st80" d="M94.8,834.9c24.3-5.6,50.1-0.4,74.9-0.1c1.6,0.5,4.9-0.2,5.2,1.9C166.3,844.4,106.3,840.8,94.8,834.9z"/>
	<path class="st81" d="M219.8,850.3c5.7,0.1,5.2,6.7-0.4,6.2c-9.3,1-18.5,0.4-27.8,0.2c-3.8-0.1-2.8-3-3.2-5
		C185.2,847,216.2,850.6,219.8,850.3z"/>
	<path class="st9" d="M219.8,850.3c-4.8,0-9.6,0.3-14.3-0.7C210.2,849.7,215.1,848.5,219.8,850.3z"/>
	<path class="st32" d="M766.9,876.6c0.9,0.6,1.9,1.2,2.8,1.8c-2.2,0.4-4.3,0.4-7-0.5C764.2,876,765.6,876.4,766.9,876.6z"/>
	<path class="st36" d="M862.9,880.7c20.3,0.3,40.6,0.6,60.9,0.9c2.3,3.5,1.9,5-2.8,4.9c-14.4-0.2-28.8-0.1-43.2-0.1
		C878.9,877.4,867.7,883.7,862.9,880.7z"/>
	<path class="st82" d="M1049.7,881.3c3.9-2.9,13.3,1.7,15-2.8c15.9,0.2,32.5-0.4,47.9,1.9C1091.6,880.6,1070.6,881.6,1049.7,881.3z"
		/>
	<path class="st83" d="M1003.7,400.5c7.6,4.5,3.7,23.8,16.9,17.9c8.8-3.9,3.5-10.4,2.5-15.2c-0.9-4.3-1.2-8.4-1.3-12.7
		c23.1,82.9,46.3,165.9,73,247.8c30,78.6-0.2,66.6,73.9,67.2c0.1,0.3,0.2,0.6,0.3,0.9c-22.8,0-45.5,0-68.3,0
		c-34.3-85.8-56.7-177.3-86-265.3c-4.7-11.1-6.8-23-10.8-34.4C1003.3,404.6,1002,402.6,1003.7,400.5z"/>
	<path class="st1" d="M756.4,539.8c-2.1-2.4-5.9-2.8-5.8-7c0.1-3.4,1.9-4.6,4.5-4.8C759.3,527,758.1,537.6,756.4,539.8z"/>
	<path class="st1" d="M783.3,507.2c-1,1.4-3.3,1.2-3.2-0.8C780.7,504.2,782.8,505.2,783.3,507.2z"/>
	<path class="st84" d="M1099.8,704.4c0.7,0.4,0.9,1.1,0.9,1.9c-32,0-64,0-96,0c-15.4-47.3-24.5-96.9-37.6-145.1
		c-1.2-9.5-8.8-25.4-6.4-33.8c2.1,0.9,1.7,2.9,2.1,4.7c3.4,16.7,16,5.4,28.1,8.4c13.8,2.4-2.8-23.6-2.3-31.1c2.7,0.1,3,2.4,3.6,4.1
		c21.5,60.9,42,122.3,58.2,184.9c1,4.1,2.9,5.7,7.2,5.7C1071.8,704.2,1085.9,703.5,1099.8,704.4z"/>
	<path class="st85" d="M859.8,263.5c10.9,5.6,14.4-13.9,20.7-6.4c1.5,1.6,2.4-1.3,3.2-2.6c16.1,42,24.6,88.4,36.5,132.3
		c4.4,18.3,8.6,36.6,12.8,55c0.4,1.9,1.3,3.9-0.2,5.7c0.3,9.8-8.6,11.1-11.5,1.8c-8.5-24.7-16.4-49.7-24.3-74.6
		C885.4,337.3,873,300.3,859.8,263.5z"/>
	<path class="st86" d="M932.7,447.5c-13.1-62.6-30.8-124-46.1-186c49.2,143,78.5,296.6,118,443.9c-11.2,0.2-11,0.1-14-10.7
		C968.6,613,953.4,529.3,932.7,447.5z"/>
	<path class="st75" d="M887.7,261.6c-0.3,0-0.7,0-1,0c-2-1.9-1.2-5-2.9-7c0-1-0.1-2-0.1-2.9C886.6,254.3,886.5,258.2,887.7,261.6z"
		/>
	<path class="st38" d="M1099.8,704.4c-14,2.8-30,0-44.7,1.1c-3.1,0-4.5-1.1-5.2-3.9c-16.9-64.9-37.2-129.7-61.2-192.1
		c-5.1-20-13.9-39.4-21-59c1.2-3.3-1.4-8,3.7-9.1c7.8-2.5,14.3-7.7,21.8-10.8c7.6-0.9,7.5-19.5,14.8-9.6
		C1041.8,513.9,1066.3,610.9,1099.8,704.4z"/>
	<path class="st87" d="M1011.7,427.5c-2.9-1.3-6.8-13.3-9.3-6.3c-1.7,10.4-22.2,17.3-31.4,21.5c-3.5,1.1-1,5.7-3.2,7.8
		c-10.8-35.7-24.5-70.5-35.5-106.1c-3.4-10.5-5-21.5-9.3-31.8c-1.1-2.7,0.6-4.5,2.9-6.1c11.2-7.7,23.8-11,37-12.4
		c5.5-0.2,4.6,9.8,9.8,10.5C985.6,345.5,999.6,386.2,1011.7,427.5z"/>
	<path class="st84" d="M958.7,518.5c-1.4-1.8-1.4-4-1.9-6C959.3,513.9,960.5,515.7,958.7,518.5z"/>
</g>
</svg>
