<svg id="Layer_1" data-name="Layer 1" xmlns="http://www.w3.org/2000/svg" viewBox="0 0 1645.24 888.64"><defs></style></defs><path class="cls-1" d="M80,235.56C73.37,187.18,62.73,139.23,43,94.34c-1.86-4.38-1.85-7.56,1.23-11.61C54.71,69,54.57,69.21,71.55,66.51c24.61-3.91,49.13-8.43,73.7-12.63,7.36-1.26,14.76-2.33,22.14-3.48,3.45-1.18,4.23.83,4.86,3.68,5.94,27,12.37,53.87,18.91,80.72,58,240.79,18,58.44,136.62,258.74,33.92,94.28,33.42,197,58.34,293.72.54,2.17,2.23,5.6-2.68,5.34-32.36-10.86-64.14-23.68-97.9-30.28-21.81-5-42.36-13.55-62.38-23.46-14.19-7.29-31.38-12.83-43.8.34-20,22.11-31.47-16.33-59.79-19.13-26.09-4.63-40.89-26.21-57-44.84C49.05,557.74,29.89,551,8.44,549.77c-7.91-.89-7.84-.88-7.93-9.09-4.71-96.2,23.8-127.16,52.93-209.35,6.37-26.27,4.7-53.88-.6-80.27-.66-2.95-.21-5.1,3.84-4.83,2.3.16,4.3-2.11,6.85-1.85,10.78,48.86,2.74,106.18-4,157.14-.62,4.11,1.27,6.18,4.84,7.51a348.72,348.72,0,0,1,33.23,15c24,11.16,44.91,27.12,66,42.58C151.27,389.62,126,314,99.54,240.55,97.47,227.18,81.73,246.85,80,235.56Z" transform="translate(0 0)"/><path class="cls-2" d="M1381.14,83.76q53.38-.06,106.77-.16c7.64-.33,1.14,12.11,5,15.16,3.31,2.95,11.09-.08,15.87,1.65-2.31,2.35-5.29,1.53-8,1.63-5.52.2-6.62.83-6.24,6.39.61,9-.16,18,.71,26.93,1,46.48,3.26,93.09-.54,139.51-1.74,41.36-7.93,82.39-12.79,123.47-1.69,15.7-5,31.22-7.79,46.75-3.52,11.17,7.17,7,7.56,15-14.85,31.09-34.71,60.15-46.11,93.2-2.31,3.31-4.5,16.79-8.48,14.91-3.71-19.28-6.29-38.89-14.85-57.07-5-12.39-10-22-6.18-35.3-5,98-89.37,161-150.79,227.29,129.33,2.42,248.21.05,377.93.91-.26,1.29-1,1.7-2.27,2.72-138.86,2.69-277.53.76-416.48,1.3-8.62-1.73-44.36,4.44-44-5.68-34.69-150.89-75.5-300.47-125.78-446.9-9.9-32.62-20.16-65.17-32.17-97.09-3.54-7.29,6.36-5.53,10.8-5.61,7.55.68,15.12-.29,22.69.09,38.45,113.93,68.52,231.68,100.64,348.19,19-66.84,16.09-139.53,29.65-205.6,3.1-.36,2.91,3.1,3.47,5.14,2.79,12,8.08,23.55,7.26,36.06-12.06,87.79-22.09,176.07-30,264.27,15.21-52.14,21.36-106.31,33.25-159.24,20.35-85.6,37.61-173.37,65.67-256.39,2.91,1.92,1.8,4.71,1.39,7.22-3.3,20.35-6.61,40.7-9.6,61.1-6.35,44-12.64,88.14-17.09,132.44-4.69,100.57-8.77,201.47-14.39,301.85,82.83-63.2,79-116.32,99.68-207.78,16.29-51,15.89-105.71,26.09-158.24C1354.31,242.86,1362.44,161,1381.14,83.76Z" transform="translate(0 0)"/><path class="cls-3" d="M358.64,18.44c26-5.3,52.42-8.35,78.5-13.3,3.5-.63,5.46-.07,5.9,3.63,25.41,60.49,42,126.41,58.42,190.42.85,3.82,2.56,5.28,6.59,4.65,6.65-1,7.31-.59,9.32,5.85,9.44,30.17,19.17,60.25,29.41,90.17,22.75,64.31,44.78,129.62,79.26,188.81,4.19,52.85-.11,107-2.69,160.11,3.44,22.32-76.31-11.56-77.24-23.27C501.37,479.85,487,325.56,432.81,183c-18.45-43-39-85.11-55.72-128.86C371,43.29,368.75,25.3,358.64,18.44Z" transform="translate(0 0)"/><path class="cls-4" d="M620.76,655.47c7.17-74.25,5-149.68,2.86-224-1-32.56-1.74-65.42-4-97.81,1.88-22-9.46-40.66-14.25-61.13-.38-62.14-14.86-122.69-32.49-181.94-6.14-12.18,18.91-5,25.08-6.75,18,66.91,37.16,134.21,55,201.41,16.83,57.2,41.16,111.73,58,168.94C734.7,522.39,749,593.24,771,661.92c7.24,21.73,13.65,43.7,21,65.39.86,2.38,2,5.22-1.23,7.09-56.93,1.3-114.11.05-171.12.45-8.19,0-9.13-1.17-8.08-9.53.05-7.24,4-13.53,3.74-20.67C617.65,688.46,617.32,671.11,620.76,655.47Z" transform="translate(0 0)"/><path class="cls-5" d="M383.44,692.6c2.95-.45,2-2.2,1.54-4.07-6.52-25.65-11-51.7-15.52-77.77C358,540.4,350.71,469,329.78,400.5c3-.37,3.84,2.16,5.16,3.95,9.49,12.8,21.08,23.49,33.66,33.14,1.35,1,2.86,3.05,4.72,1.88.93-34.77-7.74-71.8-10.13-107.27-3.51-38.82-9-77.73-10.28-116.62,4.3-8.69,15.59,33.41,21.54,29.73C421.71,333,478.36,417.52,499.87,516.77c19.4,67.22,46.21,134.1,47.65,204.87,1.8,10.59-10.59,1-14.16-2-21.53-20.33-51.85-22.3-75.61-38.14C431,659.11,421.91,710.79,383.44,692.6Z" transform="translate(0 0)"/><path class="cls-4" d="M1635.81,695.51c0,.76-2.71,9.92-3.46,9.92-132,0-243.21,0-375.24,0-14.78.42,49.46-53.08,53-60,35.68-38.15,75.23-78.27,88.12-130.47,2.87-14.08,5-28.31,7.42-42.48a2.46,2.46,0,0,1,1.83-2.37c-5.57,68.13-13.68,136.19-21.54,204.34a1.39,1.39,0,0,0,2.6.89c19.62-33.12,25.76-71.78,39.19-107.05,25.45-66,67-124.1,87.48-192.15,12.7-20.37-3.77,68-2.6,72.64-6.44,50.6-14.77,100.94-23.72,151.15-4.68,25.16-8.24,50.53-13.06,75.67a1.4,1.4,0,0,0,2.52,1.06c45.67-61.81,47.57-142.28,64.25-214.83,20.43-102.29,33.78-209.07,59.84-308.5,4.88,2.16,38.53,1.32,34.17,8.11-11.33,42.61-20.6,85.75-29.72,128.88-18.41,103.44-36.3,207.56-41.84,312.65-.71,33.15,38.71,43.56,63,55.55,18.82,7.32,17.5,4.08,16.85,23.86C1644.88,684.07,1635.86,693.81,1635.81,695.51Z" transform="translate(0 0)"/><path class="cls-6" d="M353.79,214.52c4.8,62.4,11.73,124.68,18.57,186.87-.43,11.44,6.62,31.58,2,40.91-1.41.49-2.45-.43-3.58-1.23-16.08-11.07-29.17-25.63-41-40.57-22.49-36.1-56.31-100.73-93.45-119.61C221,275.78,215,226.7,208.69,210.49c-8.32-33.61-16.72-67.21-25-100.83C179.21,90.83,175,71.94,170.86,53c-.51-2.33-1.83-2.4-3.47-2.63,34.74-6.22,69.54-12,104.37-17.71,17.55,41,36.09,81.55,55.16,121.86,8.07,17.34,16.36,34.59,25,51.64C353.24,208.72,355.45,211.26,353.79,214.52Z" transform="translate(0 0)"/><path class="cls-7" d="M1630.9,706.79c-31.42,12.76-85,30-107.12,41.33C1509,756.77,1492,777.41,1484,780.78c-11.75,5.7-4,17.81-23,19.57-26.1,3.81-51.71-7-77.89-5.8-20,1.17-29.74,15.94-52.59,12.36-25.12-1.2-49.88-5.9-74.93-7.82-22.17-.93-44,4.15-66.23,2.34l-36.48.13c-5.8.64-6.58.17-6.66-5.43-1.85-15.36,3.55-38-2.77-51.23-2.19-2.46-1.26-4.62,1.94-5.56,99.1-1.45,198.5,0,297.7-.51,6.54-.07,8-1.85,6.84-8.13.48-7.14-43.87-4.42-51.79-6.21-73.15-4.32-146.27-9.53-219.39-14.58,126.62-10.15,309.16.16,454.47-3.42" transform="translate(0 0)"/><path class="cls-6" d="M544.76,695.45c-5.39-47.12-19.85-92.53-33.94-137.61-14.94-47.06-26.1-95.29-45.19-141-25.74-59.76-64.57-112.29-91.86-171.32-14-22.17-18.49-51-26.4-76.25-11.06-47.48-24.11-96.2-30.66-143.93C382.24,13,357,13.39,385.77,71.82c32.4,77,71.33,151.9,86.13,235,19.84,83.86,35.83,168.64,57.9,252,5.91,22.57,12,45.1,17.9,67.68a7.69,7.69,0,0,0,3.91,4.88c21.1,13,44.22,22.16,69.15,24.12-.08,23.21-3.49,46.88-8,69-4.91,5.47-18.63,6.27-25.39,2-4.37-2.92-9.68-4.32-14.59-6.35-4.55-1.88-9.49-.33-14.26-.76C546.69,718.56,558.71,711,544.76,695.45Z" transform="translate(0 0)"/><path class="cls-8" d="M1504.69,494.53c5.82-39.66,12.28-81.08,14.19-120.42-1.58-.47-1.85.9-2.24,2a488,488,0,0,1-36,85.39c.22-3.47-.81-5.81-4.81-6.06-10.41,2.94,5.36-45.25,4.06-52.91,4.16-29.25,7.21-58.63,10.77-88,5.65-49.43,4.65-98.94,4-148.3.33-20.86-1.45-41.66-1.41-62.53-.06-3.2,1-3.18,3.2-3.17,36.71-.28,73.38,1.73,110,4,6.33.37,6.34.41,5.34,6.4-27.82,148-57.58,295.71-86.12,443.5-1.91-1.9-1.21-4.35-1.36-6.6C1522.53,528.81,1516.23,509.59,1504.69,494.53Z" transform="translate(0 0)"/><path class="cls-9" d="M1381.32,83.76c-15.22,77.48-24.9,155.92-37.73,233.74-56.73,117.27-90.6,244.75-127.68,368.26,21.57-198.56,51.82-398.89,93.58-594.36,1.23-7.83,1.23-7.84,9-7.82Z" transform="translate(0 0)"/><path class="cls-10" d="M321.79,872.35c3.73-7.1-12.46-5.86-16.3-7.77-3-2.19-6.52-1.85-9.75-1.69-8.29.41-15.85-3.78-24.09-3.42-1.15,0-3-.94-2.65-1.78,1.45-3.92-2.29-5.37-3.37-8-2.86-7-9-9.3-15.61-10.8-6.41-.75-15.8-11.34-23-15.33-3.78-1.74-9.63,1.06-11.75-3.47-.77-10.19,14.93-6.81,21.37-8,38.3-3.5,76.67-5.87,115-8.55,14.63-.62,29.19-2.46,43.85-2.67,10.73.36,8.66-3.23,12.1-11.4l.27-7.93c3.14,1,2.1,3.79,2.18,5.86-.63,20.7,20.78,14.22,34.46,15.56,4.93.49,10-.17,14.41,2.82,1.49,1,3.24,0,4.87.07,9.73-5.53,26.22.06,30.54.69,5.13,1.48,6.77-4.13,11.05-5.21,13.58-1.07,26.47.55,40.09-.12,23.21-.44,8.26,31.08,19.43,42.54.18,1.36-1.49,1.59-1.89,3.08,5.41,2.75,22.25-5.43,18.76,3.06-.58,1.61-.36,2.78,1.09,3.7,12.65,2.89,9.8,10.89,8.59,21.16-1.4,5.52-7.52,3.61-12.42,4.54,28.28,8.75,58.7,3.36,87.95,4.28-13.43-4.09-27.67-1.91-41.37-4.53-4.49-5.57-4.67-14.9-.42-20.89,1.65-1.27,4.09-1.22,5.47-3.66-16.13-.87-32.36-1.91-48.14-1.15a1.76,1.76,0,0,1,.19-2.3c6.37-4.48,4.88-11.51,5.51-17.67,1.41-25.06,4.24-24.12,27.9-20.39,17,.88,3.59,32,16.05,35.47a9.14,9.14,0,0,1,7,7.1c1.7,5.47,14,1.18,18.87,6.93a4.53,4.53,0,0,0,3.26,1.1c10.16-3,10.95,6.55,16.13.47,7.32-8.74,13.25.43,21.87-.91,15.2,2.21,30.58,4.18,45.91,3.94,2,.27,5.47-.55,6.38,1.69.54,4.75-21.26,7.09-25.28,5.86-12.66,5.29-26.32,0-38.81,3.26,4.89,5.64,13.56,2.4,20,4.44,2.41,0,8.78,3.34,3.56,4.6-50.82.34-101.61-.5-152.34.4-6.54-9.1,3.49-50.27-8.55-54.57-13-2.36-26.18-.55-39.17-2.57-9.6.23-5.38,15.48-6.75,22-3.74,3.16-8.95,1.56-14,4.16,7.64,4.49,18,.28,22.93,4.8.26,4.08-1.55,6.81-5.53,7.7s-5.36,3.49-5.34,7.25c-.26,4.69,1.41,11.5-5.73,11-20.47-.23-40.93-.11-61.4-.08-47.9.19-96.65,2.76-144.42-.35C297.69,881.8,330.2,886.77,321.79,872.35Z" transform="translate(0 0)"/><path class="cls-11" d="M1429.63,724.52c6.32-.19,12.53,1.5,18.88,1,2.2-.23,3.19,1.53,3.12,3.6,1.18,11.31,1.17,11.33-10.12,11.33-99,1.44-200.42-2.75-298.32,1.45-.73,3.71,5.82,1.89,4.51,8.25,0,15.33.16,30.66-.12,46-.07,4.19,1.27,5.76,5.25,5.43-39.52,5-78.7,12.41-118.53,14.68-26.83,1.15-53.06,11-79.89,9.43-6.6-1.41-36.65.23-37.88-4,6.86-1.7,6.9-6.74,6.78-12.51-.32-14.64-.23-29.29,0-43.93,1.52-12-17.63-5.26-18.3-13.12,69-4.17,139.92,1.34,209.17-2-5-13.36-33-2.72-32.67-13,0-3.68,2.15-4.92,5.39-5.11,117.31-.59,234.69.61,352-.42C1436.8,727.18,1431.09,728.77,1429.63,724.52Z" transform="translate(0 0)"/><path class="cls-12" d="M702.62,83.85c7.47-4.23,15.78,29.17,19.87,34.94,20.68,42,37.19,94.72,53.74,138.65,14.18,19.54-35.75,46.95-48.43,62.28-3.66,3.59-5.32,3.19-7-1.65-6.17-17.24-11.75-34.67-17.28-52.13C684,206.3,666.92,145.77,644.05,87.34,640,80,695.46,86,702.62,83.85Z" transform="translate(0 0)"/><path class="cls-13" d="M560.89,343.45c-16.61-44.57-31.25-89.83-45.25-135.27-1.06-3.61-2.93-4.12-6.22-3.42-7.33,1.59-7.52,1.52-9.25-5.53C484.61,134.75,465.11,71.3,443,8.77L469.75,4.5c4.79-1.7,6,1.56,7.3,5.07,7.77,21.61,15.79,43.14,23.28,64.85,1.9,5.53,2.36,5.68,7.92,3.66,5.35-1.71,12.46-6.9,14.2,1.58,21.54,66.85,41.29,134.26,60.09,201.93.3,3.4,2,6.57,1.86,10C578.48,308,570.66,323.68,564.48,340,563.87,341.61,563.42,343.71,560.89,343.45Z" transform="translate(0 0)"/><path class="cls-14" d="M1185.84,336.63c.83-14.34-6.23-26.95-9.51-40.65-10,69-9.38,142.93-30.17,208.94-14.09-53.52-28.83-107.07-43.38-160.45,13.39-5.43,24.27-10.49,33.47-22.35,1.67-1.86,1.88-4.18,1.94-6.55,4-54-3.21-108.89-3.6-162.2,9-.92,18.12.39,27.13-.9,4.68-1.52,4.89,2.17,5.37,4.94,1.79,10.46,3.58,20.93,5,31.45,2.49,6.74.31,21.91,6.64,25a8.85,8.85,0,0,1,5.66,7.51c2.5,22.5,11,44.62,11.27,67.17-2.51,14.37-5.06,28.74-7.42,43.14C1188,333.54,1188.4,335.87,1185.84,336.63Z" transform="translate(0 0)"/><path class="cls-5" d="M80,235.56c1,2.07,1.77,3.24,4.78,2.12,16.65-6.21,12.65-6.3,18.21,8.29a1416.94,1416.94,0,0,1,62.51,218.1c1.66,4.38-1.43,7.54-4.76,2.84-29.28-24.51-63.11-43.15-98.54-57.17-3.82-1.55-5-4-4.29-7.76,8.35-51.89,12.62-105.66,5.63-157.6C68.36,241.33,80.08,242.69,80,235.56Z" transform="translate(0 0)"/><path class="cls-15" d="M464.56,806.46c-2.85,1.57-5.6,2.75-8.18-.6a3.55,3.55,0,0,0-2.66-1.2c-7.59.67-15.1-2.13-22.71-.47-7.79,1.13-21.33-1.22-22.31-10.46-.12-4.08,1-8.27-.77-12.24,0-2.31-1.23-2.88-3.48-3q-51.06-2.94-102.12-6.09c-45.23-3.45-92.28-2.23-135.64-16.84,94.93,5.72,192.45,7.29,288.36,2.18,45.55-1.57,91.1-2.75,136.63-4.89,3.08-.15,5.58-.64,3.36-4.62,3.5-.05,3.64-2.35,3.55-5,1.1-8.31-11-5.11-15.88-8.49,2.22-2.49,5.25-2,8-1.81,25.27,2.82,54.85-1.58,78.08,2.44-11.09,4.14-24.59.45-36.51,1.69-5.47,0-5.92.5-5.94,6.07.91,67.41-12.93,46.41,67.69,57.91,2,.28,5.52.38,5.55,3-4.08,4.41-22.85.55-30.07,2.36,18,3.89,36.69-.88,54.6,4a24.17,24.17,0,0,0,10,.39c1-1.4-.57-1.13-1-1.41-4.33-2.34,2.85-4.11,4.95-3,15.07,7,62.11-4.38,51.74,23.07l-2,.77c-3.47-2.07-7.51-2.1-11.17-1.93-31.6,1.15-62.38-7.05-93.83-7.77-15.25-3.34-31.42-3.44-47.87-5.75-7.35,0-10.64-3.06-11.42-10.29.5-14.88-13.42-9.53-23.66-11.67-10-.25-6.26,11-18.41,17.63-5.21,2.3-11.51-.82-17.15,1.53-3.12.82-4.27-2-5.21-4.34-1.29-3.16-1.55-6.82-5.39-8.48-1.42-.62-1-2.07.39-2.59,7.48-2.5-5.89-28.27,6.75-29.58-10.51-6.17-16.26,6.89-26,3.93-5.78-.46-29.85-2.85-29.54,5,1,6.93-5.8,17.4,1.28,22-.94,2.57-3.56,5.48-3.84,6.27-2.67,8.93-14.59-2-12.87,8.51a3.08,3.08,0,0,1-.89,2.71,3.52,3.52,0,0,1-1.32-2.53C486.86,801.37,472.28,804.88,464.56,806.46Z" transform="translate(0 0)"/><path class="cls-16" d="M562.57,767.34c-8.54,3-6.09,15.62-4.73,23.65,1.28,3.9,2.34,7.6-5,6.9,10.73-.51,3,17.93,14.24,11.74,9.31-.22,11.26,2.22,19.6-4.78,7.1-9.25,2.15-15.46,16.68-13.21,18.14,1.64,20.21-2.37,22.62,17.46,1.49,3,3.42,4.86,7,4.33,22.6.88,44.74,6.34,67.4,6.91,19.12.17,37.55,5.41,56.62,6.18,6.72,1.12,28.25-1.95,30.74,3.75-6.88.6-13.94.13-20.53,3.06.81,2.57,3.37,2.47,4.58,4-16,9.46,5.23,15.22,11.45,23.28,9.15,8.15-35.55,2.91-40,4.36-13.8.29-27.53-1-41.3-1.47-1,0-2.37-.74-3,.82-7.29,3.07-12.52-8.65-19.51-.49-3.92,5.35-5.43,5.4-10.09.83-1.51-1.48-2.82-.78-4.05-.19-8.54,3-13.6-8.28-27.6-4.38,1.23-6.07-1-9.39-7.23-10.7-9.66.09-2.19-32.46-10.87-34.72-8.88,1-29.84-8.53-28.57,6.3-2.76,7.82,1,24.57-5.17,29.23-1.72.59-3.11,1.2-3,3.31l0,0c-4,.81-3.54-1.27-2.26-3.64,4-7.25-13.72-2.18-15.84-5.51-14.25-6.91,3.13-41.24-17.18-41.74-6.23.51-12.49-1.23-18.71.68-2,.61-4.76,1-6.11-1.87-2.81-1.42-6.25.19-9.57-.25-1.77,0-7.34,2.59-8.78,1.14-3-2.44-3.16-5.06-2.68-9.15,2-4.95,0-22,4.75-22.67,10.49-1,21.29-3.14,31.85-.27C547,769.42,550.69,762.28,562.57,767.34Z" transform="translate(0 0)"/><path class="cls-17" d="M789.76,829.5c.58-7.92-.49-17.62-10.58-17-12.3.14-24.38-2-36.54-3.17-4.28-1-8.41-3.26-12.61-.21-8-2.77-30.39,1-34.44-4.6l3.55-.38c-1.86-2-3.92-1.7-5.89-1.68-10.81.1-21.32-2.55-32-3.43-7.88-2.43-37.74.23-36.39-10.17,3.19-65.6-17-52.09,43.88-53.44.16,6-16.79,17.77-4.08,20.34,37.94.51,76,0,113.93.18,6.08.16,13.59-1.46,12.64,7.07.15,9.83,0,19.65,0,29.48-2.23,32.95,4.67,21.73,30.75,28.79,12.64,3.2,25.39,2.16,38.13.79,2.25,3.67,8.83,0,9.56,4.36C843.66,829.1,816.18,826.82,789.76,829.5Z" transform="translate(0 0)"/><path class="cls-18" d="M582.7,287.57Q553.83,182.89,521,79.38c-1.17-5.31-4.31-3.32-7.82-1.82-11.94,4.53-12.13,4.59-16.05-7.44-4.85-9.49-19.66-68.19-27.42-65.62,31.6-5.2,24.31-12.14,34.16,19.41.75,2.44,1.51,3.87,4.86,3,6.51,0,23-8.39,24.81.59,3.93,6.89,1.11,22.71,12.23,21.22-4.18,2.66-3.24,6.17-2.07,10.11,18.68,59.86,36.79,119.86,53.31,180.37,1.35,7.38,7.88,16.24,3,23.26C594.3,267.13,587.29,288,582.7,287.57Z" transform="translate(0 0)"/><path class="cls-19" d="M1194.6,288.51c4-59.64,24.67-118.16,30.14-177,7-2.45,1.66-5.19,6.4-6.85,13.26-4,26.46-8.29,39.81-12,12.34-2.63,25.18-.35,37.73-1-1.89,5-18.83,1.35-24.18,2.41-6.34,0-6.77.31-8.23,6.23-8.67,27.84-8.84,59-20.5,85.47-12.71,45.09-24,90.55-36.21,135.77-2.09.16-2.9-1.57-3.72-2.86C1209.66,308,1201,298.85,1194.6,288.51Z" transform="translate(0 0)"/><path class="cls-18" d="M1255.77,185.7c7.61-15.35,13.19-93.21,25.76-93.2,9.2-.49,19.35,1.67,28-1.1-14.93,76.84-29.72,153.71-41.88,231.06-2.33,1.43-3.32-.57-4.35-1.89-4.76-9.13-24.12-21.68-21.67-31.17,3.61-33.45,9.82-66.53,14.94-99.77C1256.73,188.35,1257.73,186.67,1255.77,185.7Z" transform="translate(0 0)"/><path class="cls-20" d="M733.92,145.61a106.14,106.14,0,0,1-9.22-23c92,2.23,184,6,275.92,9.66,8.89.83,5.76,17.81,13.51,20.52-2.66,1.21-.72,3.16-.79,4.79-18.21,4.59-37.59-1.46-56.29-.31-35.44-2.25-70.83-2.8-106.35-4.42-36.48-1-73-3.21-109.44-4.8C738.59,147.92,735.91,147.82,733.92,145.61Z" transform="translate(0 0)"/><path class="cls-6" d="M784.56,863.61c-5.49-7.76-33.95-19.63-12.78-26.27,19.09,8.07,38.4,15.19,59.45,14.95,129.28,6.93,263.76,6.26,390.44,19.2-2.2,3-5.53,1.85-8.35,2-18.71,1.34-37.51,4-56.18,1.32-70.08,1.92-140-4.49-210-3.82-20.46-.87-40.82.67-61.17,2.5-5.14-.82-7.83,4.63-12.71,4.47-25.34.35-50.72-.11-75.93-1.17-10.71.63-5-8-10.4-11C785.84,865.38,784.75,865,784.56,863.61Z" transform="translate(0 0)"/><path class="cls-21" d="M243.31,833.45c5.05,6.06,14.22,3.64,19.4,9.42,1.72,1.93,8.67,8.27,9.49,11.26.09,1.57-3.57,1.15-2.5,3.28,11.78,3.05,25.7,3.45,38.14,6.75-52.32-1.57-104.69-5-157.34-2.57-7.83-1.24-35.51,4.1-38.07-2.58-3.45-1.84-9.23-.75-13.39-1.71,3.81-7.86,8-10-3.14-13.24-21.59-5.06-44.1-3.3-66.12-4.2-6.61.65-7.67-7.53-.62-6.91q66.93-9.35,134.28-15.19c13.91-1.26,27.86-1.81,41.74-3.49,4.18-.51,8.6-1.44,12.6,1.11-6.32,9.13,5.38,4.15,9,7C229.26,822.68,238.77,828.53,243.31,833.45Z" transform="translate(0 0)"/><path class="cls-1" d="M316.71,25.35c17.62,73.66,27.46,150,57.06,220.18-.57,12-17.16-30.8-20-31-25.64-60.81-60.9-120.18-82-181.83Z" transform="translate(0 0)"/><path class="cls-8" d="M595,748.22c4.86-.42,5,6.75-.28,6.17-43.85,2.16-87.77,2.73-131.64,4.28-64.22,1.74-128.37,5.13-192.6,3.56C231,759.32,188,764.49,151,749.05,298.37,746.64,447.17,748.78,595,748.22Z" transform="translate(0 0)"/><path class="cls-8" d="M217.78,815.38c-64.71,3.9-129.68,10.51-193.63,20-2.09-2.16-4.7-3.59-8-5.09,127-31.7,261.2-30.66,391.51-40.88,0,15.57,2.69,11.46-12.18,12.71C336.31,806.7,276.72,809.64,217.78,815.38Z" transform="translate(0 0)"/><path class="cls-17" d="M1224.74,111.49c3.56-.43,3.08,1.6,2.6,4-12,55.8-21.12,112.34-32.51,168.17-4.21-11.73-8.17-66-16.39-68.21-8-1.49-2.55-9.89-2.4-15.12,6.85-26.4,10.9-54.11,19.63-79.74C1205,116.37,1215.14,114.83,1224.74,111.49Z" transform="translate(0 0)"/><path class="cls-22" d="M600.88,257.34c-15.79-55.74-31-111.65-48.9-166.77-3.62-11.39-6.63-23-10.45-34.29-4.29-9.17,5.86-7.48,11.78-7.76,8.7-.27,8.68-.27,11.19,8.26,3.21,6,4.43,26,10.77,27-4.22,1.56-1.46,4.48-.93,6.48,17.24,59.37,32.71,119.85,32.15,182.14C602.06,268.45,602,262.58,600.88,257.34Z" transform="translate(0 0)"/><path class="cls-23" d="M429.79,887.32c21.19-2.48,43.87-.23,65.56-.79,4.51.06,6-1.32,5.46-5.64-.08-5.38-1.54-13.75,6.36-13.45,4.9,0,4.13-4.37,5.59-7,3.59-2.44,8.55-1,12.61-4.74-22.57-3.45-25.46,2.31-20.8-23.81.46-3.4,2.18-3.83,4.65-3.38,11.22,1.28,22.26,1.6,33.43,1.78,4.38,1.59,12.71-1.11,13.19,5.17,4.13,17.11,1.15,34.66,2.93,51.85C515.78,887.66,472.78,887.49,429.79,887.32Z" transform="translate(0 0)"/><path class="cls-16" d="M786.76,864.49c3-.7,4,.43,4.09,3.55-1.69,13,13.32,4.73,20.68,8.14-1.71,2.17-4.18,1.74-6.44,1.71-12.39-.17-24.77.23-37.11-.48,1.57.23,4.25-.57,4.95,1.49a2.42,2.42,0,0,1-1.83,1.53c-12.21,2.91-24.81,6.4-37.2,5.84-.65.14.29.92,0,.34-.15-.25-.07-.41.23-.43,3.56.6,19.76-2.69,19.6,1.18-52.95-.15-106,.45-158.89-.07,38.91-3.42,79.47,1.89,118.55-2-9.67-4.19-24.39,1.51-29.26-8.79,6.26-4.14,33.46,2.42,39.33-3.15,6.18-2.59,13.64,3.36,19.84-2.48,2-1.63,5.27.5,8.85-2.41-6.65-.87-18.75,1.71-22.36-1C747.63,862.85,768.1,868.32,786.76,864.49Z" transform="translate(0 0)"/><path class="cls-19" d="M1195.67,120.56c-5.52,28.65-13.15,56.91-19.55,85.39-.26,1.06,1.31,4.28-2.28,3.45-3-8.43-5.21-58.19-12.12-56.93C1170.43,139.25,1177.35,120.82,1195.67,120.56Z" transform="translate(0 0)"/><path class="cls-24" d="M1030.57,887.55c-50.88-.15-101.8.59-152.66-.16-.14-.26-.27-.53-.4-.79,8.75-6,43.15,4.26,46.87-5.9,62.39-2.8,125.52.81,188.12-1.78,4.36.59,12.59-2,15,2.1C1115.29,894,1051.89,886.17,1030.57,887.55Z" transform="translate(0 0)"/><path class="cls-25" d="M1030.57,887.55c32-1.83,65.62,4.73,96.27-5.71l-.22-1.48c-10.75.14-21.47-.55-32.2-.51-1.29-.09-3.51,1.33-3.76-1.55,6.25-2.86,12.54-4.73,19.7-4.51,37.09-.53,74.47,3.11,111.31-2.3,1.62,4-1.69,2.76-3.2,2.8a253.64,253.64,0,0,0-35.23,3.23c-13.43,2.23-24.18,12.31-38.46,10.61C1106.77,888.53,1068.42,888.92,1030.57,887.55Z" transform="translate(0 0)"/><path class="cls-2" d="M668.76,734.63c-39.27-1.79-79.89,5-118.16-5.71-.57-1.93-2.44-1.87-3.85-2.5-1.57-10.26-.89-20.67-2-31,2.42,1.59,3.44,4.56,6.57,5.75,1.24.47.78,4.54,1.83,6.59s2.56,3.17.39,5.81c-2,2.45.68,5.11,2.85,4.5,13.07-2.42,25.32,2.86,36.37,9.84,1.67,1.69,4.6-.69,7.12-.58a24.39,24.39,0,0,0,12.87-2.91c0,9,0,9,9.1,9h48.89C671.71,734.76,669.65,735.4,668.76,734.63Z" transform="translate(0 0)"/><path class="cls-26" d="M753.68,887.36c-6.88-2.35-13.94.26-20.93-1.59,14.2,2.21,26.49-5.56,39.92-7.24,1.47-1.56,3.41-1.07,5.19-1.08,22.68,1.06,46.46-1.3,68.63,1.73,1.26,5.5-11.94.19-12.58,4.13.57,5-3,3.33-5.41,3.6C803.74,888.52,778.61,887.09,753.68,887.36Z" transform="translate(0 0)"/><path class="cls-27" d="M824.88,827.55c21.33-1,42.74-.74,64.14-.57-8.48.51-16.71-1.25-25.13-1.58-1.39-.07-3.32.58-3.19-2,3.26-4.62,51.73-5.29,55.91-1.84,17.75,1.42,36.16,2.74,54.11,3.87-48.23,5.73-97.54,2.23-146.13,2.86C824.33,827.92,824.42,827.66,824.88,827.55Z" transform="translate(0 0)"/><path class="cls-28" d="M821.73,887.4c3.54-1.74,7.5-.13,11.13-1.35-6-9.13,8.93-4.45,13.95-5.76,8.79-3.73,18,.55,27.06-.2,4.64.33,5.49,1.82,3.89,6.44C859.07,887.33,840.48,887.32,821.73,887.4Z" transform="translate(0 0)"/><path class="cls-6" d="M321.79,872.35c18.35,12.78-35.56,16.82-41.66,12.19C294.11,880.67,308.65,878.84,321.79,872.35Z" transform="translate(0 0)"/><path class="cls-20" d="M1158.13,152.85c-7.81,1.24-15.7-.08-23.52.69-16.26,4.11-34.8.52-51.81,1.51-10.67-1.12-27.92,3-36.67-2.15C1083.46,152.66,1120.83,152.12,1158.13,152.85Z" transform="translate(0 0)"/><path class="cls-22" d="M702.62,83.85c-18.91,2-38.77.16-58,.83-.53,2.29-49.75,3-46.65-.82C632.85,83.38,667.73,83.66,702.62,83.85Z" transform="translate(0 0)"/><path class="cls-16" d="M559.79,887.29c10.27-1.87,21.47-1.37,31.92,0Z" transform="translate(0 0)"/><path class="cls-10" d="M217.35,860.55c8.9.8,19.2-1.84,27.43.94C235.63,861.4,226.46,861.73,217.35,860.55Z" transform="translate(0 0)"/><path class="cls-29" d="M851.76,887.35c8.49-2.16,17.33-.36,26-.82a5,5,0,0,0,.14.86A242.48,242.48,0,0,1,851.76,887.35Z" transform="translate(0 0)"/><path class="cls-10" d="M280.53,863.53c5.42.14,10.89-1,16.22.75C291.33,864.38,285.89,864.76,280.53,863.53Z" transform="translate(0 0)"/><path class="cls-30" d="M792.81,829.39c4.63-2,9.45-.69,14.19-.82C802.32,829.71,797.56,829.45,792.81,829.39Z" transform="translate(0 0)"/><path class="cls-20" d="M1035,152.81a36.74,36.74,0,0,1-11.56,0A47.56,47.56,0,0,1,1035,152.81Z" transform="translate(0 0)"/><path class="cls-10" d="M266.44,862.57c3.79.1,7.67-1.09,11.33.82C274,863.55,270.16,863.66,266.44,862.57Z" transform="translate(0 0)"/><path class="cls-30" d="M824.88,827.55c-.1.25-.2.5-.29.75l-10.78,0C817.39,826.48,821.18,827.69,824.88,827.55Z" transform="translate(0 0)"/><path class="cls-10" d="M247.42,861.57c3.45.06,7-1,10.33.68C254.28,862.34,250.81,862.66,247.42,861.57Z" transform="translate(0 0)"/><path class="cls-6" d="M546.75,726.42c2.69-1.35,4-.5,3.85,2.5-1.91-.45-3.84-.84-5.3-2.31Z" transform="translate(0 0)"/><path class="cls-31" d="M1046,255.46c48.35,145.17,88.18,293,122.88,442,1.94,4.29,1.19,10.7-5.15,9.33-13.83,0-27.65-.09-41.48.08-4.71.06-7.37-1.69-8.82-6.23-15.45-48-31.29-95.94-45.77-144.27-32.73-109.3-63.05-219.85-86.91-331.27C983.4,215.41,1039.46,250.63,1046,255.46Z" transform="translate(0 0)"/><path class="cls-22" d="M1215.53,679.38l.33,5,.73.17c33.89-124.75,68.34-251.29,127-367-5.68,46.08-12.5,92.12-18.4,138.16-10,30-15.94,61.24-21.63,92.4-6.65,58.51-42.25,108.16-88.45,143.09C1214.43,686.93,1214.23,683.15,1215.53,679.38Z" transform="translate(0 0)"/><path class="cls-32" d="M1082.68,153.59l51.93-.05c4.05,44.2,6,88.65,6.11,133-.53,11.47-.73,23.41-1.6,34.67-9.91,11.16-20.36,21.55-36.34,23.23q-15.66-52.92-31-106c6.44-3.53,30.22,1,26.52-10.07C1094.23,203.35,1086.72,178.35,1082.68,153.59Z" transform="translate(0 0)"/><path class="cls-33" d="M1046,255.46c-18-8.26-34.18-20.92-53.09-27.91-3.42-1.46-6.8-4.83-11.27-3-2.59-.42-2.49-2.82-3.2-4.52-6-14.51-12.63-28.7-22.82-40.84A157.73,157.73,0,0,0,934.82,159c-2.24-1.84-6-1.08-7.1-4.5,28.54.93,57.07,2.62,85.62,3.05C1026.21,189.44,1036.21,222.58,1046,255.46Z" transform="translate(0 0)"/><path class="cls-34" d="M1241.59,289.4c1.82,11.31,16.43,20.55,22.68,30.5,1,1.14,1.51,2.63,3.34,2.56-10.81,54-14.87,111.08-26.87,164-1.71-.48-2-2-2.54-3.38-4.29-11-9-22.06-11.54-33.46C1226.44,395.86,1233.58,342.36,1241.59,289.4Z" transform="translate(0 0)"/><path class="cls-35" d="M1194.6,288.51c9.88,9.73,17,21.75,25,33q-14.05,60-27.83,120.14c-2.67-.39-2.6-2.74-3-4.51-3-14.05-5.83-28.16-9.23-42.14C1179.52,359.46,1188.53,323.38,1194.6,288.51Z" transform="translate(0 0)"/><path class="cls-36" d="M1082.68,153.59c8.3,25,11.85,51.22,17.57,76.85,4.12,8.34-23.32,8.37-28.45,8.07-8-28.31-17.83-56.48-25-84.88Z" transform="translate(0 0)"/><path class="cls-37" d="M1178.84,388.6c6.29,17.16,7.09,35.94,12.89,53-13.06,53.78-15.52,111.28-35.67,162.79C1161.11,532.16,1170.62,460.45,1178.84,388.6Z" transform="translate(0 0)"/><path class="cls-38" d="M1226.66,449.59c5.55,11.94,9.09,24.66,14.08,36.84.91,26.38-6.83,53.35-9.1,79.91-5.58,36.59-9.35,73.77-15.85,110.08C1219.2,600.82,1223.35,525.13,1226.66,449.59Z" transform="translate(0 0)"/><path class="cls-39" d="M1427.66,568.47c-1.61,9.27-5,18.24-7.92,27.11-9.65-15.94-11-36.4-21-52.07,2.67-17,3.48-34.22,6.91-51A197.84,197.84,0,0,1,1427.66,568.47Z" transform="translate(0 0)"/><path class="cls-40" d="M1168.65,705.47c-30.35-143.08-72.81-283.63-114-423.9,28.58,80.89,51.39,163.89,74.35,246.56,14.94,57.86,29.66,115.78,43,174,.49,2.08.79,4.4,3.77,4.37C1174.07,709.33,1168,709.25,1168.65,705.47Z" transform="translate(0 0)"/><path class="cls-41" d="M560.89,343.45c8.85-16.57,14.72-34.82,22.81-51.9,12.71,33.51,17.46,71,28.2,105.81,3.63-8.11,5.1-30.4,10.6-33.66,2.87,41.88,2.57,83.87,3.18,125.69C596.92,444.52,579.61,393.13,560.89,343.45Z" transform="translate(0 0)"/><path class="cls-3" d="M597.92,84.44l46.7.24c29.39,76.81,50.76,156.4,77.67,234.08,1,3.21,2.1,2.67,4,.8,69.75-63.76,38.83-85.5,76.54,14.3,28.77,88.91,52.49,179.35,80.8,268.41,2.86,11.52-19.18,29.68-27.41,37-5.95,3.45-17.73,14.59-21.25,3.55C802.77,557.06,773.57,470.15,744,383.46c-25.55-66.35-56.25-130.76-93.12-191.59C630.62,157.2,601.36,126.26,597.92,84.44Z" transform="translate(0 0)"/><path class="cls-6" d="M604.74,113.56c18.63,39.06,47,72.43,66.7,111,38.07,68.65,70.15,140.41,93.13,215.49,23.83,68,46.36,136.45,72.07,203.72,5.5,10.62,33-18.23,37.38-23.86,3.36-4,5.35-9.05,9.51-12.44,4.89,31,.4,65.07,1.7,97.06-.75,10,1.73,20.45-1.24,30.06-70.09,2.48-143.31,3.28-213.25-.34,0-.28,0-.55,0-.83l121,0c1.66-1.4,1.61-2.87.83-4.88-14.15-39.28-25.79-79.42-37.59-119.44q-19.43-75.49-43.66-149.59c-14.29-47.07-31.65-93.12-48.78-139.21C641.08,252.08,624.14,182.33,604.74,113.56Z" transform="translate(0 0)"/><path class="cls-42" d="M622.5,363.7c-5,12.33-5.2,25.48-11.28,37.46Q597,344.37,582.7,287.57c3.89-3.41,4.71-8.62,7.45-12.7,2.79-6.23,9.06-11.14,10.73-17.53,6.73,20,15.81,39.77,19.51,60.57C621,333.2,622.26,348.45,622.5,363.7Z" transform="translate(0 0)"/><path class="cls-2" d="M737.75,547.48c9.45,14.25,9.29,32.9,15.32,48.94,5.66,17.28,6.93,36.76,16.56,52.47,5.36,27.29,14.08,54.12,24.55,79.85,1.16,2.12,1.43,4.75-2.47,4.7C774.42,671.54,751.69,610.4,737.75,547.48Z" transform="translate(0 0)"/><path class="cls-3" d="M625.68,471.54c-2.12-13.1-.15-26.75-.78-40.07C627.23,444.34,625,458.28,625.68,471.54Z" transform="translate(0 0)"/><path class="cls-5" d="M614.75,714.45c0-3.16-.2-6.34,2-9A15.8,15.8,0,0,1,614.75,714.45Z" transform="translate(0 0)"/><path class="cls-41" d="M622.44,358.15c-1.18-3.08-.69-6.26-.51-9.41A26.62,26.62,0,0,1,622.44,358.15Z" transform="translate(0 0)"/><path class="cls-1" d="M1585.51,336.83c-6.63,9.93-3.94,22.29-8.28,33.19-2.92,13.52-10.33,28.54-6,42.33,1.76,2,1,4.3.78,6.5,6.36,4.25,1.27,10.41,2.63,15.45,2.22,6.36-1.71,10.79-4,16,.92,9,1.56,20.87-3.75,28.27-6,4.36-4.07,12-7.9,18.33-2.34-2.19-1.95-16.63-6.07-13.05-3,2.65-3.25.21-3.21-1.87.09-3.49,3.26-7.5-.48-10.1-4-3.8-3.86-12.74.62-15.87,3.26-2.28,4.35-4,2.33-8.08-7.24-12.52,14.76-24.26,6.07-36.25-2.64-2.95-2.21-5.67.51-8.25,6.11-5.8,5.35-6.86,3.5-15-3.72-12.64,10.42-18.16,5.86-31.19-3.68-11.23,8.18-13.94,5.66-22.77a16.28,16.28,0,0,1,2.91-17.25c5.7-7.77-6.26-19.27,5.07-28.07,7.72-6.1-4.78-16.79,5.82-29.32,5.29-8.27-5.22-14.29,5.39-23.53,5.25-7.23-4.63-16.37,4.06-22.77,1.91-1.7,1.5-3.91,1.51-6,0-8.36-.88-16.63,5.6-23.9a18,18,0,0,0,4.49-12.9c-.77-3.36,4.26-6,6.35-2.92,2.7,4.54-3.08,5.56-1.37,8a5,5,0,0,0,5,1.35c4-.79,6.12,2,4.29,5.57-5.1,7.07-.46,21-7.72,25.17-4.13,1-4.75,5.26-6.7,8.2-1.75,5.29,7.16-1.42,5,6.48-.06,5.28-6,8.11-4,13.65-5.52,3.33-.86,8.21-1.85,12.23-.31,1.23.16,2.58-1.82,3-5.55,1.07-9.51,8.45-6.13,12.83,5.82,7.52,1.47,14.09-.66,21-2,2.91-8.4,2.32-7.37,7.41-1.23,7.69,10.57,5.42,4.34,11.94-3.58,3.06-3.67,8.5-8.42,11-2.22,1.16-1.26,5.06-.73,7.54,1.37,3.69,3.89-3.29,6.44-1a3,3,0,0,1,1.14,4c-2.49,4-2.52,8.49-3.49,12.8-.28,1.24-.36,3.06-1.92,3.18C1586.33,341.85,1587.19,338.57,1585.51,336.83Z" transform="translate(0 0)"/><path class="cls-43" d="M1523.71,562.54c-3.77,20.47-7,41.64-15.09,60.84-1.62-9.13-7.51-25.92-15.73-30.14-3.37.72-.89,7.44-5.23,7.23,3.58-23.25,8.68-46.29,11.1-69.69.79-2.74,2.2-6.59,5.75-4.48C1517.24,533.26,1524.19,548.08,1523.71,562.54Z" transform="translate(0 0)"/><path class="cls-15" d="M1487.66,600.47c3.84-2.21,1.16-13.45,7.21-8.18,6.7,7.13,15.27,21.21,13.75,31.09-7.67,23.16-21.34,42.89-35.72,62.29C1477.77,657.26,1482.44,628.81,1487.66,600.47Z" transform="translate(0 0)"/><path class="cls-44" d="M1409.77,628.59c-6,20.25-14.36,39.85-26.46,57.28,5.27-32.34,7.43-64.89,10.51-97.35,4.2-2.54,5.69-2.2,7.46,2.18C1404.47,602.34,1413.06,616.82,1409.77,628.59Z" transform="translate(0 0)"/><path class="cls-45" d="M1409.77,628.59c.16-12.62-5.75-24.1-9.09-36-1-4-2.84-5.62-6.86-4.1,1.52-15,3.23-30,5-45,5.85-1.47,13.39,33.77,16.89,40C1423.93,598,1414.84,614.27,1409.77,628.59Z" transform="translate(0 0)"/><path class="cls-3" d="M1523.71,562.54c-2.45-13.74-6-26.84-19.09-34.83-2.34-1.42-3.54-1-5,.77,1.65-11.32,3.66-22.6,5-34,2.15-1.31,3.07.34,3.82,1.77C1518.58,516.45,1530.49,539.45,1523.71,562.54Z" transform="translate(0 0)"/><path class="cls-1" d="M1585.45,363.49c-.19,2.31-4.55,2.58-4.31.06C1581.44,361.47,1585.92,360.66,1585.45,363.49Z" transform="translate(0 0)"/><path class="cls-46" d="M883.67,734.41l.21-11.95c156.52-5.1,321.34.59,475.71-1.83,12.47-.27,24.75,2.27,37.25,2.12,15.32,1.71,35.06-3.12,46.26,10-118.33,1.82-237.46.06-356,.64-6.18-1.26-5.8,8.5.24,7,6.59.24,13.28-1,19.71,1.85,5.31,2,18.17,11.2,4.63,10.09l-206.92.05C893.44,755.4,890.36,740.44,883.67,734.41Z" transform="translate(0 0)"/><path class="cls-47" d="M1359.59,720.63c1,1.37,2.81.41,4.56,1.86-160.26,0-320.06.09-480.27,0q0-8,0-16c94.09-3.93,190.32-1,285-.11C1231.4,714.54,1296.25,715.67,1359.59,720.63Z" transform="translate(0 0)"/><path class="cls-23" d="M625.77,858.37c-3.11,6.66-2.62,13.31,0,20-3.52,2.82-7.67,1.6-11.54,1.61-8.24-1.15-18,.72-25.49-2.56,3.51-6.34,2.26-13.15,2-19.86,1.53-1.7,3.6-1.75,5.55-1.45C605.93,858.39,616.8,854.53,625.77,858.37Z" transform="translate(0 0)"/><path class="cls-2" d="M588.74,877.38c26.74,1.58,54.12-.63,80.45,4.8,2.87.64,2.62,4-.62,3.25-29.85-1.25-60.58,3.65-89.74-4.15-1.36-.44-3.51-.78-3.32-2.45C576.85,875.82,585.52,878.11,588.74,877.38Z" transform="translate(0 0)"/><path class="cls-48" d="M786.76,864.49c5.48,3.22-13.58,2.26-15.55,2.77-24.25-.43-49.8,2.6-73.27-3.65C727,864.41,757.43,862.05,786.76,864.49Z" transform="translate(0 0)"/><path class="cls-49" d="M625.77,858.37c-11.68.13-23.36-.08-35-.85-2.22-2.14-6.91.56-7.89-4,14.87-3.65,31-.91,46.42-.81,1.49.07,3.65-1,4.32,1.17.77,2.54-2,2.45-3.17,3.6C629,858.9,627.24,857.76,625.77,858.37Z" transform="translate(0 0)"/><path class="cls-22" d="M503.76,852.43c4,.35,23.91-.71,23.76,3.68-6.1,7.08-26.48,4.4-35.53,2.56-1.61-.47-3.75-.49-3.51-2.66C491.07,851.41,499.15,853.71,503.76,852.43Z" transform="translate(0 0)"/><path class="cls-50" d="M564.76,844.34c4.18.52,11.82-2.94,13.83,2C575.08,850.37,549.89,848.31,564.76,844.34Z" transform="translate(0 0)"/><path class="cls-16" d="M599.07,851.54c-3.7,1.1-7.5.82-11.28.72C591.46,850.59,595.3,851.69,599.07,851.54Z" transform="translate(0 0)"/><path class="cls-51" d="M883.67,734.41c5,2,6.82,6.88,9.43,10.9,5.26,12.14,33.1,6.49,31.68,17.51-4.35,69.36,19.37,58.3-47,58.48-1.8-1.87-1.6-4.27-1.61-6.57,1.34-26.44-2.8-54.5,1.61-80.17Z" transform="translate(0 0)"/><path class="cls-31" d="M1004.67,706.32l-120.77.12,0-1c21.21-3.58,44.32-.18,66.16-1.32,6.46,0,6.47,0,4.13-5.81-38.32-84.34-64.55-173.17-98.75-259-26.5-59.44-53.34-118.93-74.6-180.48-1.36-4.57-5.84-5.14-8.24-8.18q-11.05-30.4-22.12-60.8c1.57-1.8,3.45-.84,5.1-.38,27.44,7.62,54.87,15.29,82.22,23.26,9.75,3.15,17.45,39.58,23,50.32C883,322.7,901,383.81,920.86,444.29c1,4.21,5.92,14.08,9.75,6.68.75-1.26.91-2.89,2.38-3.69,15.88,49.11,23.18,103.66,36.6,154.48,7.5,32.44,14.6,65,23.82,97C994,707.34,1004.26,701.45,1004.67,706.32Z" transform="translate(0 0)"/><path class="cls-26" d="M772.63,250.6c12.21-1.81,35.82,85.07,45.64,100.59,54.44,115.06,89.46,237.53,139.93,354.24H883.93c-.2-32.64.06-65.28-.4-97.92-5.63-18.57-11.35-37.13-16.88-55.73C836.9,450.85,808.32,349.62,772.63,250.6Z" transform="translate(0 0)"/><path class="cls-52" d="M859.77,263.51c-5.06-13.34-10.41-26.59-15-40.08-2-5.9-5-9.05-11.29-10.73-27.76-7-55.15-16.16-82.92-22.9q-6.91-18.12-13.84-36.23c-.23-4.49,3.27-3.41,5.44-3.19,27.44,2.8,54.79,6.51,82.18,9.83,42.85,5.46,50.59,59.87,60.45,94-1.47,7.65-6.57.43-10,4.56C871,262.56,864.79,268.91,859.77,263.51Z" transform="translate(0 0)"/><path class="cls-53" d="M883.65,251.58c-12.54-32.64-17.43-85.66-60.39-90.06-27.53-3.77-55.12-7-82.73-10-1.6-.13-3.49-.42-3.86,2-1.17-2.57-2.92-4.93-2.75-8,36.57,1.91,72.9,4.77,109.09,10.27,19.15,1.77,29.63,13.31,35.86,29.72,5.48,18.28,45.29,118.91,32.2,127.39-4.94,1.22-7.25-4.4-8-8.33C893.6,288.37,888.7,269.91,883.65,251.58Z" transform="translate(0 0)"/><path class="cls-54" d="M695.59,804.5c3.24,1.23,49.81,2,40.14,7-10.44,2.44-19.68-1.92-30-2.36-13.41.37-27.73,1.91-40.64-2.79C675.12,803.13,685.44,805.06,695.59,804.5Z" transform="translate(0 0)"/><path class="cls-31" d="M562.57,767.34H546C542.87,762.33,567.5,763.37,562.57,767.34Z" transform="translate(0 0)"/><path class="cls-55" d="M518.66,765.6c3.78-2.87,7.63-2.4,11.47,0Z" transform="translate(0 0)"/><path class="cls-17" d="M670.74,734.29l12.94.35c-3,2.93-9.82,3.36-15,.77,0-.26,0-.52,0-.79Z" transform="translate(0 0)"/><path class="cls-16" d="M724.8,811.6l10.93-.14A14.28,14.28,0,0,1,724.8,811.6Z" transform="translate(0 0)"/><path class="cls-30" d="M668.76,735.47c69.43-1.76,139.36-1,209-.91V821.3a115,115,0,0,0-17,2.11c-15.55,2-31.6,2.07-47.19-2.46-7.43-3.51-23.89,1.75-23.76-10,0-15.82-.19-31.65.09-47.47.08-4.71-1.09-6.21-6-6.18-38.81.2-77.62.11-116.44.11-3.31,0-7.34.55-9.07-2.63C656.15,747.36,665,741.2,668.76,735.47Z" transform="translate(0 0)"/><path class="cls-30" d="M869.71,825.52c7.64-.22,15.14,1.81,22.79,1.81H832.78c1.36-1.43,3.13-.87,4.73-.88C848.1,825.63,859.63,828,869.71,825.52Z" transform="translate(0 0)"/><path class="cls-56" d="M898.75,295.51c5.27,2.55,5.45,8.05,6.75,12.6,25.51,28.12-24.93-115.5-27.76-121.82-10.63-37.31-52.09-27.12-81-36.79,43.3.86,87.17,2.92,130.12,4.91-2.67,3.22-11.12-.93-6.83,5.86,13.14,21.3,20.84,45.22,29,68.71,7.46,25.16,19.58,50.22,23.75,75.74-3.47.94-4.14-2-5.35-4-4.62-12-31.12,1-38.82,5.63-2.91,1.89-5,3.74-3.59,7.62,12.7,46,29.27,90.69,44.24,136,10.23,27.2,19.67,54.54,27.84,82.4,5.78,15.08-14.56,7.07-22.58,10.41-9.8,2.77-11.67-7.81-14.48-14.59a16.91,16.91,0,0,1-2.35-9c1.26-2.93-.4-5-2-7.16C937.82,439.89,915.8,366.67,898.75,295.51Z" transform="translate(0 0)"/><path class="cls-57" d="M972.65,304.53c-17.38-49.08-29.2-101.17-55.37-146.54-4.43-5.94,7.66-2.8,10.44-3.46,41.1,20.16,54.8,68.59,63.19,110.1,10.22,42,20.36,83.95,30.82,125.85a141.56,141.56,0,0,0,4.34,19.74c3.74,6.47-10.73,15.39-15.58,7.35-3.62-5.13-2.35-12.25-7.68-16.34-3.91-8.48-6.2-17.53-9-26.38C987.62,351.43,976.2,327.92,972.65,304.53Z" transform="translate(0 0)"/><path class="cls-58" d="M1163.73,874.3c-20.2.05-40.41.06-60.62.21-1.47,0-5-1.61-3.37,2.86.4,2.08-7.43.64-9.1,1.13-66.24,3.43-133.44-1-200,.49-3.1,0-6.78,1.26-9.09-2.29,1.38-1.9,3.49-1.76,5.45-1.81a496.73,496.73,0,0,1,49.83,1.32c-5-1.61-15.44,2.91-16.7-4.14.71-5.12,21.88-.24,26.59-2.59C1019,869.69,1091.69,873.78,1163.73,874.3Z" transform="translate(0 0)"/><path class="cls-52" d="M881.6,876.62c60.95,1.85,122.06.15,183.05,1.89,1.18,3.11-1.32,2.26-2.68,2.37-46,1.55-92.12.42-138.16.73-19.59,4.69-40.83-.6-60.9-.94-30.95-1.45-62.06-1.56-93.16-2.26-.46-1.36-3.15.74-2.83-1.82,37-.52,73.89-.33,110.84-.14C879.09,875.46,880.38,875.22,881.6,876.62Z" transform="translate(0 0)"/><path class="cls-32" d="M881.6,876.62l-3.84-.17c-.07-9.31,58.88-6.1,69-7-5.32,3-24.22-1.75-25.53,2.6.69,6.22,11.91,2.28,16.41,3.34,0,.4,0,.8,0,1.2Z" transform="translate(0 0)"/><path class="cls-59" d="M94.85,834.85c24.26-5.6,50.08-.41,74.88-.08,1.63.51,5-.17,5.2,1.91C166.28,844.39,106.29,840.76,94.85,834.85Z" transform="translate(0 0)"/><path class="cls-52" d="M219.78,850.3c5.69.13,5.17,6.65-.43,6.18-9.26,1-18.53.43-27.81.18-3.83-.11-2.82-3-3.23-5C185.22,847,216.22,850.56,219.78,850.3Z" transform="translate(0 0)"/><path class="cls-10" d="M219.78,850.3c-4.8,0-9.6.3-14.34-.74C210.22,849.66,215.08,848.5,219.78,850.3Z" transform="translate(0 0)"/><path class="cls-26" d="M766.92,876.59l2.83,1.82a13.7,13.7,0,0,1-7-.47C764.19,876.05,765.57,876.36,766.92,876.59Z" transform="translate(0 0)"/><path class="cls-29" d="M862.91,880.67l60.9.94c2.28,3.5,1.92,5-2.83,4.93-14.38-.23-28.77-.08-43.16-.08C878.93,877.41,867.73,883.69,862.91,880.67Z" transform="translate(0 0)"/><path class="cls-56" d="M1049.69,881.31c3.93-2.85,13.25,1.74,15-2.8,15.92.19,32.48-.37,47.9,1.86C1091.6,880.57,1070.63,881.61,1049.69,881.31Z" transform="translate(0 0)"/><path class="cls-60" d="M1003.7,400.51c7.56,4.52,3.7,23.84,16.85,17.86,8.78-3.95,3.5-10.37,2.53-15.2a75,75,0,0,1-1.35-12.69c23,82.94,46.25,165.9,73,247.76,30,78.65-.16,66.64,73.9,67.23a3.66,3.66,0,0,1,.27.85h-68.28c-34.3-85.83-56.7-177.31-86-265.34-4.69-11.07-6.77-23-10.79-34.41C1003.26,404.6,1002.05,402.57,1003.7,400.51Z" transform="translate(0 0)"/><path class="cls-2" d="M756.4,539.78c-2.07-2.41-5.85-2.81-5.77-7,.07-3.37,1.85-4.56,4.49-4.8C759.3,527,758.12,537.58,756.4,539.78Z" transform="translate(0 0)"/><path class="cls-2" d="M783.26,507.2c-1,1.43-3.29,1.17-3.18-.79C780.66,504.18,782.83,505.21,783.26,507.2Z" transform="translate(0 0)"/><path class="cls-61" d="M1099.75,704.41a1.91,1.91,0,0,1,.89,1.92h-96c-15.42-47.27-24.53-96.91-37.58-145.07-1.23-9.52-8.76-25.45-6.36-33.77,2.15.91,1.7,2.92,2.12,4.66,3.37,16.73,16,5.42,28.14,8.41,13.84,2.37-2.84-23.64-2.27-31.07,2.66.09,3,2.35,3.6,4.12,21.48,60.95,42,122.33,58.25,184.89,1,4.15,2.91,5.74,7.22,5.66C1071.75,704.19,1085.85,703.49,1099.75,704.41Z" transform="translate(0 0)"/><path class="cls-62" d="M859.77,263.51c10.94,5.61,14.39-13.89,20.72-6.42,1.48,1.56,2.4-1.32,3.24-2.58,16.14,42,24.65,88.37,36.46,132.28,4.44,18.28,8.62,36.63,12.78,55,.43,1.9,1.3,3.88-.24,5.72.31,9.77-8.61,11.08-11.48,1.81-8.46-24.74-16.37-49.71-24.25-74.64Q879.63,318.66,859.77,263.51Z" transform="translate(0 0)"/><path class="cls-63" d="M932.73,447.49c-13.1-62.55-30.81-124-46.08-186,49.24,143,78.48,296.56,118,443.91-11.23.19-11,.12-14-10.71C968.65,613,953.39,529.31,932.73,447.49Z" transform="translate(0 0)"/><path class="cls-56" d="M887.7,261.55l-1.05-.05c-2-1.89-1.16-5-2.92-7,0-1-.05-2-.08-2.94C886.6,254.25,886.45,258.18,887.7,261.55Z" transform="translate(0 0)"/><path class="cls-31" d="M1099.75,704.41c-14,2.85-30,0-44.66,1.11-3.11,0-4.52-1.08-5.21-3.91-16.93-65-37.19-129.72-61.16-192.13-5.13-20.05-13.87-39.43-21-59,1.19-3.32-1.36-8,3.68-9.12,7.83-2.49,14.31-7.66,21.81-10.84,7.6-.85,7.47-19.51,14.84-9.56C1041.75,513.94,1066.33,611,1099.75,704.41Z" transform="translate(0 0)"/><path class="cls-64" d="M1011.66,427.49c-2.9-1.28-6.81-13.3-9.32-6.27-1.69,10.36-22.2,17.32-31.4,21.52-3.54,1.09-1,5.7-3.21,7.75-10.8-35.7-24.48-70.48-35.51-106.12-3.36-10.53-5-21.55-9.27-31.85-1.09-2.65.57-4.52,2.91-6.14,11.16-7.74,23.77-11,37-12.39,5.46-.2,4.6,9.83,9.78,10.54C985.57,345.54,999.59,386.22,1011.66,427.49Z" transform="translate(0 0)"/><path class="cls-61" d="M958.68,518.54c-1.39-1.78-1.41-4-1.9-6C959.33,513.91,960.52,515.75,958.68,518.54Z" transform="translate(0 0)"/></svg>
