<?xml version="1.0" encoding="UTF-8" standalone="no"?>
<!DOCTYPE svg PUBLIC "-//W3C//DTD SVG 1.1//EN" "http://www.w3.org/Graphics/SVG/1.1/DTD/svg11.dtd">
<svg width="100%" height="100%" viewBox="0 0 1700 1050" version="1.1" xmlns="http://www.w3.org/2000/svg" xmlns:xlink="http://www.w3.org/1999/xlink" xml:space="preserve" xmlns:serif="http://www.serif.com/" style="fill-rule:evenodd;clip-rule:evenodd;stroke-linecap:round;stroke-linejoin:round;stroke-miterlimit:1.5;">
    <g id="Artboard1" transform="matrix(1.10677,0,0,0.512695,0,0)">
        <rect x="0" y="0" width="1536" height="2048" style="fill:none;"/>
        <g transform="matrix(1.39402,0,0,1.95048,-132.402,-878.57)">
            <g transform="matrix(0.648146,0,0,1,162.036,74.1858)">
                <g transform="matrix(1,-0,-0,1,-103.462,376.253)">
                    <circle cx="1354.28" cy="213.097" r="14.712" style="fill:rgb(178,187,199);"/>
                    <path d="M1363.11,213.097L1684.66,213.097" style="fill:none;stroke:rgb(178,187,199);stroke-width:4px;stroke-dasharray:8,8,0,0,0,0;"/>
                </g>
            </g>
            <g transform="matrix(0.648146,0,0,1,162.036,198.372)">
                <g transform="matrix(1,-0,-0,1,-103.462,252.067)">
                    <circle cx="1276.26" cy="337.283" r="14.712" style="fill:rgb(178,187,199);"/>
                    <path d="M1285.09,337.283L1684.66,337.283" style="fill:none;stroke:rgb(178,187,199);stroke-width:4px;stroke-dasharray:8,8,0,0,0,0;"/>
                </g>
            </g>
            <g transform="matrix(0.648146,0,0,1,162.036,322.557)">
                <g transform="matrix(1,-0,-0,1,-103.462,127.881)">
                    <circle cx="1198.25" cy="461.469" r="14.712" style="fill:rgb(178,187,199);"/>
                    <path d="M1207.07,461.469L1684.66,461.469" style="fill:none;stroke:rgb(178,187,199);stroke-width:4px;stroke-dasharray:8,8,0,0,0,0;"/>
                </g>
            </g>
            <g transform="matrix(0.648146,0,0,1,162.036,446.743)">
                <g transform="matrix(1,-0,-0,1,-103.462,3.69519)">
                    <circle cx="1120.23" cy="585.654" r="14.712" style="fill:rgb(178,187,199);"/>
                    <path d="M1129.05,585.654L1684.66,585.654" style="fill:none;stroke:rgb(178,187,199);stroke-width:4px;stroke-dasharray:8,8,0,0,0,0;"/>
                </g>
            </g>
            <g transform="matrix(0.648146,0,0,1,162.036,570.929)">
                <g transform="matrix(1,-0,-0,1,-103.462,-120.491)">
                    <circle cx="1042.21" cy="709.84" r="14.712" style="fill:rgb(178,187,199);"/>
                    <path d="M1051.04,709.84L1684.66,709.84" style="fill:none;stroke:rgb(178,187,199);stroke-width:4px;stroke-dasharray:8,8,0,0,0,0;"/>
                </g>
            </g>
            <g transform="matrix(0.648146,0,0,1,162.036,695.115)">
                <g transform="matrix(1,-0,-0,1,-103.462,-244.676)">
                    <circle cx="964.191" cy="834.026" r="14.712" style="fill:rgb(178,187,199);"/>
                    <path d="M973.018,834.026L1684.66,834.026" style="fill:none;stroke:rgb(178,187,199);stroke-width:4px;stroke-dasharray:8,8,0,0,0,0;"/>
                </g>
            </g>
            <g transform="matrix(0.648146,0,0,1,162.036,819.301)">
                <g transform="matrix(1,-0,-0,1,-103.462,-368.862)">
                    <circle cx="886.173" cy="958.212" r="14.712" style="fill:rgb(178,187,199);"/>
                    <path d="M895.001,958.212L1684.66,958.212" style="fill:none;stroke:rgb(178,187,199);stroke-width:4px;stroke-dasharray:8,8,0,0,0,0;"/>
                </g>
            </g>
            <g transform="matrix(0.648146,0,0,1,204.341,-1027.28)">
                <g transform="matrix(48,0,0,48,1320.65,1669.18)">
                    <path d="M0.332,0.018C0.5,0.018 0.606,-0.068 0.606,-0.206L0.606,-0.206C0.606,-0.313 0.544,-0.372 0.396,-0.403L0.32,-0.419C0.232,-0.438 0.197,-0.469 0.197,-0.519L0.197,-0.52C0.197,-0.58 0.252,-0.616 0.331,-0.616C0.411,-0.617 0.463,-0.578 0.472,-0.523L0.473,-0.517L0.594,-0.517L0.593,-0.523C0.584,-0.637 0.487,-0.722 0.331,-0.722C0.179,-0.722 0.07,-0.637 0.07,-0.511L0.07,-0.511C0.07,-0.406 0.133,-0.338 0.277,-0.308L0.353,-0.292C0.443,-0.273 0.48,-0.242 0.48,-0.191L0.48,-0.191C0.48,-0.13 0.42,-0.088 0.335,-0.088C0.246,-0.088 0.183,-0.127 0.177,-0.187L0.177,-0.191L0.055,-0.191L0.055,-0.185C0.064,-0.063 0.168,0.018 0.332,0.018Z" style="fill:rgb(35,40,46);fill-rule:nonzero;"/>
                </g>
                <g transform="matrix(48,0,0,48,1352.38,1669.18)">
                    <path d="M0.303,0.011C0.448,0.011 0.519,-0.073 0.536,-0.142L0.538,-0.146L0.422,-0.146L0.42,-0.143C0.409,-0.118 0.371,-0.085 0.305,-0.085C0.223,-0.085 0.171,-0.141 0.169,-0.236L0.542,-0.236L0.542,-0.276C0.542,-0.438 0.449,-0.544 0.297,-0.544C0.145,-0.544 0.048,-0.434 0.048,-0.266L0.048,-0.266C0.048,-0.096 0.144,0.011 0.303,0.011ZM0.298,-0.449C0.366,-0.449 0.416,-0.405 0.424,-0.318L0.17,-0.318C0.18,-0.403 0.23,-0.449 0.298,-0.449Z" style="fill:rgb(35,40,46);fill-rule:nonzero;"/>
                </g>
                <g transform="matrix(48,0,0,48,1380.7,1669.18)">
                    <path d="M0.284,0.002C0.308,0.002 0.33,0 0.348,-0.003L0.348,-0.097C0.333,-0.095 0.324,-0.095 0.307,-0.095C0.256,-0.095 0.235,-0.117 0.235,-0.17L0.235,-0.439L0.348,-0.439L0.348,-0.534L0.235,-0.534L0.235,-0.665L0.111,-0.665L0.111,-0.534L0.028,-0.534L0.028,-0.439L0.111,-0.439L0.111,-0.142C0.111,-0.039 0.162,0.002 0.284,0.002Z" style="fill:rgb(35,40,46);fill-rule:nonzero;"/>
                </g>
                <g transform="matrix(48,0,0,48,1399.78,1669.18)">
                    <path d="M0.284,0.002C0.308,0.002 0.33,0 0.348,-0.003L0.348,-0.097C0.333,-0.095 0.324,-0.095 0.307,-0.095C0.256,-0.095 0.235,-0.117 0.235,-0.17L0.235,-0.439L0.348,-0.439L0.348,-0.534L0.235,-0.534L0.235,-0.665L0.111,-0.665L0.111,-0.534L0.028,-0.534L0.028,-0.439L0.111,-0.439L0.111,-0.142C0.111,-0.039 0.162,0.002 0.284,0.002Z" style="fill:rgb(35,40,46);fill-rule:nonzero;"/>
                </g>
                <g transform="matrix(48,0,0,48,1418.71,1669.18)">
                    <path d="M0.137,-0.623C0.176,-0.623 0.209,-0.655 0.209,-0.695C0.209,-0.734 0.176,-0.767 0.137,-0.767C0.097,-0.767 0.064,-0.734 0.064,-0.695C0.064,-0.655 0.097,-0.623 0.137,-0.623ZM0.076,-0L0.197,-0L0.197,-0.534L0.076,-0.534L0.076,-0Z" style="fill:rgb(35,40,46);fill-rule:nonzero;"/>
                </g>
                <g transform="matrix(48,0,0,48,1431.79,1669.18)">
                    <path d="M0.074,-0L0.196,-0L0.196,-0.311C0.196,-0.391 0.241,-0.442 0.313,-0.442C0.387,-0.442 0.42,-0.4 0.42,-0.317L0.42,-0L0.542,-0L0.542,-0.345C0.542,-0.472 0.477,-0.544 0.358,-0.544C0.281,-0.544 0.229,-0.509 0.204,-0.452L0.196,-0.452L0.196,-0.534L0.074,-0.534L0.074,-0Z" style="fill:rgb(35,40,46);fill-rule:nonzero;"/>
                </g>
                <g transform="matrix(48,0,0,48,1461.13,1669.18)">
                    <path d="M0.304,0.188C0.459,0.188 0.558,0.11 0.558,-0.013L0.558,-0.534L0.437,-0.534L0.437,-0.446L0.43,-0.446C0.4,-0.506 0.342,-0.542 0.269,-0.542C0.131,-0.542 0.047,-0.436 0.047,-0.282L0.047,-0.281C0.047,-0.129 0.131,-0.025 0.266,-0.025C0.34,-0.025 0.398,-0.056 0.429,-0.113L0.437,-0.113L0.437,-0.011C0.437,0.057 0.389,0.096 0.306,0.096C0.238,0.096 0.197,0.072 0.189,0.038L0.188,0.036L0.067,0.036L0.066,0.038C0.079,0.127 0.163,0.188 0.304,0.188ZM0.304,-0.122C0.219,-0.122 0.171,-0.187 0.171,-0.281L0.171,-0.282C0.171,-0.376 0.219,-0.441 0.304,-0.441C0.388,-0.441 0.439,-0.376 0.439,-0.282L0.439,-0.281C0.439,-0.187 0.388,-0.122 0.304,-0.122Z" style="fill:rgb(35,40,46);fill-rule:nonzero;"/>
                </g>
                <g transform="matrix(48,0,0,48,1491.49,1669.18)">
                    <path d="M0.276,0.011C0.407,0.011 0.502,-0.057 0.502,-0.159L0.502,-0.16C0.502,-0.237 0.453,-0.282 0.349,-0.305L0.262,-0.324C0.205,-0.337 0.182,-0.356 0.182,-0.388L0.182,-0.388C0.182,-0.428 0.221,-0.455 0.275,-0.455C0.333,-0.455 0.368,-0.427 0.376,-0.394L0.377,-0.392L0.491,-0.392L0.491,-0.393C0.483,-0.479 0.406,-0.544 0.276,-0.544C0.15,-0.544 0.062,-0.478 0.062,-0.381L0.062,-0.381C0.062,-0.302 0.11,-0.254 0.212,-0.232L0.298,-0.212C0.357,-0.199 0.38,-0.179 0.38,-0.147L0.38,-0.146C0.38,-0.106 0.338,-0.079 0.278,-0.079C0.217,-0.079 0.182,-0.105 0.169,-0.142L0.168,-0.143L0.048,-0.143L0.048,-0.142C0.058,-0.052 0.14,0.011 0.276,0.011Z" style="fill:rgb(35,40,46);fill-rule:nonzero;"/>
                </g>
            </g>
            <g transform="matrix(0.648146,0,0,1,-439.325,-1157.34)">
                <g transform="matrix(40,0,0,40,1384.96,1669.18)">
                    <path d="M0.087,-0L0.213,-0L0.213,-0.265L0.353,-0.265L0.491,-0L0.635,-0L0.481,-0.284C0.564,-0.314 0.614,-0.392 0.614,-0.485L0.614,-0.486C0.614,-0.62 0.523,-0.705 0.372,-0.705L0.087,-0.705L0.087,-0ZM0.213,-0.362L0.213,-0.603L0.356,-0.603C0.436,-0.603 0.484,-0.557 0.484,-0.483L0.484,-0.482C0.484,-0.406 0.438,-0.362 0.358,-0.362L0.213,-0.362Z" style="fill:rgb(35,40,46);fill-rule:nonzero;"/>
                </g>
                <g transform="matrix(40,0,0,40,1411.48,1669.18)">
                    <path d="M0.303,0.011C0.448,0.011 0.519,-0.073 0.536,-0.142L0.538,-0.146L0.422,-0.146L0.42,-0.143C0.409,-0.118 0.371,-0.085 0.305,-0.085C0.223,-0.085 0.171,-0.141 0.169,-0.236L0.542,-0.236L0.542,-0.276C0.542,-0.438 0.449,-0.544 0.297,-0.544C0.145,-0.544 0.048,-0.434 0.048,-0.266L0.048,-0.266C0.048,-0.096 0.144,0.011 0.303,0.011ZM0.298,-0.449C0.366,-0.449 0.416,-0.405 0.424,-0.318L0.17,-0.318C0.18,-0.403 0.23,-0.449 0.298,-0.449Z" style="fill:rgb(35,40,46);fill-rule:nonzero;"/>
                </g>
                <g transform="matrix(40,0,0,40,1435.07,1669.18)">
                    <path d="M0.22,0.009C0.29,0.009 0.347,-0.021 0.376,-0.073L0.384,-0.073L0.384,-0L0.504,-0L0.504,-0.365C0.504,-0.478 0.427,-0.544 0.29,-0.544C0.163,-0.544 0.077,-0.484 0.065,-0.395L0.065,-0.39L0.18,-0.39L0.18,-0.392C0.192,-0.427 0.229,-0.447 0.284,-0.447C0.35,-0.447 0.384,-0.418 0.384,-0.365L0.384,-0.319L0.247,-0.311C0.117,-0.303 0.044,-0.247 0.044,-0.152L0.044,-0.151C0.044,-0.054 0.118,0.009 0.22,0.009ZM0.165,-0.157L0.165,-0.158C0.165,-0.202 0.196,-0.227 0.264,-0.231L0.384,-0.239L0.384,-0.196C0.384,-0.132 0.33,-0.084 0.257,-0.084C0.203,-0.084 0.165,-0.111 0.165,-0.157Z" style="fill:rgb(35,40,46);fill-rule:nonzero;"/>
                </g>
                <g transform="matrix(40,0,0,40,1458.1,1669.18)">
                    <path d="M0.303,0.011C0.438,0.011 0.517,-0.062 0.535,-0.171L0.536,-0.175L0.421,-0.175L0.42,-0.173C0.405,-0.117 0.366,-0.088 0.303,-0.088C0.221,-0.088 0.171,-0.154 0.171,-0.268L0.171,-0.269C0.171,-0.38 0.22,-0.446 0.303,-0.446C0.37,-0.446 0.409,-0.409 0.42,-0.357L0.421,-0.355L0.536,-0.355L0.536,-0.357C0.522,-0.468 0.44,-0.544 0.303,-0.544C0.142,-0.544 0.048,-0.441 0.048,-0.269L0.048,-0.268C0.048,-0.093 0.143,0.011 0.303,0.011Z" style="fill:rgb(35,40,46);fill-rule:nonzero;"/>
                </g>
                <g transform="matrix(40,0,0,40,1481.19,1669.18)">
                    <path d="M0.079,-0L0.201,-0L0.201,-0.311C0.201,-0.391 0.246,-0.442 0.318,-0.442C0.392,-0.442 0.425,-0.4 0.425,-0.317L0.425,-0L0.547,-0L0.547,-0.345C0.547,-0.472 0.482,-0.544 0.363,-0.544C0.286,-0.544 0.234,-0.509 0.209,-0.452L0.201,-0.452L0.201,-0.74L0.079,-0.74L0.079,-0Z" style="fill:rgb(35,40,46);fill-rule:nonzero;"/>
                </g>
            </g>
            <g transform="matrix(0.342792,0.848696,-0.550078,0.528882,657.49,-1090.08)">
                <g transform="matrix(40,0,0,40,1341,1669.18)">
                    <path d="M0.332,0.018C0.5,0.018 0.606,-0.068 0.606,-0.206L0.606,-0.206C0.606,-0.313 0.544,-0.372 0.396,-0.403L0.32,-0.419C0.232,-0.438 0.197,-0.469 0.197,-0.519L0.197,-0.52C0.197,-0.58 0.252,-0.616 0.331,-0.616C0.411,-0.617 0.463,-0.578 0.472,-0.523L0.473,-0.517L0.594,-0.517L0.593,-0.523C0.584,-0.637 0.487,-0.722 0.331,-0.722C0.179,-0.722 0.07,-0.637 0.07,-0.511L0.07,-0.511C0.07,-0.406 0.133,-0.338 0.277,-0.308L0.353,-0.292C0.443,-0.273 0.48,-0.242 0.48,-0.191L0.48,-0.191C0.48,-0.13 0.42,-0.088 0.335,-0.088C0.246,-0.088 0.183,-0.127 0.177,-0.187L0.177,-0.191L0.055,-0.191L0.055,-0.185C0.064,-0.063 0.168,0.018 0.332,0.018Z" style="fill:rgb(35,40,46);fill-rule:nonzero;"/>
                </g>
                <g transform="matrix(40,0,0,40,1367.45,1669.18)">
                    <path d="M0.074,0.177L0.196,0.177L0.196,-0.085L0.204,-0.085C0.232,-0.027 0.293,0.009 0.366,0.009C0.501,0.009 0.585,-0.096 0.585,-0.266L0.585,-0.267C0.585,-0.436 0.5,-0.542 0.366,-0.542C0.292,-0.542 0.233,-0.508 0.204,-0.45L0.196,-0.45L0.196,-0.534L0.074,-0.534L0.074,0.177ZM0.328,-0.094C0.246,-0.094 0.194,-0.16 0.194,-0.267L0.194,-0.268C0.194,-0.375 0.246,-0.44 0.328,-0.44C0.411,-0.44 0.461,-0.375 0.461,-0.267L0.461,-0.266C0.461,-0.159 0.411,-0.094 0.328,-0.094Z" style="fill:rgb(35,40,46);fill-rule:nonzero;"/>
                </g>
                <g transform="matrix(40,0,0,40,1392.8,1669.18)">
                    <path d="M0.303,0.011C0.448,0.011 0.519,-0.073 0.536,-0.142L0.538,-0.146L0.422,-0.146L0.42,-0.143C0.409,-0.118 0.371,-0.085 0.305,-0.085C0.223,-0.085 0.171,-0.141 0.169,-0.236L0.542,-0.236L0.542,-0.276C0.542,-0.438 0.449,-0.544 0.297,-0.544C0.145,-0.544 0.048,-0.434 0.048,-0.266L0.048,-0.266C0.048,-0.096 0.144,0.011 0.303,0.011ZM0.298,-0.449C0.366,-0.449 0.416,-0.405 0.424,-0.318L0.17,-0.318C0.18,-0.403 0.23,-0.449 0.298,-0.449Z" style="fill:rgb(35,40,46);fill-rule:nonzero;"/>
                </g>
                <g transform="matrix(40,0,0,40,1416.39,1669.18)">
                    <path d="M0.303,0.011C0.438,0.011 0.517,-0.062 0.535,-0.171L0.536,-0.175L0.421,-0.175L0.42,-0.173C0.405,-0.117 0.366,-0.088 0.303,-0.088C0.221,-0.088 0.171,-0.154 0.171,-0.268L0.171,-0.269C0.171,-0.38 0.22,-0.446 0.303,-0.446C0.37,-0.446 0.409,-0.409 0.42,-0.357L0.421,-0.355L0.536,-0.355L0.536,-0.357C0.522,-0.468 0.44,-0.544 0.303,-0.544C0.142,-0.544 0.048,-0.441 0.048,-0.269L0.048,-0.268C0.048,-0.093 0.143,0.011 0.303,0.011Z" style="fill:rgb(35,40,46);fill-rule:nonzero;"/>
                </g>
                <g transform="matrix(40,0,0,40,1439.48,1669.18)">
                    <path d="M0.137,-0.623C0.176,-0.623 0.209,-0.655 0.209,-0.695C0.209,-0.734 0.176,-0.767 0.137,-0.767C0.097,-0.767 0.064,-0.734 0.064,-0.695C0.064,-0.655 0.097,-0.623 0.137,-0.623ZM0.076,-0L0.197,-0L0.197,-0.534L0.076,-0.534L0.076,-0Z" style="fill:rgb(35,40,46);fill-rule:nonzero;"/>
                </g>
                <g transform="matrix(40,0,0,40,1450.38,1669.18)">
                    <path d="M0.113,-0L0.235,-0L0.235,-0.439L0.349,-0.439L0.349,-0.534L0.233,-0.534L0.233,-0.58C0.233,-0.63 0.255,-0.658 0.312,-0.658C0.329,-0.658 0.344,-0.657 0.354,-0.655L0.354,-0.74C0.334,-0.744 0.312,-0.745 0.286,-0.745C0.167,-0.745 0.113,-0.693 0.113,-0.586L0.113,-0.534L0.026,-0.534L0.026,-0.439L0.113,-0.439L0.113,-0Z" style="fill:rgb(35,40,46);fill-rule:nonzero;"/>
                </g>
                <g transform="matrix(40,0,0,40,1466.02,1669.18)">
                    <path d="M0.137,-0.623C0.176,-0.623 0.209,-0.655 0.209,-0.695C0.209,-0.734 0.176,-0.767 0.137,-0.767C0.097,-0.767 0.064,-0.734 0.064,-0.695C0.064,-0.655 0.097,-0.623 0.137,-0.623ZM0.076,-0L0.197,-0L0.197,-0.534L0.076,-0.534L0.076,-0Z" style="fill:rgb(35,40,46);fill-rule:nonzero;"/>
                </g>
                <g transform="matrix(40,0,0,40,1476.92,1669.18)">
                    <path d="M0.303,0.011C0.438,0.011 0.517,-0.062 0.535,-0.171L0.536,-0.175L0.421,-0.175L0.42,-0.173C0.405,-0.117 0.366,-0.088 0.303,-0.088C0.221,-0.088 0.171,-0.154 0.171,-0.268L0.171,-0.269C0.171,-0.38 0.22,-0.446 0.303,-0.446C0.37,-0.446 0.409,-0.409 0.42,-0.357L0.421,-0.355L0.536,-0.355L0.536,-0.357C0.522,-0.468 0.44,-0.544 0.303,-0.544C0.142,-0.544 0.048,-0.441 0.048,-0.269L0.048,-0.268C0.048,-0.093 0.143,0.011 0.303,0.011Z" style="fill:rgb(35,40,46);fill-rule:nonzero;"/>
                </g>
                <g transform="matrix(40,0,0,40,1500.01,1669.18)">
                    <path d="M0.137,-0.623C0.176,-0.623 0.209,-0.655 0.209,-0.695C0.209,-0.734 0.176,-0.767 0.137,-0.767C0.097,-0.767 0.064,-0.734 0.064,-0.695C0.064,-0.655 0.097,-0.623 0.137,-0.623ZM0.076,-0L0.197,-0L0.197,-0.534L0.076,-0.534L0.076,-0Z" style="fill:rgb(35,40,46);fill-rule:nonzero;"/>
                </g>
                <g transform="matrix(40,0,0,40,1510.9,1669.18)">
                    <path d="M0.284,0.002C0.308,0.002 0.33,0 0.348,-0.003L0.348,-0.097C0.333,-0.095 0.324,-0.095 0.307,-0.095C0.256,-0.095 0.235,-0.117 0.235,-0.17L0.235,-0.439L0.348,-0.439L0.348,-0.534L0.235,-0.534L0.235,-0.665L0.111,-0.665L0.111,-0.534L0.028,-0.534L0.028,-0.439L0.111,-0.439L0.111,-0.142C0.111,-0.039 0.162,0.002 0.284,0.002Z" style="fill:rgb(35,40,46);fill-rule:nonzero;"/>
                </g>
                <g transform="matrix(40,0,0,40,1526.69,1669.18)">
                    <path d="M0.131,0.188C0.25,0.188 0.311,0.145 0.356,0.011L0.548,-0.534L0.42,-0.534L0.296,-0.117L0.287,-0.117L0.162,-0.534L0.029,-0.534L0.22,0L0.214,0.025C0.201,0.073 0.171,0.094 0.121,0.094C0.108,0.094 0.095,0.093 0.085,0.092L0.085,0.186C0.1,0.187 0.117,0.188 0.131,0.188Z" style="fill:rgb(35,40,46);fill-rule:nonzero;"/>
                </g>
            </g>
            <g transform="matrix(0.344451,-0.847096,0.549041,0.53144,-649.046,1353.49)">
                <g transform="matrix(40,0,0,40,1327.49,1669.18)">
                    <path d="M0.087,-0L0.543,-0L0.543,-0.106L0.213,-0.106L0.213,-0.308L0.525,-0.308L0.525,-0.408L0.213,-0.408L0.213,-0.599L0.543,-0.599L0.543,-0.705L0.087,-0.705L0.087,-0Z" style="fill:rgb(35,40,46);fill-rule:nonzero;"/>
                </g>
                <g transform="matrix(40,0,0,40,1351.98,1669.18)">
                    <path d="M0.034,-0L0.165,-0L0.273,-0.186L0.282,-0.186L0.391,-0L0.528,-0L0.354,-0.27L0.526,-0.534L0.393,-0.534L0.287,-0.349L0.279,-0.349L0.173,-0.534L0.032,-0.534L0.207,-0.265L0.034,-0Z" style="fill:rgb(35,40,46);fill-rule:nonzero;"/>
                </g>
                <g transform="matrix(40,0,0,40,1374.38,1669.18)">
                    <path d="M0.074,0.177L0.196,0.177L0.196,-0.085L0.204,-0.085C0.232,-0.027 0.293,0.009 0.366,0.009C0.501,0.009 0.585,-0.096 0.585,-0.266L0.585,-0.267C0.585,-0.436 0.5,-0.542 0.366,-0.542C0.292,-0.542 0.233,-0.508 0.204,-0.45L0.196,-0.45L0.196,-0.534L0.074,-0.534L0.074,0.177ZM0.328,-0.094C0.246,-0.094 0.194,-0.16 0.194,-0.267L0.194,-0.268C0.194,-0.375 0.246,-0.44 0.328,-0.44C0.411,-0.44 0.461,-0.375 0.461,-0.267L0.461,-0.266C0.461,-0.159 0.411,-0.094 0.328,-0.094Z" style="fill:rgb(35,40,46);fill-rule:nonzero;"/>
                </g>
                <g transform="matrix(40,0,0,40,1399.73,1669.18)">
                    <rect x="0.079" y="-0.74" width="0.122" height="0.74" style="fill:rgb(35,40,46);fill-rule:nonzero;"/>
                </g>
                <g transform="matrix(40,0,0,40,1410.92,1669.18)">
                    <path d="M0.137,-0.623C0.176,-0.623 0.209,-0.655 0.209,-0.695C0.209,-0.734 0.176,-0.767 0.137,-0.767C0.097,-0.767 0.064,-0.734 0.064,-0.695C0.064,-0.655 0.097,-0.623 0.137,-0.623ZM0.076,-0L0.197,-0L0.197,-0.534L0.076,-0.534L0.076,-0Z" style="fill:rgb(35,40,46);fill-rule:nonzero;"/>
                </g>
                <g transform="matrix(40,0,0,40,1421.82,1669.18)">
                    <path d="M0.303,0.011C0.438,0.011 0.517,-0.062 0.535,-0.171L0.536,-0.175L0.421,-0.175L0.42,-0.173C0.405,-0.117 0.366,-0.088 0.303,-0.088C0.221,-0.088 0.171,-0.154 0.171,-0.268L0.171,-0.269C0.171,-0.38 0.22,-0.446 0.303,-0.446C0.37,-0.446 0.409,-0.409 0.42,-0.357L0.421,-0.355L0.536,-0.355L0.536,-0.357C0.522,-0.468 0.44,-0.544 0.303,-0.544C0.142,-0.544 0.048,-0.441 0.048,-0.269L0.048,-0.268C0.048,-0.093 0.143,0.011 0.303,0.011Z" style="fill:rgb(35,40,46);fill-rule:nonzero;"/>
                </g>
                <g transform="matrix(40,0,0,40,1444.91,1669.18)">
                    <path d="M0.137,-0.623C0.176,-0.623 0.209,-0.655 0.209,-0.695C0.209,-0.734 0.176,-0.767 0.137,-0.767C0.097,-0.767 0.064,-0.734 0.064,-0.695C0.064,-0.655 0.097,-0.623 0.137,-0.623ZM0.076,-0L0.197,-0L0.197,-0.534L0.076,-0.534L0.076,-0Z" style="fill:rgb(35,40,46);fill-rule:nonzero;"/>
                </g>
                <g transform="matrix(40,0,0,40,1455.81,1669.18)">
                    <path d="M0.284,0.002C0.308,0.002 0.33,0 0.348,-0.003L0.348,-0.097C0.333,-0.095 0.324,-0.095 0.307,-0.095C0.256,-0.095 0.235,-0.117 0.235,-0.17L0.235,-0.439L0.348,-0.439L0.348,-0.534L0.235,-0.534L0.235,-0.665L0.111,-0.665L0.111,-0.534L0.028,-0.534L0.028,-0.439L0.111,-0.439L0.111,-0.142C0.111,-0.039 0.162,0.002 0.284,0.002Z" style="fill:rgb(35,40,46);fill-rule:nonzero;"/>
                </g>
                <g transform="matrix(40,0,0,40,1471.59,1669.18)">
                    <path d="M0.074,-0L0.196,-0L0.196,-0.311C0.196,-0.391 0.241,-0.442 0.313,-0.442C0.387,-0.442 0.42,-0.4 0.42,-0.317L0.42,-0L0.542,-0L0.542,-0.345C0.542,-0.472 0.477,-0.544 0.358,-0.544C0.281,-0.544 0.229,-0.509 0.204,-0.452L0.196,-0.452L0.196,-0.534L0.074,-0.534L0.074,-0Z" style="fill:rgb(35,40,46);fill-rule:nonzero;"/>
                </g>
                <g transform="matrix(40,0,0,40,1496.04,1669.18)">
                    <path d="M0.303,0.011C0.448,0.011 0.519,-0.073 0.536,-0.142L0.538,-0.146L0.422,-0.146L0.42,-0.143C0.409,-0.118 0.371,-0.085 0.305,-0.085C0.223,-0.085 0.171,-0.141 0.169,-0.236L0.542,-0.236L0.542,-0.276C0.542,-0.438 0.449,-0.544 0.297,-0.544C0.145,-0.544 0.048,-0.434 0.048,-0.266L0.048,-0.266C0.048,-0.096 0.144,0.011 0.303,0.011ZM0.298,-0.449C0.366,-0.449 0.416,-0.405 0.424,-0.318L0.17,-0.318C0.18,-0.403 0.23,-0.449 0.298,-0.449Z" style="fill:rgb(35,40,46);fill-rule:nonzero;"/>
                </g>
                <g transform="matrix(40,0,0,40,1519.63,1669.18)">
                    <path d="M0.276,0.011C0.407,0.011 0.502,-0.057 0.502,-0.159L0.502,-0.16C0.502,-0.237 0.453,-0.282 0.349,-0.305L0.262,-0.324C0.205,-0.337 0.182,-0.356 0.182,-0.388L0.182,-0.388C0.182,-0.428 0.221,-0.455 0.275,-0.455C0.333,-0.455 0.368,-0.427 0.376,-0.394L0.377,-0.392L0.491,-0.392L0.491,-0.393C0.483,-0.479 0.406,-0.544 0.276,-0.544C0.15,-0.544 0.062,-0.478 0.062,-0.381L0.062,-0.381C0.062,-0.302 0.11,-0.254 0.212,-0.232L0.298,-0.212C0.357,-0.199 0.38,-0.179 0.38,-0.147L0.38,-0.146C0.38,-0.106 0.338,-0.079 0.278,-0.079C0.217,-0.079 0.182,-0.105 0.169,-0.142L0.168,-0.143L0.048,-0.143L0.048,-0.142C0.058,-0.052 0.14,0.011 0.276,0.011Z" style="fill:rgb(35,40,46);fill-rule:nonzero;"/>
                </g>
                <g transform="matrix(40,0,0,40,1541.28,1669.18)">
                    <path d="M0.276,0.011C0.407,0.011 0.502,-0.057 0.502,-0.159L0.502,-0.16C0.502,-0.237 0.453,-0.282 0.349,-0.305L0.262,-0.324C0.205,-0.337 0.182,-0.356 0.182,-0.388L0.182,-0.388C0.182,-0.428 0.221,-0.455 0.275,-0.455C0.333,-0.455 0.368,-0.427 0.376,-0.394L0.377,-0.392L0.491,-0.392L0.491,-0.393C0.483,-0.479 0.406,-0.544 0.276,-0.544C0.15,-0.544 0.062,-0.478 0.062,-0.381L0.062,-0.381C0.062,-0.302 0.11,-0.254 0.212,-0.232L0.298,-0.212C0.357,-0.199 0.38,-0.179 0.38,-0.147L0.38,-0.146C0.38,-0.106 0.338,-0.079 0.278,-0.079C0.217,-0.079 0.182,-0.105 0.169,-0.142L0.168,-0.143L0.048,-0.143L0.048,-0.142C0.058,-0.052 0.14,0.011 0.276,0.011Z" style="fill:rgb(35,40,46);fill-rule:nonzero;"/>
                </g>
            </g>
            <g transform="matrix(0.648146,0,0,1,204.341,-904.104)">
                <g transform="matrix(48,0,0,48,1392.88,1669.18)">
                    <path d="M0.262,-0L0.388,-0L0.388,-0.599L0.605,-0.599L0.605,-0.705L0.045,-0.705L0.045,-0.599L0.262,-0.599L0.262,-0Z" style="fill:rgb(35,40,46);fill-rule:nonzero;"/>
                </g>
                <g transform="matrix(48,0,0,48,1419.56,1669.18)">
                    <path d="M0.305,0.011C0.464,0.011 0.562,-0.094 0.562,-0.267L0.562,-0.268C0.562,-0.439 0.464,-0.544 0.305,-0.544C0.146,-0.544 0.048,-0.439 0.048,-0.268L0.048,-0.267C0.048,-0.094 0.145,0.011 0.305,0.011ZM0.305,-0.088C0.22,-0.088 0.172,-0.154 0.172,-0.266L0.172,-0.267C0.172,-0.379 0.22,-0.446 0.305,-0.446C0.389,-0.446 0.437,-0.379 0.437,-0.267L0.437,-0.266C0.437,-0.154 0.389,-0.088 0.305,-0.088Z" style="fill:rgb(35,40,46);fill-rule:nonzero;"/>
                </g>
                <g transform="matrix(48,0,0,48,1448.81,1669.18)">
                    <path d="M0.305,0.011C0.464,0.011 0.562,-0.094 0.562,-0.267L0.562,-0.268C0.562,-0.439 0.464,-0.544 0.305,-0.544C0.146,-0.544 0.048,-0.439 0.048,-0.268L0.048,-0.267C0.048,-0.094 0.145,0.011 0.305,0.011ZM0.305,-0.088C0.22,-0.088 0.172,-0.154 0.172,-0.266L0.172,-0.267C0.172,-0.379 0.22,-0.446 0.305,-0.446C0.389,-0.446 0.437,-0.379 0.437,-0.267L0.437,-0.266C0.437,-0.154 0.389,-0.088 0.305,-0.088Z" style="fill:rgb(35,40,46);fill-rule:nonzero;"/>
                </g>
                <g transform="matrix(48,0,0,48,1478.06,1669.18)">
                    <rect x="0.079" y="-0.74" width="0.122" height="0.74" style="fill:rgb(35,40,46);fill-rule:nonzero;"/>
                </g>
                <g transform="matrix(48,0,0,48,1491.49,1669.18)">
                    <path d="M0.276,0.011C0.407,0.011 0.502,-0.057 0.502,-0.159L0.502,-0.16C0.502,-0.237 0.453,-0.282 0.349,-0.305L0.262,-0.324C0.205,-0.337 0.182,-0.356 0.182,-0.388L0.182,-0.388C0.182,-0.428 0.221,-0.455 0.275,-0.455C0.333,-0.455 0.368,-0.427 0.376,-0.394L0.377,-0.392L0.491,-0.392L0.491,-0.393C0.483,-0.479 0.406,-0.544 0.276,-0.544C0.15,-0.544 0.062,-0.478 0.062,-0.381L0.062,-0.381C0.062,-0.302 0.11,-0.254 0.212,-0.232L0.298,-0.212C0.357,-0.199 0.38,-0.179 0.38,-0.147L0.38,-0.146C0.38,-0.106 0.338,-0.079 0.278,-0.079C0.217,-0.079 0.182,-0.105 0.169,-0.142L0.168,-0.143L0.048,-0.143L0.048,-0.142C0.058,-0.052 0.14,0.011 0.276,0.011Z" style="fill:rgb(35,40,46);fill-rule:nonzero;"/>
                </g>
            </g>
            <g transform="matrix(0.648146,0,0,1,204.128,-778.981)">
                <g transform="matrix(48,0,0,48,1334.97,1669.18)">
                    <path d="M0.388,0.018C0.576,0.018 0.696,-0.099 0.696,-0.281L0.696,-0.369L0.404,-0.369L0.404,-0.273L0.573,-0.273L0.572,-0.258C0.571,-0.158 0.498,-0.091 0.39,-0.091C0.265,-0.091 0.186,-0.191 0.186,-0.353L0.186,-0.354C0.186,-0.513 0.263,-0.613 0.386,-0.613C0.477,-0.613 0.541,-0.568 0.564,-0.491L0.565,-0.486L0.69,-0.486L0.69,-0.491C0.666,-0.629 0.549,-0.722 0.386,-0.722C0.186,-0.722 0.057,-0.578 0.057,-0.353L0.057,-0.352C0.057,-0.125 0.184,0.018 0.388,0.018Z" style="fill:rgb(35,40,46);fill-rule:nonzero;"/>
                </g>
                <g transform="matrix(48,0,0,48,1371.23,1669.18)">
                    <path d="M0.303,0.011C0.448,0.011 0.519,-0.073 0.536,-0.142L0.538,-0.146L0.422,-0.146L0.42,-0.143C0.409,-0.118 0.371,-0.085 0.305,-0.085C0.223,-0.085 0.171,-0.141 0.169,-0.236L0.542,-0.236L0.542,-0.276C0.542,-0.438 0.449,-0.544 0.297,-0.544C0.145,-0.544 0.048,-0.434 0.048,-0.266L0.048,-0.266C0.048,-0.096 0.144,0.011 0.303,0.011ZM0.298,-0.449C0.366,-0.449 0.416,-0.405 0.424,-0.318L0.17,-0.318C0.18,-0.403 0.23,-0.449 0.298,-0.449Z" style="fill:rgb(35,40,46);fill-rule:nonzero;"/>
                </g>
                <g transform="matrix(48,0,0,48,1399.54,1669.18)">
                    <path d="M0.074,-0L0.196,-0L0.196,-0.311C0.196,-0.391 0.241,-0.442 0.313,-0.442C0.387,-0.442 0.42,-0.4 0.42,-0.317L0.42,-0L0.542,-0L0.542,-0.345C0.542,-0.472 0.477,-0.544 0.358,-0.544C0.281,-0.544 0.229,-0.509 0.204,-0.452L0.196,-0.452L0.196,-0.534L0.074,-0.534L0.074,-0Z" style="fill:rgb(35,40,46);fill-rule:nonzero;"/>
                </g>
                <g transform="matrix(48,0,0,48,1428.88,1669.18)">
                    <path d="M0.303,0.011C0.448,0.011 0.519,-0.073 0.536,-0.142L0.538,-0.146L0.422,-0.146L0.42,-0.143C0.409,-0.118 0.371,-0.085 0.305,-0.085C0.223,-0.085 0.171,-0.141 0.169,-0.236L0.542,-0.236L0.542,-0.276C0.542,-0.438 0.449,-0.544 0.297,-0.544C0.145,-0.544 0.048,-0.434 0.048,-0.266L0.048,-0.266C0.048,-0.096 0.144,0.011 0.303,0.011ZM0.298,-0.449C0.366,-0.449 0.416,-0.405 0.424,-0.318L0.17,-0.318C0.18,-0.403 0.23,-0.449 0.298,-0.449Z" style="fill:rgb(35,40,46);fill-rule:nonzero;"/>
                </g>
                <g transform="matrix(48,0,0,48,1457.2,1669.18)">
                    <path d="M0.074,-0L0.196,-0L0.196,-0.31C0.196,-0.386 0.249,-0.435 0.33,-0.435C0.351,-0.435 0.371,-0.432 0.391,-0.428L0.391,-0.537C0.379,-0.54 0.36,-0.542 0.341,-0.542C0.271,-0.542 0.222,-0.509 0.204,-0.452L0.196,-0.452L0.196,-0.534L0.074,-0.534L0.074,-0Z" style="fill:rgb(35,40,46);fill-rule:nonzero;"/>
                </g>
                <g transform="matrix(48,0,0,48,1477.14,1669.18)">
                    <path d="M0.137,-0.623C0.176,-0.623 0.209,-0.655 0.209,-0.695C0.209,-0.734 0.176,-0.767 0.137,-0.767C0.097,-0.767 0.064,-0.734 0.064,-0.695C0.064,-0.655 0.097,-0.623 0.137,-0.623ZM0.076,-0L0.197,-0L0.197,-0.534L0.076,-0.534L0.076,-0Z" style="fill:rgb(35,40,46);fill-rule:nonzero;"/>
                </g>
                <g transform="matrix(48,0,0,48,1490.22,1669.18)">
                    <path d="M0.303,0.011C0.438,0.011 0.517,-0.062 0.535,-0.171L0.536,-0.175L0.421,-0.175L0.42,-0.173C0.405,-0.117 0.366,-0.088 0.303,-0.088C0.221,-0.088 0.171,-0.154 0.171,-0.268L0.171,-0.269C0.171,-0.38 0.22,-0.446 0.303,-0.446C0.37,-0.446 0.409,-0.409 0.42,-0.357L0.421,-0.355L0.536,-0.355L0.536,-0.357C0.522,-0.468 0.44,-0.544 0.303,-0.544C0.142,-0.544 0.048,-0.441 0.048,-0.269L0.048,-0.268C0.048,-0.093 0.143,0.011 0.303,0.011Z" style="fill:rgb(35,40,46);fill-rule:nonzero;"/>
                </g>
            </g>
            <g transform="matrix(0.648146,0,0,1,204.341,-654.467)">
                <g transform="matrix(48,0,0,48,1300.42,1669.18)">
                    <path d="M0.087,-0L0.543,-0L0.543,-0.106L0.213,-0.106L0.213,-0.308L0.525,-0.308L0.525,-0.408L0.213,-0.408L0.213,-0.599L0.543,-0.599L0.543,-0.705L0.087,-0.705L0.087,-0Z" style="fill:rgb(35,40,46);fill-rule:nonzero;"/>
                </g>
                <g transform="matrix(48,0,0,48,1329.81,1669.18)">
                    <rect x="0.079" y="-0.74" width="0.122" height="0.74" style="fill:rgb(35,40,46);fill-rule:nonzero;"/>
                </g>
                <g transform="matrix(48,0,0,48,1343.24,1669.18)">
                    <path d="M0.303,0.011C0.448,0.011 0.519,-0.073 0.536,-0.142L0.538,-0.146L0.422,-0.146L0.42,-0.143C0.409,-0.118 0.371,-0.085 0.305,-0.085C0.223,-0.085 0.171,-0.141 0.169,-0.236L0.542,-0.236L0.542,-0.276C0.542,-0.438 0.449,-0.544 0.297,-0.544C0.145,-0.544 0.048,-0.434 0.048,-0.266L0.048,-0.266C0.048,-0.096 0.144,0.011 0.303,0.011ZM0.298,-0.449C0.366,-0.449 0.416,-0.405 0.424,-0.318L0.17,-0.318C0.18,-0.403 0.23,-0.449 0.298,-0.449Z" style="fill:rgb(35,40,46);fill-rule:nonzero;"/>
                </g>
                <g transform="matrix(48,0,0,48,1371.56,1669.18)">
                    <path d="M0.074,-0L0.196,-0L0.196,-0.325C0.196,-0.391 0.24,-0.442 0.3,-0.442C0.359,-0.442 0.396,-0.405 0.396,-0.346L0.396,-0L0.518,-0L0.518,-0.333C0.518,-0.395 0.559,-0.442 0.622,-0.442C0.687,-0.442 0.719,-0.407 0.719,-0.337L0.719,-0L0.84,-0L0.84,-0.367C0.84,-0.478 0.776,-0.544 0.668,-0.544C0.594,-0.544 0.533,-0.506 0.507,-0.448L0.499,-0.448C0.476,-0.507 0.423,-0.544 0.351,-0.544C0.281,-0.544 0.227,-0.51 0.204,-0.451L0.196,-0.451L0.196,-0.534L0.074,-0.534L0.074,-0Z" style="fill:rgb(35,40,46);fill-rule:nonzero;"/>
                </g>
                <g transform="matrix(48,0,0,48,1415.22,1669.18)">
                    <path d="M0.303,0.011C0.448,0.011 0.519,-0.073 0.536,-0.142L0.538,-0.146L0.422,-0.146L0.42,-0.143C0.409,-0.118 0.371,-0.085 0.305,-0.085C0.223,-0.085 0.171,-0.141 0.169,-0.236L0.542,-0.236L0.542,-0.276C0.542,-0.438 0.449,-0.544 0.297,-0.544C0.145,-0.544 0.048,-0.434 0.048,-0.266L0.048,-0.266C0.048,-0.096 0.144,0.011 0.303,0.011ZM0.298,-0.449C0.366,-0.449 0.416,-0.405 0.424,-0.318L0.17,-0.318C0.18,-0.403 0.23,-0.449 0.298,-0.449Z" style="fill:rgb(35,40,46);fill-rule:nonzero;"/>
                </g>
                <g transform="matrix(48,0,0,48,1443.53,1669.18)">
                    <path d="M0.074,-0L0.196,-0L0.196,-0.311C0.196,-0.391 0.241,-0.442 0.313,-0.442C0.387,-0.442 0.42,-0.4 0.42,-0.317L0.42,-0L0.542,-0L0.542,-0.345C0.542,-0.472 0.477,-0.544 0.358,-0.544C0.281,-0.544 0.229,-0.509 0.204,-0.452L0.196,-0.452L0.196,-0.534L0.074,-0.534L0.074,-0Z" style="fill:rgb(35,40,46);fill-rule:nonzero;"/>
                </g>
                <g transform="matrix(48,0,0,48,1472.88,1669.18)">
                    <path d="M0.284,0.002C0.308,0.002 0.33,0 0.348,-0.003L0.348,-0.097C0.333,-0.095 0.324,-0.095 0.307,-0.095C0.256,-0.095 0.235,-0.117 0.235,-0.17L0.235,-0.439L0.348,-0.439L0.348,-0.534L0.235,-0.534L0.235,-0.665L0.111,-0.665L0.111,-0.534L0.028,-0.534L0.028,-0.439L0.111,-0.439L0.111,-0.142C0.111,-0.039 0.162,0.002 0.284,0.002Z" style="fill:rgb(35,40,46);fill-rule:nonzero;"/>
                </g>
                <g transform="matrix(48,0,0,48,1491.49,1669.18)">
                    <path d="M0.276,0.011C0.407,0.011 0.502,-0.057 0.502,-0.159L0.502,-0.16C0.502,-0.237 0.453,-0.282 0.349,-0.305L0.262,-0.324C0.205,-0.337 0.182,-0.356 0.182,-0.388L0.182,-0.388C0.182,-0.428 0.221,-0.455 0.275,-0.455C0.333,-0.455 0.368,-0.427 0.376,-0.394L0.377,-0.392L0.491,-0.392L0.491,-0.393C0.483,-0.479 0.406,-0.544 0.276,-0.544C0.15,-0.544 0.062,-0.478 0.062,-0.381L0.062,-0.381C0.062,-0.302 0.11,-0.254 0.212,-0.232L0.298,-0.212C0.357,-0.199 0.38,-0.179 0.38,-0.147L0.38,-0.146C0.38,-0.106 0.338,-0.079 0.278,-0.079C0.217,-0.079 0.182,-0.105 0.169,-0.142L0.168,-0.143L0.048,-0.143L0.048,-0.142C0.058,-0.052 0.14,0.011 0.276,0.011Z" style="fill:rgb(35,40,46);fill-rule:nonzero;"/>
                </g>
            </g>
            <g transform="matrix(0.648146,0,0,1,204.553,-531.149)">
                <g transform="matrix(48,0,0,48,1335.39,1669.18)">
                    <path d="M0.391,0.018C0.596,0.018 0.724,-0.125 0.724,-0.352L0.724,-0.353C0.724,-0.58 0.596,-0.722 0.391,-0.722C0.186,-0.722 0.057,-0.58 0.057,-0.353L0.057,-0.352C0.057,-0.125 0.184,0.018 0.391,0.018ZM0.391,-0.091C0.264,-0.091 0.186,-0.194 0.186,-0.352L0.186,-0.353C0.186,-0.512 0.266,-0.613 0.391,-0.613C0.516,-0.613 0.595,-0.512 0.595,-0.353L0.595,-0.352C0.595,-0.194 0.516,-0.091 0.391,-0.091Z" style="fill:rgb(35,40,46);fill-rule:nonzero;"/>
                </g>
                <g transform="matrix(48,0,0,48,1372.87,1669.18)">
                    <path d="M0.371,0.009C0.505,0.009 0.59,-0.097 0.59,-0.266L0.59,-0.267C0.59,-0.437 0.506,-0.542 0.371,-0.542C0.298,-0.542 0.237,-0.506 0.209,-0.449L0.201,-0.449L0.201,-0.74L0.079,-0.74L0.079,-0L0.201,-0L0.201,-0.083L0.209,-0.083C0.238,-0.025 0.296,0.009 0.371,0.009ZM0.333,-0.094C0.25,-0.094 0.199,-0.159 0.199,-0.266L0.199,-0.267C0.199,-0.374 0.25,-0.44 0.333,-0.44C0.416,-0.44 0.466,-0.375 0.466,-0.267L0.466,-0.266C0.466,-0.159 0.416,-0.094 0.333,-0.094Z" style="fill:rgb(35,40,46);fill-rule:nonzero;"/>
                </g>
                <g transform="matrix(48,0,0,48,1403.48,1669.18)">
                    <path d="M0.136,-0.623C0.176,-0.623 0.208,-0.655 0.208,-0.695C0.208,-0.734 0.176,-0.767 0.136,-0.767C0.096,-0.767 0.063,-0.734 0.063,-0.695C0.063,-0.655 0.096,-0.623 0.136,-0.623ZM0.017,0.182C0.136,0.182 0.197,0.13 0.197,0.021L0.197,-0.534L0.075,-0.534L0.075,0.019C0.075,0.068 0.055,0.086 0.003,0.086C-0.002,0.086 -0.008,0.086 -0.013,0.085L-0.013,0.181C-0.006,0.182 0.007,0.182 0.017,0.182Z" style="fill:rgb(35,40,46);fill-rule:nonzero;"/>
                </g>
                <g transform="matrix(48,0,0,48,1416.53,1669.18)">
                    <path d="M0.303,0.011C0.448,0.011 0.519,-0.073 0.536,-0.142L0.538,-0.146L0.422,-0.146L0.42,-0.143C0.409,-0.118 0.371,-0.085 0.305,-0.085C0.223,-0.085 0.171,-0.141 0.169,-0.236L0.542,-0.236L0.542,-0.276C0.542,-0.438 0.449,-0.544 0.297,-0.544C0.145,-0.544 0.048,-0.434 0.048,-0.266L0.048,-0.266C0.048,-0.096 0.144,0.011 0.303,0.011ZM0.298,-0.449C0.366,-0.449 0.416,-0.405 0.424,-0.318L0.17,-0.318C0.18,-0.403 0.23,-0.449 0.298,-0.449Z" style="fill:rgb(35,40,46);fill-rule:nonzero;"/>
                </g>
                <g transform="matrix(48,0,0,48,1444.85,1669.18)">
                    <path d="M0.303,0.011C0.438,0.011 0.517,-0.062 0.535,-0.171L0.536,-0.175L0.421,-0.175L0.42,-0.173C0.405,-0.117 0.366,-0.088 0.303,-0.088C0.221,-0.088 0.171,-0.154 0.171,-0.268L0.171,-0.269C0.171,-0.38 0.22,-0.446 0.303,-0.446C0.37,-0.446 0.409,-0.409 0.42,-0.357L0.421,-0.355L0.536,-0.355L0.536,-0.357C0.522,-0.468 0.44,-0.544 0.303,-0.544C0.142,-0.544 0.048,-0.441 0.048,-0.269L0.048,-0.268C0.048,-0.093 0.143,0.011 0.303,0.011Z" style="fill:rgb(35,40,46);fill-rule:nonzero;"/>
                </g>
                <g transform="matrix(48,0,0,48,1472.88,1669.18)">
                    <path d="M0.284,0.002C0.308,0.002 0.33,0 0.348,-0.003L0.348,-0.097C0.333,-0.095 0.324,-0.095 0.307,-0.095C0.256,-0.095 0.235,-0.117 0.235,-0.17L0.235,-0.439L0.348,-0.439L0.348,-0.534L0.235,-0.534L0.235,-0.665L0.111,-0.665L0.111,-0.534L0.028,-0.534L0.028,-0.439L0.111,-0.439L0.111,-0.142C0.111,-0.039 0.162,0.002 0.284,0.002Z" style="fill:rgb(35,40,46);fill-rule:nonzero;"/>
                </g>
                <g transform="matrix(48,0,0,48,1491.49,1669.18)">
                    <path d="M0.276,0.011C0.407,0.011 0.502,-0.057 0.502,-0.159L0.502,-0.16C0.502,-0.237 0.453,-0.282 0.349,-0.305L0.262,-0.324C0.205,-0.337 0.182,-0.356 0.182,-0.388L0.182,-0.388C0.182,-0.428 0.221,-0.455 0.275,-0.455C0.333,-0.455 0.368,-0.427 0.376,-0.394L0.377,-0.392L0.491,-0.392L0.491,-0.393C0.483,-0.479 0.406,-0.544 0.276,-0.544C0.15,-0.544 0.062,-0.478 0.062,-0.381L0.062,-0.381C0.062,-0.302 0.11,-0.254 0.212,-0.232L0.298,-0.212C0.357,-0.199 0.38,-0.179 0.38,-0.147L0.38,-0.146C0.38,-0.106 0.338,-0.079 0.278,-0.079C0.217,-0.079 0.182,-0.105 0.169,-0.142L0.168,-0.143L0.048,-0.143L0.048,-0.142C0.058,-0.052 0.14,0.011 0.276,0.011Z" style="fill:rgb(35,40,46);fill-rule:nonzero;"/>
                </g>
            </g>
            <g transform="matrix(0.648146,0,0,1,204.553,-406.688)">
                <g transform="matrix(48,0,0,48,1218.16,1669.18)">
                    <path d="M0.381,0.018C0.543,0.018 0.66,-0.077 0.679,-0.218L0.679,-0.221L0.555,-0.221L0.555,-0.219C0.537,-0.141 0.47,-0.091 0.381,-0.091C0.261,-0.091 0.186,-0.191 0.186,-0.352L0.186,-0.353C0.186,-0.513 0.261,-0.613 0.38,-0.613C0.469,-0.613 0.537,-0.558 0.555,-0.475L0.555,-0.473L0.679,-0.473L0.679,-0.477C0.662,-0.621 0.541,-0.722 0.38,-0.722C0.181,-0.722 0.057,-0.581 0.057,-0.353L0.057,-0.352C0.057,-0.124 0.181,0.018 0.381,0.018Z" style="fill:rgb(35,40,46);fill-rule:nonzero;"/>
                </g>
                <g transform="matrix(48,0,0,48,1253.29,1669.18)">
                    <path d="M0.305,0.011C0.464,0.011 0.562,-0.094 0.562,-0.267L0.562,-0.268C0.562,-0.439 0.464,-0.544 0.305,-0.544C0.146,-0.544 0.048,-0.439 0.048,-0.268L0.048,-0.267C0.048,-0.094 0.145,0.011 0.305,0.011ZM0.305,-0.088C0.22,-0.088 0.172,-0.154 0.172,-0.266L0.172,-0.267C0.172,-0.379 0.22,-0.446 0.305,-0.446C0.389,-0.446 0.437,-0.379 0.437,-0.267L0.437,-0.266C0.437,-0.154 0.389,-0.088 0.305,-0.088Z" style="fill:rgb(35,40,46);fill-rule:nonzero;"/>
                </g>
                <g transform="matrix(48,0,0,48,1282.54,1669.18)">
                    <path d="M0.074,-0L0.196,-0L0.196,-0.325C0.196,-0.391 0.24,-0.442 0.3,-0.442C0.359,-0.442 0.396,-0.405 0.396,-0.346L0.396,-0L0.518,-0L0.518,-0.333C0.518,-0.395 0.559,-0.442 0.622,-0.442C0.687,-0.442 0.719,-0.407 0.719,-0.337L0.719,-0L0.84,-0L0.84,-0.367C0.84,-0.478 0.776,-0.544 0.668,-0.544C0.594,-0.544 0.533,-0.506 0.507,-0.448L0.499,-0.448C0.476,-0.507 0.423,-0.544 0.351,-0.544C0.281,-0.544 0.227,-0.51 0.204,-0.451L0.196,-0.451L0.196,-0.534L0.074,-0.534L0.074,-0Z" style="fill:rgb(35,40,46);fill-rule:nonzero;"/>
                </g>
                <g transform="matrix(48,0,0,48,1326.21,1669.18)">
                    <path d="M0.074,0.177L0.196,0.177L0.196,-0.085L0.204,-0.085C0.232,-0.027 0.293,0.009 0.366,0.009C0.501,0.009 0.585,-0.096 0.585,-0.266L0.585,-0.267C0.585,-0.436 0.5,-0.542 0.366,-0.542C0.292,-0.542 0.233,-0.508 0.204,-0.45L0.196,-0.45L0.196,-0.534L0.074,-0.534L0.074,0.177ZM0.328,-0.094C0.246,-0.094 0.194,-0.16 0.194,-0.267L0.194,-0.268C0.194,-0.375 0.246,-0.44 0.328,-0.44C0.411,-0.44 0.461,-0.375 0.461,-0.267L0.461,-0.266C0.461,-0.159 0.411,-0.094 0.328,-0.094Z" style="fill:rgb(35,40,46);fill-rule:nonzero;"/>
                </g>
                <g transform="matrix(48,0,0,48,1356.63,1669.18)">
                    <path d="M0.305,0.011C0.464,0.011 0.562,-0.094 0.562,-0.267L0.562,-0.268C0.562,-0.439 0.464,-0.544 0.305,-0.544C0.146,-0.544 0.048,-0.439 0.048,-0.268L0.048,-0.267C0.048,-0.094 0.145,0.011 0.305,0.011ZM0.305,-0.088C0.22,-0.088 0.172,-0.154 0.172,-0.266L0.172,-0.267C0.172,-0.379 0.22,-0.446 0.305,-0.446C0.389,-0.446 0.437,-0.379 0.437,-0.267L0.437,-0.266C0.437,-0.154 0.389,-0.088 0.305,-0.088Z" style="fill:rgb(35,40,46);fill-rule:nonzero;"/>
                </g>
                <g transform="matrix(48,0,0,48,1385.88,1669.18)">
                    <path d="M0.074,-0L0.196,-0L0.196,-0.311C0.196,-0.391 0.241,-0.442 0.313,-0.442C0.387,-0.442 0.42,-0.4 0.42,-0.317L0.42,-0L0.542,-0L0.542,-0.345C0.542,-0.472 0.477,-0.544 0.358,-0.544C0.281,-0.544 0.229,-0.509 0.204,-0.452L0.196,-0.452L0.196,-0.534L0.074,-0.534L0.074,-0Z" style="fill:rgb(35,40,46);fill-rule:nonzero;"/>
                </g>
                <g transform="matrix(48,0,0,48,1415.22,1669.18)">
                    <path d="M0.303,0.011C0.448,0.011 0.519,-0.073 0.536,-0.142L0.538,-0.146L0.422,-0.146L0.42,-0.143C0.409,-0.118 0.371,-0.085 0.305,-0.085C0.223,-0.085 0.171,-0.141 0.169,-0.236L0.542,-0.236L0.542,-0.276C0.542,-0.438 0.449,-0.544 0.297,-0.544C0.145,-0.544 0.048,-0.434 0.048,-0.266L0.048,-0.266C0.048,-0.096 0.144,0.011 0.303,0.011ZM0.298,-0.449C0.366,-0.449 0.416,-0.405 0.424,-0.318L0.17,-0.318C0.18,-0.403 0.23,-0.449 0.298,-0.449Z" style="fill:rgb(35,40,46);fill-rule:nonzero;"/>
                </g>
                <g transform="matrix(48,0,0,48,1443.53,1669.18)">
                    <path d="M0.074,-0L0.196,-0L0.196,-0.311C0.196,-0.391 0.241,-0.442 0.313,-0.442C0.387,-0.442 0.42,-0.4 0.42,-0.317L0.42,-0L0.542,-0L0.542,-0.345C0.542,-0.472 0.477,-0.544 0.358,-0.544C0.281,-0.544 0.229,-0.509 0.204,-0.452L0.196,-0.452L0.196,-0.534L0.074,-0.534L0.074,-0Z" style="fill:rgb(35,40,46);fill-rule:nonzero;"/>
                </g>
                <g transform="matrix(48,0,0,48,1472.88,1669.18)">
                    <path d="M0.284,0.002C0.308,0.002 0.33,0 0.348,-0.003L0.348,-0.097C0.333,-0.095 0.324,-0.095 0.307,-0.095C0.256,-0.095 0.235,-0.117 0.235,-0.17L0.235,-0.439L0.348,-0.439L0.348,-0.534L0.235,-0.534L0.235,-0.665L0.111,-0.665L0.111,-0.534L0.028,-0.534L0.028,-0.439L0.111,-0.439L0.111,-0.142C0.111,-0.039 0.162,0.002 0.284,0.002Z" style="fill:rgb(35,40,46);fill-rule:nonzero;"/>
                </g>
                <g transform="matrix(48,0,0,48,1491.49,1669.18)">
                    <path d="M0.276,0.011C0.407,0.011 0.502,-0.057 0.502,-0.159L0.502,-0.16C0.502,-0.237 0.453,-0.282 0.349,-0.305L0.262,-0.324C0.205,-0.337 0.182,-0.356 0.182,-0.388L0.182,-0.388C0.182,-0.428 0.221,-0.455 0.275,-0.455C0.333,-0.455 0.368,-0.427 0.376,-0.394L0.377,-0.392L0.491,-0.392L0.491,-0.393C0.483,-0.479 0.406,-0.544 0.276,-0.544C0.15,-0.544 0.062,-0.478 0.062,-0.381L0.062,-0.381C0.062,-0.302 0.11,-0.254 0.212,-0.232L0.298,-0.212C0.357,-0.199 0.38,-0.179 0.38,-0.147L0.38,-0.146C0.38,-0.106 0.338,-0.079 0.278,-0.079C0.217,-0.079 0.182,-0.105 0.169,-0.142L0.168,-0.143L0.048,-0.143L0.048,-0.142C0.058,-0.052 0.14,0.011 0.276,0.011Z" style="fill:rgb(35,40,46);fill-rule:nonzero;"/>
                </g>
            </g>
            <g transform="matrix(0.648146,0,0,1,204.341,-282.737)">
                <g transform="matrix(48,0,0,48,1336.54,1669.18)">
                    <path d="M0.376,0.018C0.555,0.018 0.666,-0.087 0.666,-0.243L0.666,-0.705L0.54,-0.705L0.54,-0.253C0.54,-0.156 0.481,-0.091 0.376,-0.091C0.271,-0.091 0.212,-0.156 0.212,-0.253L0.212,-0.705L0.086,-0.705L0.086,-0.243C0.086,-0.087 0.198,0.018 0.376,0.018Z" style="fill:rgb(35,40,46);fill-rule:nonzero;"/>
                </g>
                <g transform="matrix(48,0,0,48,1372.63,1669.18)">
                    <path d="M0.284,0.002C0.308,0.002 0.33,0 0.348,-0.003L0.348,-0.097C0.333,-0.095 0.324,-0.095 0.307,-0.095C0.256,-0.095 0.235,-0.117 0.235,-0.17L0.235,-0.439L0.348,-0.439L0.348,-0.534L0.235,-0.534L0.235,-0.665L0.111,-0.665L0.111,-0.534L0.028,-0.534L0.028,-0.439L0.111,-0.439L0.111,-0.142C0.111,-0.039 0.162,0.002 0.284,0.002Z" style="fill:rgb(35,40,46);fill-rule:nonzero;"/>
                </g>
                <g transform="matrix(48,0,0,48,1391.57,1669.18)">
                    <path d="M0.137,-0.623C0.176,-0.623 0.209,-0.655 0.209,-0.695C0.209,-0.734 0.176,-0.767 0.137,-0.767C0.097,-0.767 0.064,-0.734 0.064,-0.695C0.064,-0.655 0.097,-0.623 0.137,-0.623ZM0.076,-0L0.197,-0L0.197,-0.534L0.076,-0.534L0.076,-0Z" style="fill:rgb(35,40,46);fill-rule:nonzero;"/>
                </g>
                <g transform="matrix(48,0,0,48,1404.65,1669.18)">
                    <rect x="0.079" y="-0.74" width="0.122" height="0.74" style="fill:rgb(35,40,46);fill-rule:nonzero;"/>
                </g>
                <g transform="matrix(48,0,0,48,1418.08,1669.18)">
                    <path d="M0.137,-0.623C0.176,-0.623 0.209,-0.655 0.209,-0.695C0.209,-0.734 0.176,-0.767 0.137,-0.767C0.097,-0.767 0.064,-0.734 0.064,-0.695C0.064,-0.655 0.097,-0.623 0.137,-0.623ZM0.076,-0L0.197,-0L0.197,-0.534L0.076,-0.534L0.076,-0Z" style="fill:rgb(35,40,46);fill-rule:nonzero;"/>
                </g>
                <g transform="matrix(48,0,0,48,1431.16,1669.18)">
                    <path d="M0.284,0.002C0.308,0.002 0.33,0 0.348,-0.003L0.348,-0.097C0.333,-0.095 0.324,-0.095 0.307,-0.095C0.256,-0.095 0.235,-0.117 0.235,-0.17L0.235,-0.439L0.348,-0.439L0.348,-0.534L0.235,-0.534L0.235,-0.665L0.111,-0.665L0.111,-0.534L0.028,-0.534L0.028,-0.439L0.111,-0.439L0.111,-0.142C0.111,-0.039 0.162,0.002 0.284,0.002Z" style="fill:rgb(35,40,46);fill-rule:nonzero;"/>
                </g>
                <g transform="matrix(48,0,0,48,1450.1,1669.18)">
                    <path d="M0.137,-0.623C0.176,-0.623 0.209,-0.655 0.209,-0.695C0.209,-0.734 0.176,-0.767 0.137,-0.767C0.097,-0.767 0.064,-0.734 0.064,-0.695C0.064,-0.655 0.097,-0.623 0.137,-0.623ZM0.076,-0L0.197,-0L0.197,-0.534L0.076,-0.534L0.076,-0Z" style="fill:rgb(35,40,46);fill-rule:nonzero;"/>
                </g>
                <g transform="matrix(48,0,0,48,1463.17,1669.18)">
                    <path d="M0.303,0.011C0.448,0.011 0.519,-0.073 0.536,-0.142L0.538,-0.146L0.422,-0.146L0.42,-0.143C0.409,-0.118 0.371,-0.085 0.305,-0.085C0.223,-0.085 0.171,-0.141 0.169,-0.236L0.542,-0.236L0.542,-0.276C0.542,-0.438 0.449,-0.544 0.297,-0.544C0.145,-0.544 0.048,-0.434 0.048,-0.266L0.048,-0.266C0.048,-0.096 0.144,0.011 0.303,0.011ZM0.298,-0.449C0.366,-0.449 0.416,-0.405 0.424,-0.318L0.17,-0.318C0.18,-0.403 0.23,-0.449 0.298,-0.449Z" style="fill:rgb(35,40,46);fill-rule:nonzero;"/>
                </g>
                <g transform="matrix(48,0,0,48,1491.49,1669.18)">
                    <path d="M0.276,0.011C0.407,0.011 0.502,-0.057 0.502,-0.159L0.502,-0.16C0.502,-0.237 0.453,-0.282 0.349,-0.305L0.262,-0.324C0.205,-0.337 0.182,-0.356 0.182,-0.388L0.182,-0.388C0.182,-0.428 0.221,-0.455 0.275,-0.455C0.333,-0.455 0.368,-0.427 0.376,-0.394L0.377,-0.392L0.491,-0.392L0.491,-0.393C0.483,-0.479 0.406,-0.544 0.276,-0.544C0.15,-0.544 0.062,-0.478 0.062,-0.381L0.062,-0.381C0.062,-0.302 0.11,-0.254 0.212,-0.232L0.298,-0.212C0.357,-0.199 0.38,-0.179 0.38,-0.147L0.38,-0.146C0.38,-0.106 0.338,-0.079 0.278,-0.079C0.217,-0.079 0.182,-0.105 0.169,-0.142L0.168,-0.143L0.048,-0.143L0.048,-0.142C0.058,-0.052 0.14,0.011 0.276,0.011Z" style="fill:rgb(35,40,46);fill-rule:nonzero;"/>
                </g>
            </g>
            <g transform="matrix(-2.1763,-4.11204e-16,2.18757e-16,-2.75599,1278.99,4647.12)">
                <g transform="matrix(-0.297819,4.44358e-17,-3.64724e-17,-0.362846,544.046,1522.75)">
                    <path d="M99.337,70.911L75.337,88.911L99.337,106.911L99.337,70.911Z" style="fill:rgb(3,105,161);"/>
                    <path d="M1143.59,70.911L1167.59,88.911L1143.59,106.911L1143.59,70.911Z" style="fill:rgb(3,105,161);"/>
                    <path d="M94.537,88.911L1148.39,88.911" style="fill:none;stroke:rgb(3,105,161);stroke-width:4px;"/>
                </g>
            </g>
            <g transform="matrix(-2.1763,-4.11204e-16,2.18757e-16,-2.75599,1317.88,4707.12)">
                <g transform="matrix(-0.297819,4.44358e-17,-3.64724e-17,-0.362846,561.915,1544.52)">
                    <path d="M1230.06,178.809L1227.59,148.911L1199.58,159.658L1230.06,178.809Z" style="fill:rgb(3,105,161);"/>
                    <path d="M709.471,1007.47L681.462,1018.21L678.987,988.314L709.471,1007.47Z" style="fill:rgb(3,105,161);"/>
                    <path d="M1217.37,165.169C1149.13,273.799 759.921,893.324 691.675,1001.95" style="fill:none;stroke:rgb(3,105,161);stroke-width:4px;"/>
                </g>
            </g>
            <g transform="matrix(-2.1763,-4.11204e-16,2.18757e-16,-2.75599,1240.1,4707.12)">
                <g transform="matrix(-0.297819,4.44358e-17,-3.64724e-17,-0.362846,526.176,1544.52)">
                    <path d="M533.453,1007.47L561.462,1018.21L563.936,988.314L533.453,1007.47Z" style="fill:rgb(3,105,161);"/>
                    <path d="M12.862,178.809L15.337,148.911L43.346,159.658L12.862,178.809Z" style="fill:rgb(3,105,161);"/>
                    <path d="M551.248,1001.95C483.002,893.324 93.796,273.799 25.551,165.169" style="fill:none;stroke:rgb(3,105,161);stroke-width:4px;"/>
                </g>
            </g>
            <g>
                <g transform="matrix(-0.681227,-1.28715e-16,6.63974e-17,-0.836503,1007.03,1890.25)">
                    <path d="M1267.16,1555.16L227.957,1555.16L302.186,1406.71L1192.94,1406.71L1267.16,1555.16Z" style="fill:rgb(125,211,252);"/>
                </g>
                <g transform="matrix(-0.681227,-1.28715e-16,6.63974e-17,-0.836503,1007.03,1890.25)">
                    <path d="M450.644,1109.79L524.873,961.332L970.249,961.332L1044.48,1109.79L450.644,1109.79Z" style="fill:rgb(2,132,199);"/>
                </g>
                <g transform="matrix(-0.681227,-1.28715e-16,6.63974e-17,-0.836503,1007.03,1890.25)">
                    <path d="M524.873,961.332L599.103,812.873L896.019,812.873L970.249,961.332L524.873,961.332Z" style="fill:rgb(3,105,161);"/>
                </g>
                <g transform="matrix(-0.681227,-1.28715e-16,6.63974e-17,-0.836503,1007.03,1890.25)">
                    <path d="M599.103,812.873L673.332,664.415L821.79,664.415L896.019,812.873L599.103,812.873Z" style="fill:rgb(7,89,133);"/>
                </g>
                <g transform="matrix(-0.681227,-1.28715e-16,6.63974e-17,-0.836503,1007.03,1890.25)">
                    <path d="M673.332,664.415L747.561,515.957L821.79,664.415L673.332,664.415Z" style="fill:rgb(12,74,110);"/>
                </g>
                <g transform="matrix(-0.681227,-1.28715e-16,6.63974e-17,-0.836503,1007.03,1890.25)">
                    <path d="M302.186,1406.71L1192.94,1406.71L1118.71,1258.25L376.415,1258.25L302.186,1406.71Z" style="fill:rgb(56,189,248);"/>
                </g>
                <g transform="matrix(-0.681227,-1.28715e-16,6.63974e-17,-0.836503,1007.03,1890.25)">
                    <path d="M376.415,1258.25L450.644,1109.79L1044.48,1109.79L1118.71,1258.25L376.415,1258.25Z" style="fill:rgb(14,165,233);"/>
                </g>
            </g>
        </g>
    </g>
</svg>
