<svg width="100%" height="100%" viewBox="0 0 2077 1606" version="1.1" xmlns="http://www.w3.org/2000/svg" xmlns:xlink="http://www.w3.org/1999/xlink" xml:space="preserve" xmlns:serif="http://www.serif.com/" style="fill:currentColor;fill-rule:evenodd;clip-rule:evenodd;stroke-linecap:round;stroke-linejoin:round;stroke-miterlimit:1.5;"><rect id="template-columns-rows-01" x="0" y="0" width="2076.78" height="1605.51" style="fill:none;"/><clipPath id="_clip1_tcr01"><rect x="0" y="0" width="2076.78" height="1605.51"/></clipPath><g clip-path="url(#_clip1_tcr01)"><g><path d="M1880.12,138.65l0,1217.27c0,21.441 -17.407,38.849 -38.849,38.849l-1612.06,-0c-21.442,-0 -38.849,-17.408 -38.849,-38.849l-0,-1217.27c-0,-21.441 17.407,-38.848 38.849,-38.848l1612.06,-0c21.442,-0 38.849,17.407 38.849,38.848Z" style="fill:none;stroke:currentColor;stroke-width:12.5px;"/><path d="M1035.24,1394.76l-0,-1294.96" style="fill:none;stroke:currentColor;stroke-width:12.5px;"/><path d="M620.13,99.802l-0,1294.96" style="fill:none;stroke:currentColor;stroke-width:12.5px;"/><path d="M386.123,99.802l0,1294.96" style="fill:none;stroke:currentColor;stroke-width:12.5px;"/><path d="M1450.35,1394.76l0,-1294.96" style="fill:none;stroke:currentColor;stroke-width:12.5px;"/><path d="M1684.35,1394.76l-0,-1294.96" style="fill:none;stroke:currentColor;stroke-width:12.5px;"/><path d="M190.359,377.932l1689.76,-0" style="fill:none;stroke:currentColor;stroke-width:11.25px;"/><path d="M190.359,844.541l1689.76,-0" style="fill:none;stroke:currentColor;stroke-width:11.25px;"/><g transform="matrix(54.1667,0,0,54.1667,353.982,40.5507)"></g><text x="223.538px" y="40.551px" style="font-family:DejaVu Sans Mono,
    ui-monospace, monospace;font-size:54.167px;">40px</text><g transform="matrix(54.1667,0,0,54.1667,137.449,279.298)"></g><text x="39.616px" y="279.298px" style="font-family:DejaVu Sans Mono,
    ui-monospace, monospace;font-size:54.167px;">25%</text><g transform="matrix(54.1667,0,0,54.1667,165.565,628.775)"></g><text x="2.509px" y="628.775px" style="font-family:DejaVu Sans Mono,
    ui-monospace, monospace;font-size:54.167px;">100px</text><g transform="matrix(54.1667,0,0,54.1667,129.661,1133.43)"></g><text x="-0.784px" y="1133.43px" style="font-family:DejaVu Sans Mono,
    ui-monospace, monospace;font-size:54.167px;">auto</text><g transform="matrix(54.1667,0,0,54.1667,242.648,1527.04)"></g><text x="144.815px" y="1527.04px" style="font-family:DejaVu Sans Mono,
    ui-monospace, monospace;font-size:54.167px;">[1]</text><g transform="matrix(54.1667,0,0,54.1667,436.495,1527.04)"></g><text x="338.662px" y="1527.04px" style="font-family:DejaVu Sans Mono,
    ui-monospace, monospace;font-size:54.167px;">[2]</text><g transform="matrix(54.1667,0,0,54.1667,673.333,1527.04)"></g><text x="575.5px" y="1527.04px" style="font-family:DejaVu Sans Mono,
    ui-monospace, monospace;font-size:54.167px;">[3]</text><g transform="matrix(54.1667,0,0,54.1667,1498.42,1527.04)"></g><text x="1400.59px" y="1527.04px" style="font-family:DejaVu Sans Mono,
    ui-monospace, monospace;font-size:54.167px;">[4]</text><g transform="matrix(54.1667,0,0,54.1667,1735.26,1527.04)"></g><text x="1637.42px" y="1527.04px" style="font-family:DejaVu Sans Mono,
    ui-monospace, monospace;font-size:54.167px;">[5]</text><g transform="matrix(54.1667,0,0,54.1667,1921.26,1527.04)"></g><text x="1823.42px" y="1527.04px" style="font-family:DejaVu Sans Mono,
    ui-monospace, monospace;font-size:54.167px;">[6]</text><g transform="matrix(54.1667,0,0,54.1667,2046.62,1363.2)"></g><text x="1948.79px" y="1363.2px" style="font-family:DejaVu Sans Mono,
    ui-monospace, monospace;font-size:54.167px;">[4]</text><g transform="matrix(54.1667,0,0,54.1667,2046.62,825.583)"></g><text x="1948.79px" y="825.583px" style="font-family:DejaVu Sans Mono,
    ui-monospace, monospace;font-size:54.167px;">[3]</text><g transform="matrix(54.1667,0,0,54.1667,2046.62,359.647)"></g><text x="1948.79px" y="359.647px" style="font-family:DejaVu Sans Mono,
    ui-monospace, monospace;font-size:54.167px;">[2]</text><g transform="matrix(54.1667,0,0,54.1667,2046.62,92.9717)"></g><text x="1948.79px" y="92.972px" style="font-family:DejaVu Sans Mono,
    ui-monospace, monospace;font-size:54.167px;">[1]</text><g transform="matrix(54.1667,0,0,54.1667,258.953,1598.72)"></g><text x="128.509px" y="1598.72px" style="font-family:DejaVu Sans Mono,
    ui-monospace, monospace;font-size:54.167px;">[-6]</text><g transform="matrix(54.1667,0,0,54.1667,452.801,1598.72)"></g><text x="322.356px" y="1598.72px" style="font-family:DejaVu Sans Mono,
    ui-monospace, monospace;font-size:54.167px;">[-5]</text><g transform="matrix(54.1667,0,0,54.1667,689.639,1598.72)"></g><text x="559.195px" y="1598.72px" style="font-family:DejaVu Sans Mono,
    ui-monospace, monospace;font-size:54.167px;">[-4]</text><g transform="matrix(54.1667,0,0,54.1667,1514.73,1598.72)"></g><text x="1384.28px" y="1598.72px" style="font-family:DejaVu Sans Mono,
    ui-monospace, monospace;font-size:54.167px;">[-3]</text><g transform="matrix(54.1667,0,0,54.1667,1751.56,1598.72)"></g><text x="1621.12px" y="1598.72px" style="font-family:DejaVu Sans Mono,
    ui-monospace, monospace;font-size:54.167px;">[-2]</text><g transform="matrix(54.1667,0,0,54.1667,1937.56,1598.72)"></g><text x="1807.12px" y="1598.72px" style="font-family:DejaVu Sans Mono,
    ui-monospace, monospace;font-size:54.167px;">[-1]</text><g transform="matrix(54.1667,0,0,54.1667,2062.93,1434.88)"></g><text x="1932.48px" y="1434.88px" style="font-family:DejaVu Sans Mono,
    ui-monospace, monospace;font-size:54.167px;">[-1]</text><g transform="matrix(54.1667,0,0,54.1667,2062.93,897.264)"></g><text x="1932.48px" y="897.264px" style="font-family:DejaVu Sans Mono,
    ui-monospace, monospace;font-size:54.167px;">[-2]</text><g transform="matrix(54.1667,0,0,54.1667,2062.93,431.327)"></g><text x="1932.48px" y="431.327px" style="font-family:DejaVu Sans Mono,
    ui-monospace, monospace;font-size:54.167px;">[-3]</text><path d="M357.649,26.106l16.392,0l-0,51.469" style="fill:none;stroke:currentColor;stroke-width:4.17px;stroke-dasharray:20.83,12.5,0,0,0,0;"/><path d="M1848.2,26.652l16.391,0l0,51.469" style="fill:none;stroke:currentColor;stroke-width:4.17px;stroke-dasharray:20.83,12.5,0,0,0,0;"/><path d="M580.085,26.106l29.887,0l0,51.469" style="fill:none;stroke:currentColor;stroke-width:4.17px;stroke-dasharray:20.83,12.5,0,0,0,0;"/><path d="M1644.01,26.106l29.887,0l0,51.469" style="fill:none;stroke:currentColor;stroke-width:4.17px;stroke-dasharray:20.83,12.5,0,0,0,0;"/><path d="M1121.75,26.106l314.767,0l0,51.469" style="fill:none;stroke:currentColor;stroke-width:4.17px;stroke-dasharray:20.83,12.5,0,0,0,0;"/><path d="M170.833,366.788l-89.1,-0l0,-57.23" style="fill:none;stroke:currentColor;stroke-width:4.17px;stroke-dasharray:20.83,12.5,0,0,0,0;"/><path d="M170.833,832.724l-89.1,0l0,-163.847" style="fill:none;stroke:currentColor;stroke-width:4.17px;stroke-dasharray:20.83,12.5,0,0,0,0;"/><path d="M170.833,1385.93l-89.1,0l0,-210.932" style="fill:none;stroke:currentColor;stroke-width:4.17px;stroke-dasharray:20.83,12.5,0,0,0,0;"/><path d="M81.733,209.604l0,-90.822l89.1,0" style="fill:none;stroke:currentColor;stroke-width:4.17px;stroke-dasharray:20.83,12.5,0,0,0,0;"/><path d="M81.733,565.188l0,-169.565l89.1,-0" style="fill:none;stroke:currentColor;stroke-width:4.17px;stroke-dasharray:20.83,12.5,0,0,0,0;"/><path d="M81.733,1072.02l0,-208.597l89.1,-0" style="fill:none;stroke:currentColor;stroke-width:4.17px;stroke-dasharray:20.83,12.5,0,0,0,0;"/><path d="M204.167,77.029l-0,-51.469l16.391,0" style="fill:none;stroke:currentColor;stroke-width:4.17px;stroke-dasharray:20.83,12.5,0,0,0,0;"/><path d="M1694.71,77.575l0,-51.469l16.392,0" style="fill:none;stroke:currentColor;stroke-width:4.17px;stroke-dasharray:20.83,12.5,0,0,0,0;"/><path d="M394.86,77.029l0,-51.469l16.392,0" style="fill:none;stroke:currentColor;stroke-width:4.17px;stroke-dasharray:20.83,12.5,0,0,0,0;"/><path d="M1458.78,77.029l-0,-51.469l16.391,0" style="fill:none;stroke:currentColor;stroke-width:4.17px;stroke-dasharray:20.83,12.5,0,0,0,0;"/><path d="M633.542,77.029l0,-51.469l327.213,0" style="fill:none;stroke:currentColor;stroke-width:4.17px;stroke-dasharray:20.83,12.5,0,0,0,0;"/><g transform="matrix(54.1667,0,0,54.1667,2062.93,164.652)"></g><text x="1932.48px" y="164.652px" style="font-family:DejaVu Sans Mono,
    ui-monospace, monospace;font-size:54.167px;">[-4]</text><g transform="matrix(54.1667,0,0,54.1667,1845.34,40.5507)"></g><text x="1714.89px" y="40.551px" style="font-family:DejaVu Sans Mono,
    ui-monospace, monospace;font-size:54.167px;">40px</text><g transform="matrix(54.1667,0,0,54.1667,569.094,40.5507)"></g><text x="438.649px" y="40.551px" style="font-family:DejaVu Sans Mono,
    ui-monospace, monospace;font-size:54.167px;">50px</text><g transform="matrix(54.1667,0,0,54.1667,1629.14,40.5507)"></g><text x="1498.7px" y="40.551px" style="font-family:DejaVu Sans Mono,
    ui-monospace, monospace;font-size:54.167px;">50px</text><g transform="matrix(54.1667,0,0,54.1667,1108.5,40.5507)"></g><text x="978.057px" y="40.551px" style="font-family:DejaVu Sans Mono,
    ui-monospace, monospace;font-size:54.167px;">auto</text><path d="M1887.5,112.5l57.229,-0" style="fill:none;stroke:currentColor;stroke-width:4.17px;stroke-dasharray:20.83,12.5,0,0,0,0;"/><path d="M1887.5,378.917l57.229,0" style="fill:none;stroke:currentColor;stroke-width:4.17px;stroke-dasharray:20.83,12.5,0,0,0,0;"/><path d="M1887.5,845.341l57.229,0" style="fill:none;stroke:currentColor;stroke-width:4.17px;stroke-dasharray:20.83,12.5,0,0,0,0;"/><path d="M1887.5,1384.26l57.229,-0" style="fill:none;stroke:currentColor;stroke-width:4.17px;stroke-dasharray:20.83,12.5,0,0,0,0;"/><path d="M1872.34,1411.71l-0,57.229" style="fill:none;stroke:currentColor;stroke-width:4.17px;stroke-dasharray:20.83,12.5,0,0,0,0;"/><path d="M1685.25,1411.71l-0,57.229" style="fill:none;stroke:currentColor;stroke-width:4.17px;stroke-dasharray:20.83,12.5,0,0,0,0;"/><path d="M1450.97,1411.71l0,57.229" style="fill:none;stroke:currentColor;stroke-width:4.17px;stroke-dasharray:20.83,12.5,0,0,0,0;"/><path d="M620.13,1411.71l-0,57.229" style="fill:none;stroke:currentColor;stroke-width:4.17px;stroke-dasharray:20.83,12.5,0,0,0,0;"/><path d="M385.85,1411.71l0,57.229" style="fill:none;stroke:currentColor;stroke-width:4.17px;stroke-dasharray:20.83,12.5,0,0,0,0;"/><path d="M193.731,1411.71l0,57.229" style="fill:none;stroke:currentColor;stroke-width:4.17px;stroke-dasharray:20.83,12.5,0,0,0,0;"/></g></g></svg>