<svg width="100%" height="100%" viewBox="0 0 2319 1534" version="1.1" xmlns="http://www.w3.org/2000/svg" xmlns:xlink="http://www.w3.org/1999/xlink" xml:space="preserve" xmlns:serif="http://www.serif.com/" style="fill:currentColor;fill-rule:evenodd;clip-rule:evenodd;stroke-linecap:round;stroke-linejoin:round;stroke-miterlimit:1.5;"><rect id="template-columns-rows-02" x="0" y="0" width="2318.92" height="1533.83" style="fill:none;"/><clipPath id="_clip1_tcr02"><rect x="0" y="0" width="2318.92" height="1533.83"/></clipPath><g clip-path="url(#_clip1_tcr02)"><g><path d="M1877.38,142.468l0,1217.27c0,21.441 -17.407,38.848 -38.849,38.848l-1612.06,0c-21.442,0 -38.849,-17.407 -38.849,-38.848l-0,-1217.27c-0,-21.441 17.407,-38.849 38.849,-38.849l1612.06,0c21.442,0 38.849,17.408 38.849,38.849Z" style="fill:none;stroke:currentColor;stroke-width:12.5px;"/><path d="M1032.5,1398.58l-0,-1294.96" style="fill:none;stroke:currentColor;stroke-width:12.5px;"/><path d="M617.396,103.619l-0,1294.96" style="fill:none;stroke:currentColor;stroke-width:12.5px;"/><path d="M383.389,103.619l0,1294.96" style="fill:none;stroke:currentColor;stroke-width:12.5px;"/><path d="M1447.61,1398.58l0,-1294.96" style="fill:none;stroke:currentColor;stroke-width:12.5px;"/><path d="M1681.62,1398.58l-0,-1294.96" style="fill:none;stroke:currentColor;stroke-width:12.5px;"/><path d="M187.625,381.75l1689.76,-0" style="fill:none;stroke:currentColor;stroke-width:11.25px;"/><path d="M187.625,848.358l1689.76,0" style="fill:none;stroke:currentColor;stroke-width:11.25px;"/><g transform="matrix(54.1667,0,0,54.1667,351.248,44.3685)"></g><text x="220.804px" y="44.368px" style="font-family:DejaVu Sans Mono,
    ui-monospace, monospace; font-size:54.167px;">40px</text><g transform="matrix(54.1667,0,0,54.1667,134.715,283.116)"></g><text x="36.882px" y="283.116px" style="font-family:DejaVu Sans Mono,
    ui-monospace, monospace; font-size:54.167px;">25%</text><g transform="matrix(54.1667,0,0,54.1667,162.831,632.593)"></g><text x="-0.225px" y="632.593px" style="font-family:DejaVu Sans Mono,
    ui-monospace, monospace; font-size:54.167px;">100px</text><g transform="matrix(54.1667,0,0,54.1667,126.927,1137.25)"></g><text x="-3.518px" y="1137.25px" style="font-family:DejaVu Sans Mono,
    ui-monospace, monospace; font-size:54.167px;">auto</text><g transform="matrix(0.88,0,0,1,-0.465365,-2.84217e-14)"><g transform="matrix(54.1667,0,0,54.1667,152.349,1530.86)"></g><g transform="matrix(54.1667,0,0,54.1667,168.654,1530.86)"></g><g transform="matrix(54.1667,0,0,54.1667,315.404,1530.86)"></g><text x="119.738px" y="1530.86px" style="font-family:DejaVu Sans Mono,
    ui-monospace, monospace; font-size:54.167px;">[ﬁrst]</text></g><g transform="matrix(0.88,0,0,1,22.5897,-2.84217e-14)"><g transform="matrix(54.1667,0,0,54.1667,525.792,1530.86)"></g><text x="297.515px" y="1530.86px" style="font-family:DejaVu Sans Mono,
    ui-monospace, monospace; font-size:54.167px;">[line2]</text></g><g transform="matrix(0.88,0,0,1,51.0103,-2.84217e-14)"><g transform="matrix(54.1667,0,0,54.1667,762.63,1530.86)"></g><text x="534.353px" y="1530.86px" style="font-family:DejaVu Sans Mono,
    ui-monospace, monospace; font-size:54.167px;">[line3]</text></g><g transform="matrix(0.88,0,0,1,148.988,-2.84217e-14)"><g transform="matrix(54.1667,0,0,54.1667,1670.42,1530.86)"></g><text x="1279.09px" y="1530.86px" style="font-family:DejaVu Sans Mono,
    ui-monospace, monospace; font-size:54.167px;">[col4-start]</text></g><g transform="matrix(0.88,0,0,1,178.855,-2.84217e-14)"><g transform="matrix(54.1667,0,0,54.1667,1661.03,1530.86)"></g><g transform="matrix(54.1667,0,0,54.1667,1677.34,1530.86)"></g><g transform="matrix(54.1667,0,0,54.1667,1791.47,1530.86)"></g><text x="1628.42px" y="1530.86px" style="font-family:DejaVu Sans Mono,
    ui-monospace, monospace; font-size:54.167px;">[ﬁve]</text></g><g transform="matrix(0.88,0,0,1,201.174,-2.84217e-14)"><g transform="matrix(54.1667,0,0,54.1667,1977.47,1530.86)"></g><text x="1814.42px" y="1530.86px" style="font-family:DejaVu Sans Mono,
    ui-monospace, monospace; font-size:54.167px;">[end]</text></g><g transform="matrix(0.88,0,0,1,249.208,0)"><g transform="matrix(54.1667,0,0,54.1667,2335.36,133.324)"></g><text x="1944.03px" y="133.324px" style="font-family:DejaVu Sans Mono,
    ui-monospace, monospace; font-size:54.167px;">[row1-start]</text></g><g transform="matrix(0.88,0,0,1,249.208,0)"><g transform="matrix(54.1667,0,0,54.1667,2270.14,396.085)"></g><text x="1944.03px" y="396.085px" style="font-family:DejaVu Sans Mono,
    ui-monospace, monospace; font-size:54.167px;">[row1-end]</text></g><g transform="matrix(0.88,0,0,1,249.208,0)"><g transform="matrix(54.1667,0,0,54.1667,2335.36,869.966)"></g><text x="1944.03px" y="869.966px" style="font-family:DejaVu Sans Mono,
    ui-monospace, monospace; font-size:54.167px;">[third-line]</text></g><g transform="matrix(0.88,0,0,1,249.208,0)"><g transform="matrix(54.1667,0,0,54.1667,2302.75,1407.16)"></g><text x="1944.03px" y="1407.16px" style="font-family:DejaVu Sans Mono,
    ui-monospace, monospace; font-size:54.167px;">[last-line]</text></g><path d="M354.915,29.924l16.392,-0l-0,51.469" style="fill:none;stroke:currentColor;stroke-width:4.17px;stroke-dasharray:20.83,12.5,0,0,0,0;"/><path d="M1845.46,30.47l16.391,0l0,51.469" style="fill:none;stroke:currentColor;stroke-width:4.17px;stroke-dasharray:20.83,12.5,0,0,0,0;"/><path d="M577.351,29.924l29.887,-0l0,51.469" style="fill:none;stroke:currentColor;stroke-width:4.17px;stroke-dasharray:20.83,12.5,0,0,0,0;"/><path d="M1641.27,29.924l29.887,-0l0,51.469" style="fill:none;stroke:currentColor;stroke-width:4.17px;stroke-dasharray:20.83,12.5,0,0,0,0;"/><path d="M1119.02,29.924l314.767,-0l0,51.469" style="fill:none;stroke:currentColor;stroke-width:4.17px;stroke-dasharray:20.83,12.5,0,0,0,0;"/><path d="M168.099,370.606l-89.1,-0l0,-57.23" style="fill:none;stroke:currentColor;stroke-width:4.17px;stroke-dasharray:20.83,12.5,0,0,0,0;"/><path d="M168.099,836.542l-89.1,0l0,-163.847" style="fill:none;stroke:currentColor;stroke-width:4.17px;stroke-dasharray:20.83,12.5,0,0,0,0;"/><path d="M168.099,1389.75l-89.1,-0l0,-210.932" style="fill:none;stroke:currentColor;stroke-width:4.17px;stroke-dasharray:20.83,12.5,0,0,0,0;"/><path d="M78.999,213.421l0,-90.821l89.1,-0" style="fill:none;stroke:currentColor;stroke-width:4.17px;stroke-dasharray:20.83,12.5,0,0,0,0;"/><path d="M78.999,569.006l0,-169.565l89.1,-0" style="fill:none;stroke:currentColor;stroke-width:4.17px;stroke-dasharray:20.83,12.5,0,0,0,0;"/><path d="M78.999,1075.83l0,-208.597l89.1,-0" style="fill:none;stroke:currentColor;stroke-width:4.17px;stroke-dasharray:20.83,12.5,0,0,0,0;"/><path d="M201.433,80.847l-0,-51.469l16.391,-0" style="fill:none;stroke:currentColor;stroke-width:4.17px;stroke-dasharray:20.83,12.5,0,0,0,0;"/><path d="M1691.98,81.393l0,-51.469l16.392,-0" style="fill:none;stroke:currentColor;stroke-width:4.17px;stroke-dasharray:20.83,12.5,0,0,0,0;"/><path d="M392.126,80.847l0,-51.469l16.392,-0" style="fill:none;stroke:currentColor;stroke-width:4.17px;stroke-dasharray:20.83,12.5,0,0,0,0;"/><path d="M1456.05,80.847l-0,-51.469l16.391,-0" style="fill:none;stroke:currentColor;stroke-width:4.17px;stroke-dasharray:20.83,12.5,0,0,0,0;"/><path d="M630.808,80.847l0,-51.469l327.213,-0" style="fill:none;stroke:currentColor;stroke-width:4.17px;stroke-dasharray:20.83,12.5,0,0,0,0;"/><g transform="matrix(54.1667,0,0,54.1667,1842.6,44.3685)"></g><text x="1712.16px" y="44.368px" style="font-family:DejaVu Sans Mono,
    ui-monospace, monospace; font-size:54.167px;">40px</text><g transform="matrix(54.1667,0,0,54.1667,566.36,44.3685)"></g><text x="435.915px" y="44.368px" style="font-family:DejaVu Sans Mono,
    ui-monospace, monospace; font-size:54.167px;">50px</text><g transform="matrix(54.1667,0,0,54.1667,1626.41,44.3685)"></g><text x="1495.96px" y="44.368px" style="font-family:DejaVu Sans Mono,
    ui-monospace, monospace; font-size:54.167px;">50px</text><g transform="matrix(54.1667,0,0,54.1667,1105.77,44.3685)"></g><text x="975.323px" y="44.368px" style="font-family:DejaVu Sans Mono,
    ui-monospace, monospace; font-size:54.167px;">auto</text><path d="M1884.77,116.318l57.229,-0" style="fill:none;stroke:currentColor;stroke-width:4.17px;stroke-dasharray:20.83,12.5,0,0,0,0;"/><path d="M1884.77,382.735l57.229,0" style="fill:none;stroke:currentColor;stroke-width:4.17px;stroke-dasharray:20.83,12.5,0,0,0,0;"/><path d="M1884.77,849.159l57.229,-0" style="fill:none;stroke:currentColor;stroke-width:4.17px;stroke-dasharray:20.83,12.5,0,0,0,0;"/><path d="M1884.77,1388.08l57.229,0" style="fill:none;stroke:currentColor;stroke-width:4.17px;stroke-dasharray:20.83,12.5,0,0,0,0;"/><path d="M1869.61,1415.53l-0,57.23" style="fill:none;stroke:currentColor;stroke-width:4.17px;stroke-dasharray:20.83,12.5,0,0,0,0;"/><path d="M1682.52,1415.53l-0,57.23" style="fill:none;stroke:currentColor;stroke-width:4.17px;stroke-dasharray:20.83,12.5,0,0,0,0;"/><path d="M1448.24,1415.53l0,57.23" style="fill:none;stroke:currentColor;stroke-width:4.17px;stroke-dasharray:20.83,12.5,0,0,0,0;"/><path d="M617.396,1415.53l-0,57.23" style="fill:none;stroke:currentColor;stroke-width:4.17px;stroke-dasharray:20.83,12.5,0,0,0,0;"/><path d="M383.116,1415.53l0,57.23" style="fill:none;stroke:currentColor;stroke-width:4.17px;stroke-dasharray:20.83,12.5,0,0,0,0;"/><path d="M190.997,1415.53l0,57.23" style="fill:none;stroke:currentColor;stroke-width:4.17px;stroke-dasharray:20.83,12.5,0,0,0,0;"/></g></g></svg>