<svg width="300" height="200" viewBox="0 0 300 200" fill="none" xmlns="http://www.w3.org/2000/svg">
<polygon points="0,0 15,0 0,20" fill="#03679e"/>
<polygon points="15,0 15.3,19.3 0,20" fill="#046498"/>
<polygon points="15,0 30,0 15.3,19.3" fill="#056091"/>
<polygon points="30,0 34.8,23.5 15.3,19.3" fill="#0280c1"/>
<polygon points="30,0 45,0 34.8,23.5" fill="#0387ca"/>
<polygon points="45,0 49.7,17.7 34.8,23.5" fill="#068fd2"/>
<polygon points="45,0 60,0 49.7,17.7" fill="#0da2e5"/>
<polygon points="60,0 62.2,23.7 49.7,17.7" fill="#11a7ea"/>
<polygon points="60,0 75,0 62.2,23.7" fill="#27b4f2"/>
<polygon points="75,0 72,19.8 62.2,23.7" fill="#027fc0"/>
<polygon points="75,0 90,0 72,19.8" fill="#0373ae"/>
<polygon points="90,0 88.2,19.1 72,19.8" fill="#046498"/>
<polygon points="90,0 105,0 88.2,19.1" fill="#046397"/>
<polygon points="105,0 108.6,15.7 88.2,19.1" fill="#036fa9"/>
<polygon points="105,0 120,0 108.6,15.7" fill="#03689f"/>
<polygon points="120,0 125,16.6 108.6,15.7" fill="#0374b1"/>
<polygon points="120,0 135,0 125,16.6" fill="#056193"/>
<polygon points="135,0 135.5,20.7 125,16.6" fill="#04679d"/>
<polygon points="135,0 150,0 135.5,20.7" fill="#0374b1"/>
<polygon points="150,0 153.5,24.3 135.5,20.7" fill="#0284c7"/>
<polygon points="150,0 165,0 153.5,24.3" fill="#027fc0"/>
<polygon points="165,0 163,23.2 153.5,24.3" fill="#0282c3"/>
<polygon points="165,0 180,0 163,23.2" fill="#0da4e8"/>
<polygon points="180,0 180.9,21.8 163,23.2" fill="#29b4f2"/>
<polygon points="180,0 195,0 180.9,21.8" fill="#4cc3f9"/>
<polygon points="195,0 196.2,18.7 180.9,21.8" fill="#11a6ea"/>
<polygon points="195,0 210,0 196.2,18.7" fill="#11a7ea"/>
<polygon points="210,0 205.1,18.6 196.2,18.7" fill="#0ea5e9"/>
<polygon points="210,0 225,0 205.1,18.6" fill="#14a8eb"/>
<polygon points="225,0 223.5,21.5 205.1,18.6" fill="#0c9ee2"/>
<polygon points="225,0 240,0 223.5,21.5" fill="#0da2e6"/>
<polygon points="240,0 235.8,18.1 223.5,21.5" fill="#0da2e6"/>
<polygon points="240,0 255,0 235.8,18.1" fill="#0da2e6"/>
<polygon points="255,0 250.5,22 235.8,18.1" fill="#0283c6"/>
<polygon points="255,0 270,0 250.5,22" fill="#0372ae"/>
<polygon points="270,0 272.4,18.9 250.5,22" fill="#056396"/>
<polygon points="270,0 285,0 272.4,18.9" fill="#0372ad"/>
<polygon points="285,0 281.5,21.6 272.4,18.9" fill="#0371ac"/>
<polygon points="285,0 300,0 281.5,21.6" fill="#0282c4"/>
<polygon points="300,0 300,20 281.5,21.6" fill="#027dbe"/>
<polygon points="0,20 15.3,19.3 0,40" fill="#0a9add"/>
<polygon points="15.3,19.3 18.2,35.5 0,40" fill="#25b2f1"/>
<polygon points="15.3,19.3 34.8,23.5 18.2,35.5" fill="#0ea5e9"/>
<polygon points="34.8,23.5 28.3,38.5 18.2,35.5" fill="#058bce"/>
<polygon points="34.8,23.5 49.7,17.7 28.3,38.5" fill="#0371ac"/>
<polygon points="49.7,17.7 41.1,42.5 28.3,38.5" fill="#036ca5"/>
<polygon points="49.7,17.7 62.2,23.7 41.1,42.5" fill="#068fd2"/>
<polygon points="62.2,23.7 64.7,36.3 41.1,42.5" fill="#058bcf"/>
<polygon points="62.2,23.7 72,19.8 64.7,36.3" fill="#036ea7"/>
<polygon points="72,19.8 72.4,36.3 64.7,36.3" fill="#0372ae"/>
<polygon points="72,19.8 88.2,19.1 72.4,36.3" fill="#0372ad"/>
<polygon points="88.2,19.1 88.3,38.2 72.4,36.3" fill="#0281c3"/>
<polygon points="88.2,19.1 108.6,15.7 88.3,38.2" fill="#0280c1"/>
<polygon points="108.6,15.7 109.3,36.6 88.3,38.2" fill="#0278b6"/>
<polygon points="108.6,15.7 125,16.6 109.3,36.6" fill="#0374b1"/>
<polygon points="125,16.6 124.3,39.8 109.3,36.6" fill="#027ebf"/>
<polygon points="125,16.6 135.5,20.7 124.3,39.8" fill="#0488cb"/>
<polygon points="135.5,20.7 139.6,42.8 124.3,39.8" fill="#027ebf"/>
<polygon points="135.5,20.7 153.5,24.3 139.6,42.8" fill="#036ba4"/>
<polygon points="153.5,24.3 151,35.4 139.6,42.8" fill="#027bbb"/>
<polygon points="153.5,24.3 163,23.2 151,35.4" fill="#0a9bde"/>
<polygon points="163,23.2 163.1,38.4 151,35.4" fill="#0b9cdf"/>
<polygon points="163,23.2 180.9,21.8 163.1,38.4" fill="#0998dc"/>
<polygon points="180.9,21.8 184.2,35.4 163.1,38.4" fill="#0388cb"/>
<polygon points="180.9,21.8 196.2,18.7 184.2,35.4" fill="#0281c3"/>
<polygon points="196.2,18.7 199.1,42 184.2,35.4" fill="#04659a"/>
<polygon points="196.2,18.7 205.1,18.6 199.1,42" fill="#027fc0"/>
<polygon points="205.1,18.6 207.9,41.1 199.1,42" fill="#068fd2"/>
<polygon points="205.1,18.6 223.5,21.5 207.9,41.1" fill="#15a9eb"/>
<polygon points="223.5,21.5 221.3,35.2 207.9,41.1" fill="#068ed1"/>
<polygon points="223.5,21.5 235.8,18.1 221.3,35.2" fill="#0283c5"/>
<polygon points="235.8,18.1 242.8,35.5 221.3,35.2" fill="#027dbd"/>
<polygon points="235.8,18.1 250.5,22 242.8,35.5" fill="#027ebe"/>
<polygon points="250.5,22 258.1,37.1 242.8,35.5" fill="#027dbd"/>
<polygon points="250.5,22 272.4,18.9 258.1,37.1" fill="#036fa9"/>
<polygon points="272.4,18.9 270,41.4 258.1,37.1" fill="#04659a"/>
<polygon points="272.4,18.9 281.5,21.6 270,41.4" fill="#075b88"/>
<polygon points="281.5,21.6 281.1,35.1 270,41.4" fill="#0279b8"/>
<polygon points="281.5,21.6 300,20 281.1,35.1" fill="#0998dc"/>
<polygon points="300,20 300,40 281.1,35.1" fill="#3dbff8"/>
<polygon points="0,40 18.2,35.5 0,60" fill="#67ccfb"/>
<polygon points="18.2,35.5 13.6,63.2 0,60" fill="#0da1e5"/>
<polygon points="18.2,35.5 28.3,38.5 13.6,63.2" fill="#0369a0"/>
<polygon points="28.3,38.5 27.6,61.3 13.6,63.2" fill="#075b88"/>
<polygon points="28.3,38.5 41.1,42.5 27.6,61.3" fill="#036ea8"/>
<polygon points="41.1,42.5 42.4,61 27.6,61.3" fill="#0279b7"/>
<polygon points="41.1,42.5 64.7,36.3 42.4,61" fill="#0374b0"/>
<polygon points="64.7,36.3 64,57 42.4,61" fill="#0376b3"/>
<polygon points="64.7,36.3 72.4,36.3 64,57" fill="#0894d8"/>
<polygon points="72.4,36.3 78.5,59.3 64,57" fill="#0997db"/>
<polygon points="72.4,36.3 88.3,38.2 78.5,59.3" fill="#0285c8"/>
<polygon points="88.3,38.2 90.3,58.7 78.5,59.3" fill="#0386c9"/>
<polygon points="88.3,38.2 109.3,36.6 90.3,58.7" fill="#027bba"/>
<polygon points="109.3,36.6 107.8,58.8 90.3,58.7" fill="#0370ab"/>
<polygon points="109.3,36.6 124.3,39.8 107.8,58.8" fill="#0277b5"/>
<polygon points="124.3,39.8 115.8,55.1 107.8,58.8" fill="#027bba"/>
<polygon points="124.3,39.8 139.6,42.8 115.8,55.1" fill="#0279b7"/>
<polygon points="139.6,42.8 134.4,60.5 115.8,55.1" fill="#046397"/>
<polygon points="139.6,42.8 151,35.4 134.4,60.5" fill="#0375b2"/>
<polygon points="151,35.4 154.1,57.7 134.4,60.5" fill="#036ba4"/>
<polygon points="151,35.4 163.1,38.4 154.1,57.7" fill="#0372ae"/>
<polygon points="163.1,38.4 168.7,57.7 154.1,57.7" fill="#036aa2"/>
<polygon points="163.1,38.4 184.2,35.4 168.7,57.7" fill="#0281c3"/>
<polygon points="184.2,35.4 183.6,55.7 168.7,57.7" fill="#027dbd"/>
<polygon points="184.2,35.4 199.1,42 183.6,55.7" fill="#04669b"/>
<polygon points="199.1,42 192,63.1 183.6,55.7" fill="#065c8a"/>
<polygon points="199.1,42 207.9,41.1 192,63.1" fill="#056396"/>
<polygon points="207.9,41.1 206.2,56.5 192,63.1" fill="#0368a0"/>
<polygon points="207.9,41.1 221.3,35.2 206.2,56.5" fill="#027fc0"/>
<polygon points="221.3,35.2 227.4,63.3 206.2,56.5" fill="#036da6"/>
<polygon points="221.3,35.2 242.8,35.5 227.4,63.3" fill="#0374b1"/>
<polygon points="242.8,35.5 240.7,63.9 227.4,63.3" fill="#0285c8"/>
<polygon points="242.8,35.5 258.1,37.1 240.7,63.9" fill="#068fd2"/>
<polygon points="258.1,37.1 257.6,60.5 240.7,63.9" fill="#0996da"/>
<polygon points="258.1,37.1 270,41.4 257.6,60.5" fill="#0376b4"/>
<polygon points="270,41.4 274.7,62.6 257.6,60.5" fill="#03689f"/>
<polygon points="270,41.4 281.1,35.1 274.7,62.6" fill="#027bba"/>
<polygon points="281.1,35.1 289.4,59.5 274.7,62.6" fill="#0284c7"/>
<polygon points="281.1,35.1 300,40 289.4,59.5" fill="#1eaeef"/>
<polygon points="300,40 300,60 289.4,59.5" fill="#0c9ee2"/>
<polygon points="0,60 13.6,63.2 0,80" fill="#0280c2"/>
<polygon points="13.6,63.2 17.6,79 0,80" fill="#065d8b"/>
<polygon points="13.6,63.2 27.6,61.3 17.6,79" fill="#055f90"/>
<polygon points="27.6,61.3 31.5,82.1 17.6,79" fill="#04669c"/>
<polygon points="27.6,61.3 42.4,61 31.5,82.1" fill="#03689f"/>
<polygon points="42.4,61 42.5,78.1 31.5,82.1" fill="#046499"/>
<polygon points="42.4,61 64,57 42.5,78.1" fill="#0375b1"/>
<polygon points="64,57 60.8,80 42.5,78.1" fill="#027ab9"/>
<polygon points="64,57 78.5,59.3 60.8,80" fill="#027ebf"/>
<polygon points="78.5,59.3 76.9,80.3 60.8,80" fill="#056295"/>
<polygon points="78.5,59.3 90.3,58.7 76.9,80.3" fill="#0374b1"/>
<polygon points="90.3,58.7 94.5,80 76.9,80.3" fill="#0277b4"/>
<polygon points="90.3,58.7 107.8,58.8 94.5,80" fill="#027ebe"/>
<polygon points="107.8,58.8 109.2,84.3 94.5,80" fill="#04669b"/>
<polygon points="107.8,58.8 115.8,55.1 109.2,84.3" fill="#056091"/>
<polygon points="115.8,55.1 123.9,84.8 109.2,84.3" fill="#04669b"/>
<polygon points="115.8,55.1 134.4,60.5 123.9,84.8" fill="#036ba4"/>
<polygon points="134.4,60.5 131.2,77.9 123.9,84.8" fill="#04659b"/>
<polygon points="134.4,60.5 154.1,57.7 131.2,77.9" fill="#075985"/>
<polygon points="154.1,57.7 152.1,81.1 131.2,77.9" fill="#056193"/>
<polygon points="154.1,57.7 168.7,57.7 152.1,81.1" fill="#0371ac"/>
<polygon points="168.7,57.7 161.8,84.8 152.1,81.1" fill="#0284c7"/>
<polygon points="168.7,57.7 183.6,55.7 161.8,84.8" fill="#0279b7"/>
<polygon points="183.6,55.7 181.8,81.1 161.8,84.8" fill="#036faa"/>
<polygon points="183.6,55.7 192,63.1 181.8,81.1" fill="#046599"/>
<polygon points="192,63.1 198.6,79.6 181.8,81.1" fill="#046397"/>
<polygon points="192,63.1 206.2,56.5 198.6,79.6" fill="#056091"/>
<polygon points="206.2,56.5 209.7,79.5 198.6,79.6" fill="#03689f"/>
<polygon points="206.2,56.5 227.4,63.3 209.7,79.5" fill="#04669b"/>
<polygon points="227.4,63.3 225.3,78.7 209.7,79.5" fill="#027ab9"/>
<polygon points="227.4,63.3 240.7,63.9 225.3,78.7" fill="#0997db"/>
<polygon points="240.7,63.9 237.8,78.9 225.3,78.7" fill="#0285c8"/>
<polygon points="240.7,63.9 257.6,60.5 237.8,78.9" fill="#027cbc"/>
<polygon points="257.6,60.5 256.7,78.2 237.8,78.9" fill="#0282c4"/>
<polygon points="257.6,60.5 274.7,62.6 256.7,78.2" fill="#048acd"/>
<polygon points="274.7,62.6 271.1,79.9 256.7,78.2" fill="#0369a1"/>
<polygon points="274.7,62.6 289.4,59.5 271.1,79.9" fill="#075a87"/>
<polygon points="289.4,59.5 288.9,78.1 271.1,79.9" fill="#056090"/>
<polygon points="289.4,59.5 300,60 288.9,78.1" fill="#027dbd"/>
<polygon points="300,60 300,80 288.9,78.1" fill="#058dd0"/>
<polygon points="0,80 17.6,79 0,100" fill="#0387ca"/>
<polygon points="17.6,79 10.4,102.2 0,100" fill="#0375b2"/>
<polygon points="17.6,79 31.5,82.1 10.4,102.2" fill="#075985"/>
<polygon points="31.5,82.1 34.8,103 10.4,102.2" fill="#0375b1"/>
<polygon points="31.5,82.1 42.5,78.1 34.8,103" fill="#0285c8"/>
<polygon points="42.5,78.1 45.9,96.5 34.8,103" fill="#027ebe"/>
<polygon points="42.5,78.1 60.8,80 45.9,96.5" fill="#046498"/>
<polygon points="60.8,80 56.2,99.3 45.9,96.5" fill="#056295"/>
<polygon points="60.8,80 76.9,80.3 56.2,99.3" fill="#065f8f"/>
<polygon points="76.9,80.3 76.9,99 56.2,99.3" fill="#027dbd"/>
<polygon points="76.9,80.3 94.5,80 76.9,99" fill="#0386c9"/>
<polygon points="94.5,80 93,95.7 76.9,99" fill="#23b1f0"/>
<polygon points="94.5,80 109.2,84.3 93,95.7" fill="#0283c5"/>
<polygon points="109.2,84.3 106,101.7 93,95.7" fill="#068fd3"/>
<polygon points="109.2,84.3 123.9,84.8 106,101.7" fill="#0277b5"/>
<polygon points="123.9,84.8 122.5,96.6 106,101.7" fill="#0791d4"/>
<polygon points="123.9,84.8 131.2,77.9 122.5,96.6" fill="#0372ad"/>
<polygon points="131.2,77.9 140,99.6 122.5,96.6" fill="#0374b1"/>
<polygon points="131.2,77.9 152.1,81.1 140,99.6" fill="#0373b0"/>
<polygon points="152.1,81.1 148.7,98.5 140,99.6" fill="#0283c5"/>
<polygon points="152.1,81.1 161.8,84.8 148.7,98.5" fill="#027ebf"/>
<polygon points="161.8,84.8 160.9,95 148.7,98.5" fill="#027cbc"/>
<polygon points="161.8,84.8 181.8,81.1 160.9,95" fill="#0278b6"/>
<polygon points="181.8,81.1 176.1,97.4 160.9,95" fill="#058bce"/>
<polygon points="181.8,81.1 198.6,79.6 176.1,97.4" fill="#027fbf"/>
<polygon points="198.6,79.6 193.7,98.8 176.1,97.4" fill="#0c9fe3"/>
<polygon points="198.6,79.6 209.7,79.5 193.7,98.8" fill="#048bce"/>
<polygon points="209.7,79.5 211.2,103.4 193.7,98.8" fill="#058dd1"/>
<polygon points="209.7,79.5 225.3,78.7 211.2,103.4" fill="#0280c1"/>
<polygon points="225.3,78.7 220.6,98.2 211.2,103.4" fill="#0376b3"/>
<polygon points="225.3,78.7 237.8,78.9 220.6,98.2" fill="#046499"/>
<polygon points="237.8,78.9 240,101.9 220.6,98.2" fill="#065e8e"/>
<polygon points="237.8,78.9 256.7,78.2 240,101.9" fill="#0280c2"/>
<polygon points="256.7,78.2 252.6,101 240,101.9" fill="#37bcf8"/>
<polygon points="256.7,78.2 271.1,79.9 252.6,101" fill="#0ca0e3"/>
<polygon points="271.1,79.9 272.5,101.2 252.6,101" fill="#036ca5"/>
<polygon points="271.1,79.9 288.9,78.1 272.5,101.2" fill="#09537c"/>
<polygon points="288.9,78.1 286.8,97 272.5,101.2" fill="#0368a0"/>
<polygon points="288.9,78.1 300,80 286.8,97" fill="#068ed1"/>
<polygon points="300,80 300,100 286.8,97" fill="#0282c4"/>
<polygon points="0,100 10.4,102.2 0,120" fill="#0fa6ea"/>
<polygon points="10.4,102.2 14.1,116.5 0,120" fill="#027ebf"/>
<polygon points="10.4,102.2 34.8,103 14.1,116.5" fill="#027ab9"/>
<polygon points="34.8,103 30.2,122.3 14.1,116.5" fill="#0277b5"/>
<polygon points="34.8,103 45.9,96.5 30.2,122.3" fill="#036ca5"/>
<polygon points="45.9,96.5 46.4,123.6 30.2,122.3" fill="#056295"/>
<polygon points="45.9,96.5 56.2,99.3 46.4,123.6" fill="#036ea8"/>
<polygon points="56.2,99.3 60.3,119.6 46.4,123.6" fill="#0387ca"/>
<polygon points="56.2,99.3 76.9,99 60.3,119.6" fill="#0da2e6"/>
<polygon points="76.9,99 72.1,118.2 60.3,119.6" fill="#2fb8f5"/>
<polygon points="76.9,99 93,95.7 72.1,118.2" fill="#3bbef8"/>
<polygon points="93,95.7 94,121.1 72.1,118.2" fill="#0da1e5"/>
<polygon points="93,95.7 106,101.7 94,121.1" fill="#0b9bdf"/>
<polygon points="106,101.7 105.6,116.6 94,121.1" fill="#0b9ee2"/>
<polygon points="106,101.7 122.5,96.6 105.6,116.6" fill="#1aaced"/>
<polygon points="122.5,96.6 116.2,117.7 105.6,116.6" fill="#0386c9"/>
<polygon points="122.5,96.6 140,99.6 116.2,117.7" fill="#0370ac"/>
<polygon points="140,99.6 133.5,118.7 116.2,117.7" fill="#075a87"/>
<polygon points="140,99.6 148.7,98.5 133.5,118.7" fill="#04669b"/>
<polygon points="148.7,98.5 149.2,116.5 133.5,118.7" fill="#03689f"/>
<polygon points="148.7,98.5 160.9,95 149.2,116.5" fill="#0284c7"/>
<polygon points="160.9,95 161.7,120 149.2,116.5" fill="#036ea8"/>
<polygon points="160.9,95 176.1,97.4 161.7,120" fill="#0277b5"/>
<polygon points="176.1,97.4 184,115.4 161.7,120" fill="#0278b6"/>
<polygon points="176.1,97.4 193.7,98.8 184,115.4" fill="#19abed"/>
<polygon points="193.7,98.8 190.4,118.7 184,115.4" fill="#0ea4e8"/>
<polygon points="193.7,98.8 211.2,103.4 190.4,118.7" fill="#0998dc"/>
<polygon points="211.2,103.4 207.7,124.2 190.4,118.7" fill="#0374b0"/>
<polygon points="211.2,103.4 220.6,98.2 207.7,124.2" fill="#046498"/>
<polygon points="220.6,98.2 224.8,120.5 207.7,124.2" fill="#056091"/>
<polygon points="220.6,98.2 240,101.9 224.8,120.5" fill="#04679d"/>
<polygon points="240,101.9 238.1,122.2 224.8,120.5" fill="#0996da"/>
<polygon points="240,101.9 252.6,101 238.1,122.2" fill="#41c0f9"/>
<polygon points="252.6,101 253.4,119.5 238.1,122.2" fill="#31b9f6"/>
<polygon points="252.6,101 272.5,101.2 253.4,119.5" fill="#0283c5"/>
<polygon points="272.5,101.2 265.1,123 253.4,119.5" fill="#0369a0"/>
<polygon points="272.5,101.2 286.8,97 265.1,123" fill="#0376b4"/>
<polygon points="286.8,97 281.7,116.3 265.1,123" fill="#058dd0"/>
<polygon points="286.8,97 300,100 281.7,116.3" fill="#0373af"/>
<polygon points="300,100 300,120 281.7,116.3" fill="#0371ad"/>
<polygon points="0,120 14.1,116.5 0,140" fill="#0da2e6"/>
<polygon points="14.1,116.5 17.1,137.3 0,140" fill="#048acd"/>
<polygon points="14.1,116.5 30.2,122.3 17.1,137.3" fill="#0368a0"/>
<polygon points="30.2,122.3 25.1,135.8 17.1,137.3" fill="#027ebf"/>
<polygon points="30.2,122.3 46.4,123.6 25.1,135.8" fill="#0280c1"/>
<polygon points="46.4,123.6 48.7,136.7 25.1,135.8" fill="#2eb7f4"/>
<polygon points="46.4,123.6 60.3,119.6 48.7,136.7" fill="#1fafef"/>
<polygon points="60.3,119.6 55.7,144 48.7,136.7" fill="#28b4f2"/>
<polygon points="60.3,119.6 72.1,118.2 55.7,144" fill="#15a9ec"/>
<polygon points="72.1,118.2 77.9,144.9 55.7,144" fill="#0284c7"/>
<polygon points="72.1,118.2 94,121.1 77.9,144.9" fill="#0375b1"/>
<polygon points="94,121.1 93.4,138.1 77.9,144.9" fill="#0372ad"/>
<polygon points="94,121.1 105.6,116.6 93.4,138.1" fill="#0ca0e4"/>
<polygon points="105.6,116.6 105.4,139.9 93.4,138.1" fill="#19abed"/>
<polygon points="105.6,116.6 116.2,117.7 105.4,139.9" fill="#0284c7"/>
<polygon points="116.2,117.7 118.2,136.2 105.4,139.9" fill="#046397"/>
<polygon points="116.2,117.7 133.5,118.7 118.2,136.2" fill="#0a5179"/>
<polygon points="133.5,118.7 138.5,141.5 118.2,136.2" fill="#065d8d"/>
<polygon points="133.5,118.7 149.2,116.5 138.5,141.5" fill="#0369a1"/>
<polygon points="149.2,116.5 145.4,144.1 138.5,141.5" fill="#0b9bdf"/>
<polygon points="149.2,116.5 161.7,120 145.4,144.1" fill="#027fc0"/>
<polygon points="161.7,120 165.1,138.9 145.4,144.1" fill="#0277b4"/>
<polygon points="161.7,120 184,115.4 165.1,138.9" fill="#03679e"/>
<polygon points="184,115.4 183.4,135.9 165.1,138.9" fill="#0368a0"/>
<polygon points="184,115.4 190.4,118.7 183.4,135.9" fill="#0372ae"/>
<polygon points="190.4,118.7 194.8,135.8 183.4,135.9" fill="#0375b2"/>
<polygon points="190.4,118.7 207.7,124.2 194.8,135.8" fill="#0280c1"/>
<polygon points="207.7,124.2 207.8,142.2 194.8,135.8" fill="#0b9ee2"/>
<polygon points="207.7,124.2 224.8,120.5 207.8,142.2" fill="#0387ca"/>
<polygon points="224.8,120.5 227.2,140.6 207.8,142.2" fill="#0373b0"/>
<polygon points="224.8,120.5 238.1,122.2 227.2,140.6" fill="#0374b1"/>
<polygon points="238.1,122.2 242.8,144.1 227.2,140.6" fill="#027ebf"/>
<polygon points="238.1,122.2 253.4,119.5 242.8,144.1" fill="#0a99dc"/>
<polygon points="253.4,119.5 255.5,135.1 242.8,144.1" fill="#0376b4"/>
<polygon points="253.4,119.5 265.1,123 255.5,135.1" fill="#027dbd"/>
<polygon points="265.1,123 268.9,144.8 255.5,135.1" fill="#048acd"/>
<polygon points="265.1,123 281.7,116.3 268.9,144.8" fill="#048bce"/>
<polygon points="281.7,116.3 288.6,138.2 268.9,144.8" fill="#0489cc"/>
<polygon points="281.7,116.3 300,120 288.6,138.2" fill="#0489cc"/>
<polygon points="300,120 300,140 288.6,138.2" fill="#0489cc"/>
<polygon points="0,140 17.1,137.3 0,160" fill="#0792d5"/>
<polygon points="17.1,137.3 15.1,156.2 0,160" fill="#0374b0"/>
<polygon points="17.1,137.3 25.1,135.8 15.1,156.2" fill="#0284c6"/>
<polygon points="25.1,135.8 26.9,164.4 15.1,156.2" fill="#0280c2"/>
<polygon points="25.1,135.8 48.7,136.7 26.9,164.4" fill="#26b2f1"/>
<polygon points="48.7,136.7 46,163.8 26.9,164.4" fill="#0c9fe3"/>
<polygon points="48.7,136.7 55.7,144 46,163.8" fill="#17aaec"/>
<polygon points="55.7,144 59.4,158.7 46,163.8" fill="#04679d"/>
<polygon points="55.7,144 77.9,144.9 59.4,158.7" fill="#075b88"/>
<polygon points="77.9,144.9 76,157.7 59.4,158.7" fill="#0b4668"/>
<polygon points="77.9,144.9 93.4,138.1 76,157.7" fill="#046397"/>
<polygon points="93.4,138.1 92.1,155.6 76,157.7" fill="#0792d6"/>
<polygon points="93.4,138.1 105.4,139.9 92.1,155.6" fill="#25b2f1"/>
<polygon points="105.4,139.9 103.5,162.3 92.1,155.6" fill="#2db7f4"/>
<polygon points="105.4,139.9 118.2,136.2 103.5,162.3" fill="#0387ca"/>
<polygon points="118.2,136.2 124.6,158.6 103.5,162.3" fill="#0281c3"/>
<polygon points="118.2,136.2 138.5,141.5 124.6,158.6" fill="#036fa9"/>
<polygon points="138.5,141.5 134,158 124.6,158.6" fill="#0280c2"/>
<polygon points="138.5,141.5 145.4,144.1 134,158" fill="#0a99dd"/>
<polygon points="145.4,144.1 146.4,156.2 134,158" fill="#0997da"/>
<polygon points="145.4,144.1 165.1,138.9 146.4,156.2" fill="#068ed2"/>
<polygon points="165.1,138.9 161.8,156.1 146.4,156.2" fill="#03679e"/>
<polygon points="165.1,138.9 183.4,135.9 161.8,156.1" fill="#065c8a"/>
<polygon points="183.4,135.9 180.8,160.1 161.8,156.1" fill="#065c8a"/>
<polygon points="183.4,135.9 194.8,135.8 180.8,160.1" fill="#036ca5"/>
<polygon points="194.8,135.8 197.3,159.5 180.8,160.1" fill="#027ebf"/>
<polygon points="194.8,135.8 207.8,142.2 197.3,159.5" fill="#12a7ea"/>
<polygon points="207.8,142.2 206.7,159.4 197.3,159.5" fill="#0792d6"/>
<polygon points="207.8,142.2 227.2,140.6 206.7,159.4" fill="#0374b1"/>
<polygon points="227.2,140.6 221.9,161.1 206.7,159.4" fill="#085782"/>
<polygon points="227.2,140.6 242.8,144.1 221.9,161.1" fill="#065c8b"/>
<polygon points="242.8,144.1 235.5,161.4 221.9,161.1" fill="#0373af"/>
<polygon points="242.8,144.1 255.5,135.1 235.5,161.4" fill="#027fc0"/>
<polygon points="255.5,135.1 258.5,157.6 235.5,161.4" fill="#0b9de1"/>
<polygon points="255.5,135.1 268.9,144.8 258.5,157.6" fill="#0da1e5"/>
<polygon points="268.9,144.8 266.2,160.1 258.5,157.6" fill="#0c9fe2"/>
<polygon points="268.9,144.8 288.6,138.2 266.2,160.1" fill="#0285c8"/>
<polygon points="288.6,138.2 290,161 266.2,160.1" fill="#0284c7"/>
<polygon points="288.6,138.2 300,140 290,161" fill="#0387ca"/>
<polygon points="300,140 300,160 290,161" fill="#0489cc"/>
<polygon points="0,160 15.1,156.2 0,180" fill="#0282c4"/>
<polygon points="15.1,156.2 19,182.3 0,180" fill="#0373af"/>
<polygon points="15.1,156.2 26.9,164.4 19,182.3" fill="#046599"/>
<polygon points="26.9,164.4 33.5,178.8 19,182.3" fill="#068fd2"/>
<polygon points="26.9,164.4 46,163.8 33.5,178.8" fill="#0b9cdf"/>
<polygon points="46,163.8 44.3,181.4 33.5,178.8" fill="#0998dc"/>
<polygon points="46,163.8 59.4,158.7 44.3,181.4" fill="#065f8f"/>
<polygon points="59.4,158.7 60.1,183.9 44.3,181.4" fill="#065e8e"/>
<polygon points="59.4,158.7 76,157.7 60.1,183.9" fill="#09537b"/>
<polygon points="76,157.7 75.6,181.8 60.1,183.9" fill="#0370ab"/>
<polygon points="76,157.7 92.1,155.6 75.6,181.8" fill="#068fd2"/>
<polygon points="92.1,155.6 90.7,178 75.6,181.8" fill="#34bbf7"/>
<polygon points="92.1,155.6 103.5,162.3 90.7,178" fill="#46c1f9"/>
<polygon points="103.5,162.3 106.2,175.2 90.7,178" fill="#15a9ec"/>
<polygon points="103.5,162.3 124.6,158.6 106.2,175.2" fill="#0895d9"/>
<polygon points="124.6,158.6 115.7,184.3 106.2,175.2" fill="#027ebf"/>
<polygon points="124.6,158.6 134,158 115.7,184.3" fill="#027fbf"/>
<polygon points="134,158 134.8,180.5 115.7,184.3" fill="#0388cb"/>
<polygon points="134,158 146.4,156.2 134.8,180.5" fill="#0387cb"/>
<polygon points="146.4,156.2 146.3,175.3 134.8,180.5" fill="#1badee"/>
<polygon points="146.4,156.2 161.8,156.1 146.3,175.3" fill="#0690d3"/>
<polygon points="161.8,156.1 163,175.3 146.3,175.3" fill="#058dd0"/>
<polygon points="161.8,156.1 180.8,160.1 163,175.3" fill="#04669c"/>
<polygon points="180.8,160.1 175.8,177.9 163,175.3" fill="#027ab9"/>
<polygon points="180.8,160.1 197.3,159.5 175.8,177.9" fill="#027cbc"/>
<polygon points="197.3,159.5 199.8,183.5 175.8,177.9" fill="#036fa9"/>
<polygon points="197.3,159.5 206.7,159.4 199.8,183.5" fill="#046397"/>
<polygon points="206.7,159.4 206.7,184.1 199.8,183.5" fill="#0278b6"/>
<polygon points="206.7,159.4 221.9,161.1 206.7,184.1" fill="#027ebf"/>
<polygon points="221.9,161.1 222.9,179.5 206.7,184.1" fill="#0279b8"/>
<polygon points="221.9,161.1 235.5,161.4 222.9,179.5" fill="#04679d"/>
<polygon points="235.5,161.4 235.8,178.8 222.9,179.5" fill="#027ab8"/>
<polygon points="235.5,161.4 258.5,157.6 235.8,178.8" fill="#11a7ea"/>
<polygon points="258.5,157.6 255.9,179.9 235.8,178.8" fill="#0b9de1"/>
<polygon points="258.5,157.6 266.2,160.1 255.9,179.9" fill="#0690d4"/>
<polygon points="266.2,160.1 265.2,184.4 255.9,179.9" fill="#04679d"/>
<polygon points="266.2,160.1 290,161 265.2,184.4" fill="#0370ab"/>
<polygon points="290,161 283.4,180.6 265.2,184.4" fill="#0375b3"/>
<polygon points="290,161 300,160 283.4,180.6" fill="#058dd0"/>
<polygon points="300,160 300,180 283.4,180.6" fill="#027bba"/>
<polygon points="0,180 19,182.3 0,200" fill="#0373af"/>
<polygon points="19,182.3 15,200 0,200" fill="#0368a0"/>
<polygon points="19,182.3 33.5,178.8 15,200" fill="#0998db"/>
<polygon points="33.5,178.8 30,200 15,200" fill="#0ea4e8"/>
<polygon points="33.5,178.8 44.3,181.4 30,200" fill="#0997db"/>
<polygon points="44.3,181.4 45,200 30,200" fill="#0282c4"/>
<polygon points="44.3,181.4 60.1,183.9 45,200" fill="#0281c3"/>
<polygon points="60.1,183.9 60,200 45,200" fill="#036da7"/>
<polygon points="60.1,183.9 75.6,181.8 60,200" fill="#0370ab"/>
<polygon points="75.6,181.8 75,200 60,200" fill="#0690d4"/>
<polygon points="75.6,181.8 90.7,178 75,200" fill="#36bcf7"/>
<polygon points="90.7,178 90,200 75,200" fill="#16a9ec"/>
<polygon points="90.7,178 106.2,175.2 90,200" fill="#0388cb"/>
<polygon points="106.2,175.2 105,200 90,200" fill="#027ab8"/>
<polygon points="106.2,175.2 115.7,184.3 105,200" fill="#0282c4"/>
<polygon points="115.7,184.3 120,200 105,200" fill="#058dd0"/>
<polygon points="115.7,184.3 134.8,180.5 120,200" fill="#0792d6"/>
<polygon points="134.8,180.5 135,200 120,200" fill="#0284c6"/>
<polygon points="134.8,180.5 146.3,175.3 135,200" fill="#0da1e5"/>
<polygon points="146.3,175.3 150,200 135,200" fill="#0387ca"/>
<polygon points="146.3,175.3 163,175.3 150,200" fill="#0792d6"/>
<polygon points="163,175.3 165,200 150,200" fill="#056396"/>
<polygon points="163,175.3 175.8,177.9 165,200" fill="#0370ab"/>
<polygon points="175.8,177.9 180,200 165,200" fill="#0386c9"/>
<polygon points="175.8,177.9 199.8,183.5 180,200" fill="#0283c5"/>
<polygon points="199.8,183.5 195,200 180,200" fill="#0998db"/>
<polygon points="199.8,183.5 206.7,184.1 195,200" fill="#0b9de1"/>
<polygon points="206.7,184.1 210,200 195,200" fill="#38bdf8"/>
<polygon points="206.7,184.1 222.9,179.5 210,200" fill="#0997db"/>
<polygon points="222.9,179.5 225,200 210,200" fill="#0895d9"/>
<polygon points="222.9,179.5 235.8,178.8 225,200" fill="#068ed1"/>
<polygon points="235.8,178.8 240,200 225,200" fill="#14a9eb"/>
<polygon points="235.8,178.8 255.9,179.9 240,200" fill="#0489cc"/>
<polygon points="255.9,179.9 255,200 240,200" fill="#0c9fe2"/>
<polygon points="255.9,179.9 265.2,184.4 255,200" fill="#0282c4"/>
<polygon points="265.2,184.4 270,200 255,200" fill="#0372ad"/>
<polygon points="265.2,184.4 283.4,180.6 270,200" fill="#056092"/>
<polygon points="283.4,180.6 285,200 270,200" fill="#0277b4"/>
<polygon points="283.4,180.6 300,180 285,200" fill="#0281c3"/>
<polygon points="300,180 300,200 285,200" fill="#068ed1"/>
</svg>
