<svg width="300" height="200" viewBox="0 0 300 200" fill="none" xmlns="http://www.w3.org/2000/svg">
<polygon points="0,0 15,0 0,20" fill="#0285c8"/>
<polygon points="15,0 19.9,15.1 0,20" fill="#0387ca"/>
<polygon points="15,0 30,0 19.9,15.1" fill="#0386c9"/>
<polygon points="30,0 28.1,18.1 19.9,15.1" fill="#0a9add"/>
<polygon points="30,0 45,0 28.1,18.1" fill="#0279b8"/>
<polygon points="45,0 42.5,19.1 28.1,18.1" fill="#056396"/>
<polygon points="45,0 60,0 42.5,19.1" fill="#0373af"/>
<polygon points="60,0 64.8,20.2 42.5,19.1" fill="#0279b8"/>
<polygon points="60,0 75,0 64.8,20.2" fill="#0ea5e9"/>
<polygon points="75,0 71.4,21 64.8,20.2" fill="#048bce"/>
<polygon points="75,0 90,0 71.4,21" fill="#0894d7"/>
<polygon points="90,0 89.8,20.7 71.4,21" fill="#0281c2"/>
<polygon points="90,0 105,0 89.8,20.7" fill="#058bce"/>
<polygon points="105,0 100.2,17.1 89.8,20.7" fill="#0c9fe3"/>
<polygon points="105,0 120,0 100.2,17.1" fill="#0da3e7"/>
<polygon points="120,0 125,22.1 100.2,17.1" fill="#22b0f0"/>
<polygon points="120,0 135,0 125,22.1" fill="#1eaeef"/>
<polygon points="135,0 133.6,23.7 125,22.1" fill="#068fd2"/>
<polygon points="135,0 150,0 133.6,23.7" fill="#027fc0"/>
<polygon points="150,0 145.4,15.2 133.6,23.7" fill="#036da7"/>
<polygon points="150,0 165,0 145.4,15.2" fill="#0998dc"/>
<polygon points="165,0 168,20.7 145.4,15.2" fill="#0da2e5"/>
<polygon points="165,0 180,0 168,20.7" fill="#15a9ec"/>
<polygon points="180,0 183.3,17.2 168,20.7" fill="#0284c7"/>
<polygon points="180,0 195,0 183.3,17.2" fill="#0370ab"/>
<polygon points="195,0 199.4,23.5 183.3,17.2" fill="#085681"/>
<polygon points="195,0 210,0 199.4,23.5" fill="#0370ab"/>
<polygon points="210,0 209.6,16 199.4,23.5" fill="#0c9fe3"/>
<polygon points="210,0 225,0 209.6,16" fill="#59c7fa"/>
<polygon points="225,0 228,20.4 209.6,16" fill="#31b9f6"/>
<polygon points="225,0 240,0 228,20.4" fill="#0b9ee2"/>
<polygon points="240,0 241.5,21.3 228,20.4" fill="#0280c2"/>
<polygon points="240,0 255,0 241.5,21.3" fill="#036ea8"/>
<polygon points="255,0 259,17 241.5,21.3" fill="#0374b1"/>
<polygon points="255,0 270,0 259,17" fill="#068fd2"/>
<polygon points="270,0 266.8,22.5 259,17" fill="#0b9ee2"/>
<polygon points="270,0 285,0 266.8,22.5" fill="#0792d5"/>
<polygon points="285,0 280.7,17.6 266.8,22.5" fill="#027ebf"/>
<polygon points="285,0 300,0 280.7,17.6" fill="#0282c4"/>
<polygon points="300,0 300,20 280.7,17.6" fill="#0388cb"/>
<polygon points="0,20 19.9,15.1 0,40" fill="#2db7f4"/>
<polygon points="19.9,15.1 17.6,38.2 0,40" fill="#3fbff8"/>
<polygon points="19.9,15.1 28.1,18.1 17.6,38.2" fill="#10a6ea"/>
<polygon points="28.1,18.1 31.1,44.4 17.6,38.2" fill="#0a9bdf"/>
<polygon points="28.1,18.1 42.5,19.1 31.1,44.4" fill="#0372ae"/>
<polygon points="42.5,19.1 45.6,35.7 31.1,44.4" fill="#058dd0"/>
<polygon points="42.5,19.1 64.8,20.2 45.6,35.7" fill="#027ebf"/>
<polygon points="64.8,20.2 60.6,40.4 45.6,35.7" fill="#0387ca"/>
<polygon points="64.8,20.2 71.4,21 60.6,40.4" fill="#036ca5"/>
<polygon points="71.4,21 75.4,41.6 60.6,40.4" fill="#0369a1"/>
<polygon points="71.4,21 89.8,20.7 75.4,41.6" fill="#0277b4"/>
<polygon points="89.8,20.7 87.8,43.5 75.4,41.6" fill="#048acd"/>
<polygon points="89.8,20.7 100.2,17.1 87.8,43.5" fill="#15a9eb"/>
<polygon points="100.2,17.1 109.5,43.1 87.8,43.5" fill="#1aaced"/>
<polygon points="100.2,17.1 125,22.1 109.5,43.1" fill="#24b1f1"/>
<polygon points="125,22.1 118.6,39.1 109.5,43.1" fill="#1eaeef"/>
<polygon points="125,22.1 133.6,23.7 118.6,39.1" fill="#068ed1"/>
<polygon points="133.6,23.7 138.5,37.9 118.6,39.1" fill="#0b9de1"/>
<polygon points="133.6,23.7 145.4,15.2 138.5,37.9" fill="#0489cc"/>
<polygon points="145.4,15.2 153.3,35.4 138.5,37.9" fill="#27b3f2"/>
<polygon points="145.4,15.2 168,20.7 153.3,35.4" fill="#0da2e6"/>
<polygon points="168,20.7 169.8,36 153.3,35.4" fill="#32b9f6"/>
<polygon points="168,20.7 183.3,17.2 169.8,36" fill="#0a9ade"/>
<polygon points="183.3,17.2 177.1,38.2 169.8,36" fill="#0376b4"/>
<polygon points="183.3,17.2 199.4,23.5 177.1,38.2" fill="#0a5078"/>
<polygon points="199.4,23.5 191.2,36.7 177.1,38.2" fill="#0a5077"/>
<polygon points="199.4,23.5 209.6,16 191.2,36.7" fill="#0373b0"/>
<polygon points="209.6,16 208.3,41.5 191.2,36.7" fill="#0c9fe2"/>
<polygon points="209.6,16 228,20.4 208.3,41.5" fill="#27b3f2"/>
<polygon points="228,20.4 222.5,43.4 208.3,41.5" fill="#0284c7"/>
<polygon points="228,20.4 241.5,21.3 222.5,43.4" fill="#0371ad"/>
<polygon points="241.5,21.3 242.5,36 222.5,43.4" fill="#0280c1"/>
<polygon points="241.5,21.3 259,17 242.5,36" fill="#0a99dd"/>
<polygon points="259,17 253,44.8 242.5,36" fill="#29b4f3"/>
<polygon points="259,17 266.8,22.5 253,44.8" fill="#0da1e5"/>
<polygon points="266.8,22.5 274.1,42.7 253,44.8" fill="#0282c4"/>
<polygon points="266.8,22.5 280.7,17.6 274.1,42.7" fill="#036fa9"/>
<polygon points="280.7,17.6 286.3,42.4 274.1,42.7" fill="#0284c7"/>
<polygon points="280.7,17.6 300,20 286.3,42.4" fill="#0b9ee1"/>
<polygon points="300,20 300,40 286.3,42.4" fill="#36bcf7"/>
<polygon points="0,40 17.6,38.2 0,60" fill="#0386c9"/>
<polygon points="17.6,38.2 17.5,56.3 0,60" fill="#027fc0"/>
<polygon points="17.6,38.2 31.1,44.4 17.5,56.3" fill="#24b2f1"/>
<polygon points="31.1,44.4 25.6,58.9 17.5,56.3" fill="#18aaec"/>
<polygon points="31.1,44.4 45.6,35.7 25.6,58.9" fill="#1cadee"/>
<polygon points="45.6,35.7 47.8,64.7 25.6,58.9" fill="#17aaec"/>
<polygon points="45.6,35.7 60.6,40.4 47.8,64.7" fill="#0893d7"/>
<polygon points="60.6,40.4 57.5,59.9 47.8,64.7" fill="#0285c8"/>
<polygon points="60.6,40.4 75.4,41.6 57.5,59.9" fill="#0278b6"/>
<polygon points="75.4,41.6 78.6,60.5 57.5,59.9" fill="#0791d4"/>
<polygon points="75.4,41.6 87.8,43.5 78.6,60.5" fill="#0895d9"/>
<polygon points="87.8,43.5 88.2,60.8 78.6,60.5" fill="#0280c1"/>
<polygon points="87.8,43.5 109.5,43.1 88.2,60.8" fill="#027ab9"/>
<polygon points="109.5,43.1 105.2,59.3 88.2,60.8" fill="#036aa3"/>
<polygon points="109.5,43.1 118.6,39.1 105.2,59.3" fill="#0997da"/>
<polygon points="118.6,39.1 115.7,60.9 105.2,59.3" fill="#058dd0"/>
<polygon points="118.6,39.1 138.5,37.9 115.7,60.9" fill="#25b2f1"/>
<polygon points="138.5,37.9 135.8,55.4 115.7,60.9" fill="#0690d4"/>
<polygon points="138.5,37.9 153.3,35.4 135.8,55.4" fill="#10a6ea"/>
<polygon points="153.3,35.4 149.8,63.7 135.8,55.4" fill="#027ab8"/>
<polygon points="153.3,35.4 169.8,36 149.8,63.7" fill="#13a8eb"/>
<polygon points="169.8,36 166.2,59.3 149.8,63.7" fill="#10a6ea"/>
<polygon points="169.8,36 177.1,38.2 166.2,59.3" fill="#0998db"/>
<polygon points="177.1,38.2 179.7,57.9 166.2,59.3" fill="#0375b2"/>
<polygon points="177.1,38.2 191.2,36.7 179.7,57.9" fill="#065e8e"/>
<polygon points="191.2,36.7 190.5,62.2 179.7,57.9" fill="#046498"/>
<polygon points="191.2,36.7 208.3,41.5 190.5,62.2" fill="#036da7"/>
<polygon points="208.3,41.5 209.1,65 190.5,62.2" fill="#0280c1"/>
<polygon points="208.3,41.5 222.5,43.4 209.1,65" fill="#0281c3"/>
<polygon points="222.5,43.4 229.2,57.2 209.1,65" fill="#0376b4"/>
<polygon points="222.5,43.4 242.5,36 229.2,57.2" fill="#0488cc"/>
<polygon points="242.5,36 236.4,64 229.2,57.2" fill="#0a99dc"/>
<polygon points="242.5,36 253,44.8 236.4,64" fill="#1cadee"/>
<polygon points="253,44.8 253.6,57 236.4,64" fill="#14a8eb"/>
<polygon points="253,44.8 274.1,42.7 253.6,57" fill="#0894d8"/>
<polygon points="274.1,42.7 273.4,62.6 253.6,57" fill="#0277b4"/>
<polygon points="274.1,42.7 286.3,42.4 273.4,62.6" fill="#027dbd"/>
<polygon points="286.3,42.4 286.8,58.4 273.4,62.6" fill="#0998dc"/>
<polygon points="286.3,42.4 300,40 286.8,58.4" fill="#3bbef8"/>
<polygon points="300,40 300,60 286.8,58.4" fill="#17aaec"/>
<polygon points="0,60 17.5,56.3 0,80" fill="#0386c9"/>
<polygon points="17.5,56.3 16.6,75.5 0,80" fill="#20aff0"/>
<polygon points="17.5,56.3 25.6,58.9 16.6,75.5" fill="#0da1e5"/>
<polygon points="25.6,58.9 33.2,80.5 16.6,75.5" fill="#14a8eb"/>
<polygon points="25.6,58.9 47.8,64.7 33.2,80.5" fill="#1eaeef"/>
<polygon points="47.8,64.7 40.2,75.1 33.2,80.5" fill="#25b2f1"/>
<polygon points="47.8,64.7 57.5,59.9 40.2,75.1" fill="#0da3e7"/>
<polygon points="57.5,59.9 63.3,79.4 40.2,75.1" fill="#17aaec"/>
<polygon points="57.5,59.9 78.6,60.5 63.3,79.4" fill="#13a8eb"/>
<polygon points="78.6,60.5 77,84 63.3,79.4" fill="#1eaeef"/>
<polygon points="78.6,60.5 88.2,60.8 77,84" fill="#0284c7"/>
<polygon points="88.2,60.8 89.8,82.7 77,84" fill="#068fd2"/>
<polygon points="88.2,60.8 105.2,59.3 89.8,82.7" fill="#0279b7"/>
<polygon points="105.2,59.3 106.4,80.9 89.8,82.7" fill="#0998dc"/>
<polygon points="105.2,59.3 115.7,60.9 106.4,80.9" fill="#027ebe"/>
<polygon points="115.7,60.9 116.9,81.7 106.4,80.9" fill="#13a8eb"/>
<polygon points="115.7,60.9 135.8,55.4 116.9,81.7" fill="#0793d6"/>
<polygon points="135.8,55.4 131.9,77.5 116.9,81.7" fill="#0c9fe2"/>
<polygon points="135.8,55.4 149.8,63.7 131.9,77.5" fill="#0371ac"/>
<polygon points="149.8,63.7 145.1,79.4 131.9,77.5" fill="#0373af"/>
<polygon points="149.8,63.7 166.2,59.3 145.1,79.4" fill="#0279b8"/>
<polygon points="166.2,59.3 162,82.7 145.1,79.4" fill="#0376b4"/>
<polygon points="166.2,59.3 179.7,57.9 162,82.7" fill="#027ebf"/>
<polygon points="179.7,57.9 175.6,78.7 162,82.7" fill="#0369a2"/>
<polygon points="179.7,57.9 190.5,62.2 175.6,78.7" fill="#0369a2"/>
<polygon points="190.5,62.2 198.4,84 175.6,78.7" fill="#0283c6"/>
<polygon points="190.5,62.2 209.1,65 198.4,84" fill="#068ed2"/>
<polygon points="209.1,65 211.6,76.2 198.4,84" fill="#0997db"/>
<polygon points="209.1,65 229.2,57.2 211.6,76.2" fill="#027cbc"/>
<polygon points="229.2,57.2 220.2,75.4 211.6,76.2" fill="#0371ac"/>
<polygon points="229.2,57.2 236.4,64 220.2,75.4" fill="#0278b6"/>
<polygon points="236.4,64 235.7,83.9 220.2,75.4" fill="#046397"/>
<polygon points="236.4,64 253.6,57 235.7,83.9" fill="#0277b4"/>
<polygon points="253.6,57 254.7,81.3 235.7,83.9" fill="#0375b2"/>
<polygon points="253.6,57 273.4,62.6 254.7,81.3" fill="#0388cb"/>
<polygon points="273.4,62.6 274.7,76.8 254.7,81.3" fill="#0387ca"/>
<polygon points="273.4,62.6 286.8,58.4 274.7,76.8" fill="#0690d3"/>
<polygon points="286.8,58.4 285.9,78.2 274.7,76.8" fill="#027ebf"/>
<polygon points="286.8,58.4 300,60 285.9,78.2" fill="#036ea9"/>
<polygon points="300,60 300,80 285.9,78.2" fill="#036fa9"/>
<polygon points="0,80 16.6,75.5 0,100" fill="#0c9fe3"/>
<polygon points="16.6,75.5 13.5,96.1 0,100" fill="#0b9ce0"/>
<polygon points="16.6,75.5 33.2,80.5 13.5,96.1" fill="#27b3f2"/>
<polygon points="33.2,80.5 33.1,104 13.5,96.1" fill="#2ab5f3"/>
<polygon points="33.2,80.5 40.2,75.1 33.1,104" fill="#1eaeef"/>
<polygon points="40.2,75.1 43.3,101.2 33.1,104" fill="#36bcf7"/>
<polygon points="40.2,75.1 63.3,79.4 43.3,101.2" fill="#52c5fa"/>
<polygon points="63.3,79.4 64.7,100 43.3,101.2" fill="#56c7fa"/>
<polygon points="63.3,79.4 77,84 64.7,100" fill="#24b2f1"/>
<polygon points="77,84 71,101.7 64.7,100" fill="#0895d8"/>
<polygon points="77,84 89.8,82.7 71,101.7" fill="#0a9bdf"/>
<polygon points="89.8,82.7 87.6,101.3 71,101.7" fill="#0895d9"/>
<polygon points="89.8,82.7 106.4,80.9 87.6,101.3" fill="#15a9ec"/>
<polygon points="106.4,80.9 107.6,100.4 87.6,101.3" fill="#13a8eb"/>
<polygon points="106.4,80.9 116.9,81.7 107.6,100.4" fill="#34bbf7"/>
<polygon points="116.9,81.7 123.5,95.5 107.6,100.4" fill="#3fbff8"/>
<polygon points="116.9,81.7 131.9,77.5 123.5,95.5" fill="#2bb6f3"/>
<polygon points="131.9,77.5 136.3,104 123.5,95.5" fill="#027ebf"/>
<polygon points="131.9,77.5 145.1,79.4 136.3,104" fill="#0368a0"/>
<polygon points="145.1,79.4 151.3,96.2 136.3,104" fill="#056091"/>
<polygon points="145.1,79.4 162,82.7 151.3,96.2" fill="#046599"/>
<polygon points="162,82.7 169.9,104.5 151.3,96.2" fill="#0284c7"/>
<polygon points="162,82.7 175.6,78.7 169.9,104.5" fill="#0284c7"/>
<polygon points="175.6,78.7 178.6,98.3 169.9,104.5" fill="#0283c5"/>
<polygon points="175.6,78.7 198.4,84 178.6,98.3" fill="#0282c4"/>
<polygon points="198.4,84 195,96.8 178.6,98.3" fill="#0ea5e9"/>
<polygon points="198.4,84 211.6,76.2 195,96.8" fill="#1aaced"/>
<polygon points="211.6,76.2 209.3,97.9 195,96.8" fill="#0791d5"/>
<polygon points="211.6,76.2 220.2,75.4 209.3,97.9" fill="#0370ab"/>
<polygon points="220.2,75.4 223.7,103.4 209.3,97.9" fill="#036ba4"/>
<polygon points="220.2,75.4 235.7,83.9 223.7,103.4" fill="#065c8a"/>
<polygon points="235.7,83.9 237.8,101.3 223.7,103.4" fill="#075884"/>
<polygon points="235.7,83.9 254.7,81.3 237.8,101.3" fill="#065f8f"/>
<polygon points="254.7,81.3 250.9,104.9 237.8,101.3" fill="#056193"/>
<polygon points="254.7,81.3 274.7,76.8 250.9,104.9" fill="#0278b6"/>
<polygon points="274.7,76.8 270.7,98.4 250.9,104.9" fill="#0368a0"/>
<polygon points="274.7,76.8 285.9,78.2 270.7,98.4" fill="#03689e"/>
<polygon points="285.9,78.2 289,98.7 270.7,98.4" fill="#0a5179"/>
<polygon points="285.9,78.2 300,80 289,98.7" fill="#065f8f"/>
<polygon points="300,80 300,100 289,98.7" fill="#036faa"/>
<polygon points="0,100 13.5,96.1 0,120" fill="#0690d3"/>
<polygon points="13.5,96.1 13.2,120 0,120" fill="#0894d7"/>
<polygon points="13.5,96.1 33.1,104 13.2,120" fill="#0da3e7"/>
<polygon points="33.1,104 29.6,122.1 13.2,120" fill="#0b9de1"/>
<polygon points="33.1,104 43.3,101.2 29.6,122.1" fill="#3dbff8"/>
<polygon points="43.3,101.2 48.5,116.9 29.6,122.1" fill="#2cb6f4"/>
<polygon points="43.3,101.2 64.7,100 48.5,116.9" fill="#2ab5f3"/>
<polygon points="64.7,100 61.1,121.8 48.5,116.9" fill="#0792d6"/>
<polygon points="64.7,100 71,101.7 61.1,121.8" fill="#048acd"/>
<polygon points="71,101.7 72.5,117.1 61.1,121.8" fill="#0278b6"/>
<polygon points="71,101.7 87.6,101.3 72.5,117.1" fill="#027cbc"/>
<polygon points="87.6,101.3 94.1,115.1 72.5,117.1" fill="#036ea8"/>
<polygon points="87.6,101.3 107.6,100.4 94.1,115.1" fill="#0283c5"/>
<polygon points="107.6,100.4 102.6,115.2 94.1,115.1" fill="#0790d4"/>
<polygon points="107.6,100.4 123.5,95.5 102.6,115.2" fill="#2db7f4"/>
<polygon points="123.5,95.5 115.3,116.9 102.6,115.2" fill="#25b2f1"/>
<polygon points="123.5,95.5 136.3,104 115.3,116.9" fill="#0284c7"/>
<polygon points="136.3,104 132.6,117.7 115.3,116.9" fill="#0690d3"/>
<polygon points="136.3,104 151.3,96.2 132.6,117.7" fill="#027ab9"/>
<polygon points="151.3,96.2 146.8,119.5 132.6,117.7" fill="#23b1f0"/>
<polygon points="151.3,96.2 169.9,104.5 146.8,119.5" fill="#26b3f2"/>
<polygon points="169.9,104.5 167.3,120.5 146.8,119.5" fill="#1aaced"/>
<polygon points="169.9,104.5 178.6,98.3 167.3,120.5" fill="#027bba"/>
<polygon points="178.6,98.3 183.4,123.9 167.3,120.5" fill="#075883"/>
<polygon points="178.6,98.3 195,96.8 183.4,123.9" fill="#0370aa"/>
<polygon points="195,96.8 192.9,123.7 183.4,123.9" fill="#0998dc"/>
<polygon points="195,96.8 209.3,97.9 192.9,123.7" fill="#21b0f0"/>
<polygon points="209.3,97.9 207.6,117.1 192.9,123.7" fill="#0998dc"/>
<polygon points="209.3,97.9 223.7,103.4 207.6,117.1" fill="#0373af"/>
<polygon points="223.7,103.4 225.6,122.8 207.6,117.1" fill="#036ea8"/>
<polygon points="223.7,103.4 237.8,101.3 225.6,122.8" fill="#046498"/>
<polygon points="237.8,101.3 240.2,117.1 225.6,122.8" fill="#056194"/>
<polygon points="237.8,101.3 250.9,104.9 240.2,117.1" fill="#075884"/>
<polygon points="250.9,104.9 255.4,115.9 240.2,117.1" fill="#065f8f"/>
<polygon points="250.9,104.9 270.7,98.4 255.4,115.9" fill="#065e8f"/>
<polygon points="270.7,98.4 268.3,123.7 255.4,115.9" fill="#027cbc"/>
<polygon points="270.7,98.4 289,98.7 268.3,123.7" fill="#03689f"/>
<polygon points="289,98.7 287.6,118.8 268.3,123.7" fill="#036faa"/>
<polygon points="289,98.7 300,100 287.6,118.8" fill="#046498"/>
<polygon points="300,100 300,120 287.6,118.8" fill="#058bcf"/>
<polygon points="0,120 13.2,120 0,140" fill="#0371ac"/>
<polygon points="13.2,120 18.3,135.7 0,140" fill="#04669c"/>
<polygon points="13.2,120 29.6,122.1 18.3,135.7" fill="#027fc1"/>
<polygon points="29.6,122.1 26.5,142.2 18.3,135.7" fill="#0da1e5"/>
<polygon points="29.6,122.1 48.5,116.9 26.5,142.2" fill="#21b0f0"/>
<polygon points="48.5,116.9 45.6,136.9 26.5,142.2" fill="#18abed"/>
<polygon points="48.5,116.9 61.1,121.8 45.6,136.9" fill="#058dd0"/>
<polygon points="61.1,121.8 56,137.4 45.6,136.9" fill="#058ccf"/>
<polygon points="61.1,121.8 72.5,117.1 56,137.4" fill="#027ebf"/>
<polygon points="72.5,117.1 79.9,135.6 56,137.4" fill="#0279b7"/>
<polygon points="72.5,117.1 94.1,115.1 79.9,135.6" fill="#04679d"/>
<polygon points="94.1,115.1 86.8,139.7 79.9,135.6" fill="#0372ae"/>
<polygon points="94.1,115.1 102.6,115.2 86.8,139.7" fill="#0488cb"/>
<polygon points="102.6,115.2 106,142.8 86.8,139.7" fill="#15a9eb"/>
<polygon points="102.6,115.2 115.3,116.9 106,142.8" fill="#17aaec"/>
<polygon points="115.3,116.9 115.2,139 106,142.8" fill="#0791d5"/>
<polygon points="115.3,116.9 132.6,117.7 115.2,139" fill="#12a7ea"/>
<polygon points="132.6,117.7 136.2,135.5 115.2,139" fill="#0281c3"/>
<polygon points="132.6,117.7 146.8,119.5 136.2,135.5" fill="#10a6ea"/>
<polygon points="146.8,119.5 147.3,140.9 136.2,135.5" fill="#1fafef"/>
<polygon points="146.8,119.5 167.3,120.5 147.3,140.9" fill="#26b3f2"/>
<polygon points="167.3,120.5 161.6,141.6 147.3,140.9" fill="#0ea5e9"/>
<polygon points="167.3,120.5 183.4,123.9 161.6,141.6" fill="#0368a0"/>
<polygon points="183.4,123.9 183.2,143.5 161.6,141.6" fill="#0374b1"/>
<polygon points="183.4,123.9 192.9,123.7 183.2,143.5" fill="#027cbc"/>
<polygon points="192.9,123.7 199.1,140.9 183.2,143.5" fill="#0c9fe2"/>
<polygon points="192.9,123.7 207.6,117.1 199.1,140.9" fill="#0ca0e4"/>
<polygon points="207.6,117.1 208.2,142.5 199.1,140.9" fill="#036ea8"/>
<polygon points="207.6,117.1 225.6,122.8 208.2,142.5" fill="#04659a"/>
<polygon points="225.6,122.8 226.8,142.8 208.2,142.5" fill="#055f90"/>
<polygon points="225.6,122.8 240.2,117.1 226.8,142.8" fill="#046498"/>
<polygon points="240.2,117.1 240.7,142 226.8,142.8" fill="#036da7"/>
<polygon points="240.2,117.1 255.4,115.9 240.7,142" fill="#0375b1"/>
<polygon points="255.4,115.9 254.3,140.8 240.7,142" fill="#058ed1"/>
<polygon points="255.4,115.9 268.3,123.7 254.3,140.8" fill="#0998dc"/>
<polygon points="268.3,123.7 266.2,142.7 254.3,140.8" fill="#058bcf"/>
<polygon points="268.3,123.7 287.6,118.8 266.2,142.7" fill="#027aba"/>
<polygon points="287.6,118.8 281.1,143.4 266.2,142.7" fill="#0371ac"/>
<polygon points="287.6,118.8 300,120 281.1,143.4" fill="#0792d5"/>
<polygon points="300,120 300,140 281.1,143.4" fill="#0da2e6"/>
<polygon points="0,140 18.3,135.7 0,160" fill="#046499"/>
<polygon points="18.3,135.7 16.2,158.9 0,160" fill="#036ea8"/>
<polygon points="18.3,135.7 26.5,142.2 16.2,158.9" fill="#0690d4"/>
<polygon points="26.5,142.2 28.5,161.7 16.2,158.9" fill="#29b5f3"/>
<polygon points="26.5,142.2 45.6,136.9 28.5,161.7" fill="#36bcf7"/>
<polygon points="45.6,136.9 47.4,164.4 28.5,161.7" fill="#0ea5e9"/>
<polygon points="45.6,136.9 56,137.4 47.4,164.4" fill="#058ccf"/>
<polygon points="56,137.4 64.9,163.8 47.4,164.4" fill="#036ba4"/>
<polygon points="56,137.4 79.9,135.6 64.9,163.8" fill="#04679d"/>
<polygon points="79.9,135.6 79,159 64.9,163.8" fill="#04669b"/>
<polygon points="79.9,135.6 86.8,139.7 79,159" fill="#0285c8"/>
<polygon points="86.8,139.7 93,156.1 79,159" fill="#13a8eb"/>
<polygon points="86.8,139.7 106,142.8 93,156.1" fill="#22b1f0"/>
<polygon points="106,142.8 101,161 93,156.1" fill="#35bbf7"/>
<polygon points="106,142.8 115.2,139 101,161" fill="#0c9fe2"/>
<polygon points="115.2,139 120,158.2 101,161" fill="#068ed1"/>
<polygon points="115.2,139 136.2,135.5 120,158.2" fill="#046499"/>
<polygon points="136.2,135.5 138.8,156.1 120,158.2" fill="#036ea9"/>
<polygon points="136.2,135.5 147.3,140.9 138.8,156.1" fill="#0b9de1"/>
<polygon points="147.3,140.9 153.8,159.5 138.8,156.1" fill="#2cb6f4"/>
<polygon points="147.3,140.9 161.6,141.6 153.8,159.5" fill="#30b8f5"/>
<polygon points="161.6,141.6 160.7,158.5 153.8,159.5" fill="#0da3e7"/>
<polygon points="161.6,141.6 183.2,143.5 160.7,158.5" fill="#0997db"/>
<polygon points="183.2,143.5 184.1,163.6 160.7,158.5" fill="#0283c6"/>
<polygon points="183.2,143.5 199.1,140.9 184.1,163.6" fill="#0281c3"/>
<polygon points="199.1,140.9 192.3,158.6 184.1,163.6" fill="#0368a0"/>
<polygon points="199.1,140.9 208.2,142.5 192.3,158.6" fill="#065c8a"/>
<polygon points="208.2,142.5 210.3,159 192.3,158.6" fill="#09537b"/>
<polygon points="208.2,142.5 226.8,142.8 210.3,159" fill="#065c8a"/>
<polygon points="226.8,142.8 227.9,157.7 210.3,159" fill="#0371ac"/>
<polygon points="226.8,142.8 240.7,142 227.9,157.7" fill="#0283c6"/>
<polygon points="240.7,142 235.9,157.4 227.9,157.7" fill="#0690d3"/>
<polygon points="240.7,142 254.3,140.8 235.9,157.4" fill="#0791d5"/>
<polygon points="254.3,140.8 257.9,159 235.9,157.4" fill="#0278b7"/>
<polygon points="254.3,140.8 266.2,142.7 257.9,159" fill="#036ba4"/>
<polygon points="266.2,142.7 269.5,157.7 257.9,159" fill="#04669b"/>
<polygon points="266.2,142.7 281.1,143.4 269.5,157.7" fill="#0279b7"/>
<polygon points="281.1,143.4 283.6,155 269.5,157.7" fill="#036aa2"/>
<polygon points="281.1,143.4 300,140 283.6,155" fill="#036faa"/>
<polygon points="300,140 300,160 283.6,155" fill="#04669c"/>
<polygon points="0,160 16.2,158.9 0,180" fill="#0278b6"/>
<polygon points="16.2,158.9 14.4,180.5 0,180" fill="#0894d7"/>
<polygon points="16.2,158.9 28.5,161.7 14.4,180.5" fill="#1eaeef"/>
<polygon points="28.5,161.7 28.8,178.5 14.4,180.5" fill="#0a9add"/>
<polygon points="28.5,161.7 47.4,164.4 28.8,178.5" fill="#0283c6"/>
<polygon points="47.4,164.4 40.9,175.4 28.8,178.5" fill="#027dbe"/>
<polygon points="47.4,164.4 64.9,163.8 40.9,175.4" fill="#0279b8"/>
<polygon points="64.9,163.8 59.4,179.7 40.9,175.4" fill="#068fd2"/>
<polygon points="64.9,163.8 79,159 59.4,179.7" fill="#027dbd"/>
<polygon points="79,159 70.7,176.2 59.4,179.7" fill="#0375b2"/>
<polygon points="79,159 93,156.1 70.7,176.2" fill="#027ab8"/>
<polygon points="93,156.1 90.7,184.9 70.7,176.2" fill="#036faa"/>
<polygon points="93,156.1 101,161 90.7,184.9" fill="#16a9ec"/>
<polygon points="101,161 103.8,176.4 90.7,184.9" fill="#13a8eb"/>
<polygon points="101,161 120,158.2 103.8,176.4" fill="#1dadee"/>
<polygon points="120,158.2 118.5,184.5 103.8,176.4" fill="#0c9ee2"/>
<polygon points="120,158.2 138.8,156.1 118.5,184.5" fill="#058ccf"/>
<polygon points="138.8,156.1 139.5,184.6 118.5,184.5" fill="#0387ca"/>
<polygon points="138.8,156.1 153.8,159.5 139.5,184.6" fill="#0284c7"/>
<polygon points="153.8,159.5 146.8,179.7 139.5,184.6" fill="#036faa"/>
<polygon points="153.8,159.5 160.7,158.5 146.8,179.7" fill="#0387ca"/>
<polygon points="160.7,158.5 161.2,182.4 146.8,179.7" fill="#0374b0"/>
<polygon points="160.7,158.5 184.1,163.6 161.2,182.4" fill="#027ab9"/>
<polygon points="184.1,163.6 176.3,183.7 161.2,182.4" fill="#036ea8"/>
<polygon points="184.1,163.6 192.3,158.6 176.3,183.7" fill="#056295"/>
<polygon points="192.3,158.6 197.6,178.8 176.3,183.7" fill="#03689f"/>
<polygon points="192.3,158.6 210.3,159 197.6,178.8" fill="#046498"/>
<polygon points="210.3,159 208,179.2 197.6,178.8" fill="#04659b"/>
<polygon points="210.3,159 227.9,157.7 208,179.2" fill="#04669b"/>
<polygon points="227.9,157.7 220.2,181.4 208,179.2" fill="#036aa2"/>
<polygon points="227.9,157.7 235.9,157.4 220.2,181.4" fill="#0282c5"/>
<polygon points="235.9,157.4 235.2,182.9 220.2,181.4" fill="#0b9de1"/>
<polygon points="235.9,157.4 257.9,159 235.2,182.9" fill="#068fd3"/>
<polygon points="257.9,159 258.2,184 235.2,182.9" fill="#0489cc"/>
<polygon points="257.9,159 269.5,157.7 258.2,184" fill="#036ca5"/>
<polygon points="269.5,157.7 270.6,176.9 258.2,184" fill="#027ebf"/>
<polygon points="269.5,157.7 283.6,155 270.6,176.9" fill="#03689f"/>
<polygon points="283.6,155 289,181.2 270.6,176.9" fill="#0375b1"/>
<polygon points="283.6,155 300,160 289,181.2" fill="#036ca6"/>
<polygon points="300,160 300,180 289,181.2" fill="#17aaec"/>
<polygon points="0,180 14.4,180.5 0,200" fill="#0793d6"/>
<polygon points="14.4,180.5 15,200 0,200" fill="#0387ca"/>
<polygon points="14.4,180.5 28.8,178.5 15,200" fill="#0374b1"/>
<polygon points="28.8,178.5 30,200 15,200" fill="#036da6"/>
<polygon points="28.8,178.5 40.9,175.4 30,200" fill="#0489cc"/>
<polygon points="40.9,175.4 45,200 30,200" fill="#18abed"/>
<polygon points="40.9,175.4 59.4,179.7 45,200" fill="#26b3f1"/>
<polygon points="59.4,179.7 60,200 45,200" fill="#36bcf7"/>
<polygon points="59.4,179.7 70.7,176.2 60,200" fill="#0792d6"/>
<polygon points="70.7,176.2 75,200 60,200" fill="#0792d5"/>
<polygon points="70.7,176.2 90.7,184.9 75,200" fill="#036ba3"/>
<polygon points="90.7,184.9 90,200 75,200" fill="#0283c5"/>
<polygon points="90.7,184.9 103.8,176.4 90,200" fill="#0386c9"/>
<polygon points="103.8,176.4 105,200 90,200" fill="#0997da"/>
<polygon points="103.8,176.4 118.5,184.5 105,200" fill="#11a7ea"/>
<polygon points="118.5,184.5 120,200 105,200" fill="#0893d7"/>
<polygon points="118.5,184.5 139.5,184.6 120,200" fill="#0285c8"/>
<polygon points="139.5,184.6 135,200 120,200" fill="#0a9bde"/>
<polygon points="139.5,184.6 146.8,179.7 135,200" fill="#0283c6"/>
<polygon points="146.8,179.7 150,200 135,200" fill="#027bbb"/>
<polygon points="146.8,179.7 161.2,182.4 150,200" fill="#065d8c"/>
<polygon points="161.2,182.4 165,200 150,200" fill="#046498"/>
<polygon points="161.2,182.4 176.3,183.7 165,200" fill="#0372ae"/>
<polygon points="176.3,183.7 180,200 165,200" fill="#0387ca"/>
<polygon points="176.3,183.7 197.6,178.8 180,200" fill="#058ccf"/>
<polygon points="197.6,178.8 195,200 180,200" fill="#0280c1"/>
<polygon points="197.6,178.8 208,179.2 195,200" fill="#046397"/>
<polygon points="208,179.2 210,200 195,200" fill="#065c8b"/>
<polygon points="208,179.2 220.2,181.4 210,200" fill="#056396"/>
<polygon points="220.2,181.4 225,200 210,200" fill="#0371ad"/>
<polygon points="220.2,181.4 235.2,182.9 225,200" fill="#0996da"/>
<polygon points="235.2,182.9 240,200 225,200" fill="#0894d7"/>
<polygon points="235.2,182.9 258.2,184 240,200" fill="#0894d8"/>
<polygon points="258.2,184 255,200 240,200" fill="#036ea8"/>
<polygon points="258.2,184 270.6,176.9 255,200" fill="#0277b5"/>
<polygon points="270.6,176.9 270,200 255,200" fill="#0282c5"/>
<polygon points="270.6,176.9 289,181.2 270,200" fill="#0b9bdf"/>
<polygon points="289,181.2 285,200 270,200" fill="#0793d6"/>
<polygon points="289,181.2 300,180 285,200" fill="#19aced"/>
<polygon points="300,180 300,200 285,200" fill="#058cd0"/>
</svg>
