<svg width="300" height="200" viewBox="0 0 300 200" fill="none" xmlns="http://www.w3.org/2000/svg">
<polygon points="0,0 15,0 0,20" fill="#0282c5"/>
<polygon points="15,0 16.4,20.7 0,20" fill="#036fa9"/>
<polygon points="15,0 30,0 16.4,20.7" fill="#0277b5"/>
<polygon points="30,0 25.5,24.6 16.4,20.7" fill="#20afef"/>
<polygon points="30,0 45,0 25.5,24.6" fill="#1fafef"/>
<polygon points="45,0 40.3,18 25.5,24.6" fill="#0896d9"/>
<polygon points="45,0 60,0 40.3,18" fill="#0368a0"/>
<polygon points="60,0 57.8,15.3 40.3,18" fill="#04669c"/>
<polygon points="60,0 75,0 57.8,15.3" fill="#0370ab"/>
<polygon points="75,0 76.8,15 57.8,15.3" fill="#0281c3"/>
<polygon points="75,0 90,0 76.8,15" fill="#0ea5e9"/>
<polygon points="90,0 93.5,21.9 76.8,15" fill="#11a6ea"/>
<polygon points="90,0 105,0 93.5,21.9" fill="#30b8f5"/>
<polygon points="105,0 103.9,16 93.5,21.9" fill="#14a9eb"/>
<polygon points="105,0 120,0 103.9,16" fill="#0998dc"/>
<polygon points="120,0 122.4,17.9 103.9,16" fill="#0376b4"/>
<polygon points="120,0 135,0 122.4,17.9" fill="#0370aa"/>
<polygon points="135,0 137.5,21.4 122.4,17.9" fill="#0a9ade"/>
<polygon points="135,0 150,0 137.5,21.4" fill="#068ed1"/>
<polygon points="150,0 153.9,22 137.5,21.4" fill="#0997da"/>
<polygon points="150,0 165,0 153.9,22" fill="#0373ae"/>
<polygon points="165,0 161.7,22.5 153.9,22" fill="#0370aa"/>
<polygon points="165,0 180,0 161.7,22.5" fill="#04659a"/>
<polygon points="180,0 181.5,15.6 161.7,22.5" fill="#075a87"/>
<polygon points="180,0 195,0 181.5,15.6" fill="#075883"/>
<polygon points="195,0 197,22.3 181.5,15.6" fill="#0a5179"/>
<polygon points="195,0 210,0 197,22.3" fill="#075985"/>
<polygon points="210,0 213.7,17.9 197,22.3" fill="#027ab8"/>
<polygon points="210,0 225,0 213.7,17.9" fill="#0374b1"/>
<polygon points="225,0 224.6,23.7 213.7,17.9" fill="#0368a0"/>
<polygon points="225,0 240,0 224.6,23.7" fill="#056092"/>
<polygon points="240,0 242.2,16.3 224.6,23.7" fill="#036ea8"/>
<polygon points="240,0 255,0 242.2,16.3" fill="#0285c8"/>
<polygon points="255,0 257.6,23.2 242.2,16.3" fill="#036fa9"/>
<polygon points="255,0 270,0 257.6,23.2" fill="#0373af"/>
<polygon points="270,0 266,24.7 257.6,23.2" fill="#0371ac"/>
<polygon points="270,0 285,0 266,24.7" fill="#0894d8"/>
<polygon points="285,0 288.8,23 266,24.7" fill="#027dbd"/>
<polygon points="285,0 300,0 288.8,23" fill="#0372ae"/>
<polygon points="300,0 300,20 288.8,23" fill="#065b89"/>
<polygon points="0,20 16.4,20.7 0,40" fill="#0283c6"/>
<polygon points="16.4,20.7 15.5,43.6 0,40" fill="#048acd"/>
<polygon points="16.4,20.7 25.5,24.6 15.5,43.6" fill="#1bacee"/>
<polygon points="25.5,24.6 29,37.4 15.5,43.6" fill="#37bdf8"/>
<polygon points="25.5,24.6 40.3,18 29,37.4" fill="#18abed"/>
<polygon points="40.3,18 47.2,35.8 29,37.4" fill="#058dd0"/>
<polygon points="40.3,18 57.8,15.3 47.2,35.8" fill="#0374b0"/>
<polygon points="57.8,15.3 58.6,42.3 47.2,35.8" fill="#0ca0e4"/>
<polygon points="57.8,15.3 76.8,15 58.6,42.3" fill="#0da2e5"/>
<polygon points="76.8,15 78.1,42.6 58.6,42.3" fill="#13a8eb"/>
<polygon points="76.8,15 93.5,21.9 78.1,42.6" fill="#048acd"/>
<polygon points="93.5,21.9 85.6,39.5 78.1,42.6" fill="#0374b0"/>
<polygon points="93.5,21.9 103.9,16 85.6,39.5" fill="#027ab9"/>
<polygon points="103.9,16 101.8,35.6 85.6,39.5" fill="#065e8d"/>
<polygon points="103.9,16 122.4,17.9 101.8,35.6" fill="#046499"/>
<polygon points="122.4,17.9 120.3,42.1 101.8,35.6" fill="#075884"/>
<polygon points="122.4,17.9 137.5,21.4 120.3,42.1" fill="#0489cc"/>
<polygon points="137.5,21.4 136.8,44 120.3,42.1" fill="#027bbb"/>
<polygon points="137.5,21.4 153.9,22 136.8,44" fill="#0893d7"/>
<polygon points="153.9,22 154,42.9 136.8,44" fill="#0372ad"/>
<polygon points="153.9,22 161.7,22.5 154,42.9" fill="#0372ad"/>
<polygon points="161.7,22.5 164.7,35.2 154,42.9" fill="#036ba3"/>
<polygon points="161.7,22.5 181.5,15.6 164.7,35.2" fill="#065e8e"/>
<polygon points="181.5,15.6 179.9,38.5 164.7,35.2" fill="#0283c6"/>
<polygon points="181.5,15.6 197,22.3 179.9,38.5" fill="#0371ad"/>
<polygon points="197,22.3 194.6,43.1 179.9,38.5" fill="#0488cc"/>
<polygon points="197,22.3 213.7,17.9 194.6,43.1" fill="#0282c5"/>
<polygon points="213.7,17.9 210.5,41.1 194.6,43.1" fill="#0a9ade"/>
<polygon points="213.7,17.9 224.6,23.7 210.5,41.1" fill="#0281c3"/>
<polygon points="224.6,23.7 224,42.2 210.5,41.1" fill="#046498"/>
<polygon points="224.6,23.7 242.2,16.3 224,42.2" fill="#056092"/>
<polygon points="242.2,16.3 242.7,35.6 224,42.2" fill="#065e8f"/>
<polygon points="242.2,16.3 257.6,23.2 242.7,35.6" fill="#065d8c"/>
<polygon points="257.6,23.2 256.8,38.9 242.7,35.6" fill="#046397"/>
<polygon points="257.6,23.2 266,24.7 256.8,38.9" fill="#0278b5"/>
<polygon points="266,24.7 268.5,44.2 256.8,38.9" fill="#058ccf"/>
<polygon points="266,24.7 288.8,23 268.5,44.2" fill="#036faa"/>
<polygon points="288.8,23 287.4,39.4 268.5,44.2" fill="#0280c2"/>
<polygon points="288.8,23 300,20 287.4,39.4" fill="#036da7"/>
<polygon points="300,20 300,40 287.4,39.4" fill="#0793d7"/>
<polygon points="0,40 15.5,43.6 0,60" fill="#0280c1"/>
<polygon points="15.5,43.6 19.5,56.5 0,60" fill="#0386c9"/>
<polygon points="15.5,43.6 29,37.4 19.5,56.5" fill="#11a7ea"/>
<polygon points="29,37.4 32.1,55.7 19.5,56.5" fill="#0998dc"/>
<polygon points="29,37.4 47.2,35.8 32.1,55.7" fill="#0896d9"/>
<polygon points="47.2,35.8 43.7,61.9 32.1,55.7" fill="#0280c2"/>
<polygon points="47.2,35.8 58.6,42.3 43.7,61.9" fill="#0fa6e9"/>
<polygon points="58.6,42.3 59.9,60.2 43.7,61.9" fill="#0388cb"/>
<polygon points="58.6,42.3 78.1,42.6 59.9,60.2" fill="#0489cc"/>
<polygon points="78.1,42.6 73.5,62.1 59.9,60.2" fill="#075985"/>
<polygon points="78.1,42.6 85.6,39.5 73.5,62.1" fill="#065c8a"/>
<polygon points="85.6,39.5 87.2,64.2 73.5,62.1" fill="#03679e"/>
<polygon points="85.6,39.5 101.8,35.6 87.2,64.2" fill="#04659b"/>
<polygon points="101.8,35.6 102.1,63.9 87.2,64.2" fill="#0998db"/>
<polygon points="101.8,35.6 120.3,42.1 102.1,63.9" fill="#0373af"/>
<polygon points="120.3,42.1 123.3,61.5 102.1,63.9" fill="#0da2e6"/>
<polygon points="120.3,42.1 136.8,44 123.3,61.5" fill="#0369a2"/>
<polygon points="136.8,44 132.2,59.2 123.3,61.5" fill="#0371ac"/>
<polygon points="136.8,44 154,42.9 132.2,59.2" fill="#04669c"/>
<polygon points="154,42.9 145.5,56.7 132.2,59.2" fill="#036ea8"/>
<polygon points="154,42.9 164.7,35.2 145.5,56.7" fill="#0375b1"/>
<polygon points="164.7,35.2 160.5,63.1 145.5,56.7" fill="#0283c5"/>
<polygon points="164.7,35.2 179.9,38.5 160.5,63.1" fill="#17aaec"/>
<polygon points="179.9,38.5 177.6,56.2 160.5,63.1" fill="#058dd0"/>
<polygon points="179.9,38.5 194.6,43.1 177.6,56.2" fill="#0280c1"/>
<polygon points="194.6,43.1 199,57.8 177.6,56.2" fill="#0368a0"/>
<polygon points="194.6,43.1 210.5,41.1 199,57.8" fill="#0283c6"/>
<polygon points="210.5,41.1 214.4,56.1 199,57.8" fill="#027fc0"/>
<polygon points="210.5,41.1 224,42.2 214.4,56.1" fill="#0371ad"/>
<polygon points="224,42.2 222.8,64.3 214.4,56.1" fill="#036da6"/>
<polygon points="224,42.2 242.7,35.6 222.8,64.3" fill="#065f8f"/>
<polygon points="242.7,35.6 242.1,56.4 222.8,64.3" fill="#056092"/>
<polygon points="242.7,35.6 256.8,38.9 242.1,56.4" fill="#04679d"/>
<polygon points="256.8,38.9 254,59.6 242.1,56.4" fill="#0b9de0"/>
<polygon points="256.8,38.9 268.5,44.2 254,59.6" fill="#19abed"/>
<polygon points="268.5,44.2 266.8,62.6 254,59.6" fill="#0c9fe3"/>
<polygon points="268.5,44.2 287.4,39.4 266.8,62.6" fill="#0893d7"/>
<polygon points="287.4,39.4 283.7,61.7 266.8,62.6" fill="#18abed"/>
<polygon points="287.4,39.4 300,40 283.7,61.7" fill="#36bcf7"/>
<polygon points="300,40 300,60 283.7,61.7" fill="#3cbef8"/>
<polygon points="0,60 19.5,56.5 0,80" fill="#0282c4"/>
<polygon points="19.5,56.5 19.8,83.1 0,80" fill="#0791d5"/>
<polygon points="19.5,56.5 32.1,55.7 19.8,83.1" fill="#0387cb"/>
<polygon points="32.1,55.7 34.4,79.2 19.8,83.1" fill="#036fa9"/>
<polygon points="32.1,55.7 43.7,61.9 34.4,79.2" fill="#036aa2"/>
<polygon points="43.7,61.9 41.9,79.8 34.4,79.2" fill="#046498"/>
<polygon points="43.7,61.9 59.9,60.2 41.9,79.8" fill="#056296"/>
<polygon points="59.9,60.2 63.9,77.3 41.9,79.8" fill="#04669c"/>
<polygon points="59.9,60.2 73.5,62.1 63.9,77.3" fill="#065c8a"/>
<polygon points="73.5,62.1 76.9,81.2 63.9,77.3" fill="#036aa3"/>
<polygon points="73.5,62.1 87.2,64.2 76.9,81.2" fill="#0279b7"/>
<polygon points="87.2,64.2 88.3,80.6 76.9,81.2" fill="#0284c7"/>
<polygon points="87.2,64.2 102.1,63.9 88.3,80.6" fill="#13a8eb"/>
<polygon points="102.1,63.9 108.5,83.4 88.3,80.6" fill="#0997da"/>
<polygon points="102.1,63.9 123.3,61.5 108.5,83.4" fill="#27b3f2"/>
<polygon points="123.3,61.5 119.6,81.5 108.5,83.4" fill="#0b9de1"/>
<polygon points="123.3,61.5 132.2,59.2 119.6,81.5" fill="#0690d3"/>
<polygon points="132.2,59.2 131.3,82.8 119.6,81.5" fill="#027cbc"/>
<polygon points="132.2,59.2 145.5,56.7 131.3,82.8" fill="#0369a1"/>
<polygon points="145.5,56.7 152.8,80.7 131.3,82.8" fill="#0281c3"/>
<polygon points="145.5,56.7 160.5,63.1 152.8,80.7" fill="#0997db"/>
<polygon points="160.5,63.1 161.8,79.2 152.8,80.7" fill="#0792d5"/>
<polygon points="160.5,63.1 177.6,56.2 161.8,79.2" fill="#04669c"/>
<polygon points="177.6,56.2 180.2,75.4 161.8,79.2" fill="#036ca6"/>
<polygon points="177.6,56.2 199,57.8 180.2,75.4" fill="#027bbb"/>
<polygon points="199,57.8 196,78.2 180.2,75.4" fill="#10a6ea"/>
<polygon points="199,57.8 214.4,56.1 196,78.2" fill="#0489cd"/>
<polygon points="214.4,56.1 212.6,83.7 196,78.2" fill="#0375b2"/>
<polygon points="214.4,56.1 222.8,64.3 212.6,83.7" fill="#03689f"/>
<polygon points="222.8,64.3 224,77.8 212.6,83.7" fill="#046499"/>
<polygon points="222.8,64.3 242.1,56.4 224,77.8" fill="#0369a1"/>
<polygon points="242.1,56.4 237.2,75.1 224,77.8" fill="#0375b2"/>
<polygon points="242.1,56.4 254,59.6 237.2,75.1" fill="#0c9fe2"/>
<polygon points="254,59.6 251.1,83.9 237.2,75.1" fill="#10a6ea"/>
<polygon points="254,59.6 266.8,62.6 251.1,83.9" fill="#0997da"/>
<polygon points="266.8,62.6 272,79.1 251.1,83.9" fill="#0690d3"/>
<polygon points="266.8,62.6 283.7,61.7 272,79.1" fill="#1eaeef"/>
<polygon points="283.7,61.7 285.6,80.6 272,79.1" fill="#17aaec"/>
<polygon points="283.7,61.7 300,60 285.6,80.6" fill="#16a9ec"/>
<polygon points="300,60 300,80 285.6,80.6" fill="#0da1e5"/>
<polygon points="0,80 19.8,83.1 0,100" fill="#027cbc"/>
<polygon points="19.8,83.1 16.1,98.2 0,100" fill="#0282c4"/>
<polygon points="19.8,83.1 34.4,79.2 16.1,98.2" fill="#027cbc"/>
<polygon points="34.4,79.2 29.4,100.7 16.1,98.2" fill="#0281c3"/>
<polygon points="34.4,79.2 41.9,79.8 29.4,100.7" fill="#0369a2"/>
<polygon points="41.9,79.8 40.2,95.1 29.4,100.7" fill="#0a99dd"/>
<polygon points="41.9,79.8 63.9,77.3 40.2,95.1" fill="#0895d8"/>
<polygon points="63.9,77.3 58.3,99.5 40.2,95.1" fill="#0280c1"/>
<polygon points="63.9,77.3 76.9,81.2 58.3,99.5" fill="#036aa2"/>
<polygon points="76.9,81.2 72.8,97.1 58.3,99.5" fill="#036da7"/>
<polygon points="76.9,81.2 88.3,80.6 72.8,97.1" fill="#0279b8"/>
<polygon points="88.3,80.6 91.6,102 72.8,97.1" fill="#0371ac"/>
<polygon points="88.3,80.6 108.5,83.4 91.6,102" fill="#036da6"/>
<polygon points="108.5,83.4 106.3,101.3 91.6,102" fill="#0278b6"/>
<polygon points="108.5,83.4 119.6,81.5 106.3,101.3" fill="#048acd"/>
<polygon points="119.6,81.5 115.2,103.8 106.3,101.3" fill="#0277b5"/>
<polygon points="119.6,81.5 131.3,82.8 115.2,103.8" fill="#0376b3"/>
<polygon points="131.3,82.8 131.5,95.6 115.2,103.8" fill="#0375b1"/>
<polygon points="131.3,82.8 152.8,80.7 131.5,95.6" fill="#0996d9"/>
<polygon points="152.8,80.7 149.3,102.9 131.5,95.6" fill="#0895d8"/>
<polygon points="152.8,80.7 161.8,79.2 149.3,102.9" fill="#027cbb"/>
<polygon points="161.8,79.2 165.6,99.8 149.3,102.9" fill="#0278b6"/>
<polygon points="161.8,79.2 180.2,75.4 165.6,99.8" fill="#0997da"/>
<polygon points="180.2,75.4 179.2,95 165.6,99.8" fill="#0b9cdf"/>
<polygon points="180.2,75.4 196,78.2 179.2,95" fill="#0a99dd"/>
<polygon points="196,78.2 196.4,103.3 179.2,95" fill="#0a99dc"/>
<polygon points="196,78.2 212.6,83.7 196.4,103.3" fill="#068ed1"/>
<polygon points="212.6,83.7 213.2,104.5 196.4,103.3" fill="#027cbc"/>
<polygon points="212.6,83.7 224,77.8 213.2,104.5" fill="#046397"/>
<polygon points="224,77.8 223.8,99.4 213.2,104.5" fill="#03679e"/>
<polygon points="224,77.8 237.2,75.1 223.8,99.4" fill="#0374b1"/>
<polygon points="237.2,75.1 236.9,101.7 223.8,99.4" fill="#058ccf"/>
<polygon points="237.2,75.1 251.1,83.9 236.9,101.7" fill="#0895d9"/>
<polygon points="251.1,83.9 257.1,96.9 236.9,101.7" fill="#0ca0e4"/>
<polygon points="251.1,83.9 272,79.1 257.1,96.9" fill="#15a9eb"/>
<polygon points="272,79.1 274.5,97.9 257.1,96.9" fill="#26b3f1"/>
<polygon points="272,79.1 285.6,80.6 274.5,97.9" fill="#0997da"/>
<polygon points="285.6,80.6 289.8,97.4 274.5,97.9" fill="#0280c2"/>
<polygon points="285.6,80.6 300,80 289.8,97.4" fill="#048bce"/>
<polygon points="300,80 300,100 289.8,97.4" fill="#0894d8"/>
<polygon points="0,100 16.1,98.2 0,120" fill="#046499"/>
<polygon points="16.1,98.2 11.3,124.9 0,120" fill="#0279b7"/>
<polygon points="16.1,98.2 29.4,100.7 11.3,124.9" fill="#0ea4e8"/>
<polygon points="29.4,100.7 32.5,117.2 11.3,124.9" fill="#0a9bdf"/>
<polygon points="29.4,100.7 40.2,95.1 32.5,117.2" fill="#18abed"/>
<polygon points="40.2,95.1 44.4,119.3 32.5,117.2" fill="#1eaeef"/>
<polygon points="40.2,95.1 58.3,99.5 44.4,119.3" fill="#0388cb"/>
<polygon points="58.3,99.5 60.4,117.6 44.4,119.3" fill="#0373ae"/>
<polygon points="58.3,99.5 72.8,97.1 60.4,117.6" fill="#036fa9"/>
<polygon points="72.8,97.1 74.6,117.9 60.4,117.6" fill="#0281c3"/>
<polygon points="72.8,97.1 91.6,102 74.6,117.9" fill="#0277b5"/>
<polygon points="91.6,102 94,124.6 74.6,117.9" fill="#0388cb"/>
<polygon points="91.6,102 106.3,101.3 94,124.6" fill="#068ed1"/>
<polygon points="106.3,101.3 107.3,116.2 94,124.6" fill="#21b0f0"/>
<polygon points="106.3,101.3 115.2,103.8 107.3,116.2" fill="#0386c9"/>
<polygon points="115.2,103.8 120.9,117.5 107.3,116.2" fill="#0280c2"/>
<polygon points="115.2,103.8 131.5,95.6 120.9,117.5" fill="#0370ab"/>
<polygon points="131.5,95.6 130.7,118.4 120.9,117.5" fill="#03679e"/>
<polygon points="131.5,95.6 149.3,102.9 130.7,118.4" fill="#0369a1"/>
<polygon points="149.3,102.9 151.1,119.7 130.7,118.4" fill="#065e8e"/>
<polygon points="149.3,102.9 165.6,99.8 151.1,119.7" fill="#027bbb"/>
<polygon points="165.6,99.8 160.5,115.1 151.1,119.7" fill="#0da2e6"/>
<polygon points="165.6,99.8 179.2,95 160.5,115.1" fill="#0da3e7"/>
<polygon points="179.2,95 183.8,120 160.5,115.1" fill="#0894d7"/>
<polygon points="179.2,95 196.4,103.3 183.8,120" fill="#058ccf"/>
<polygon points="196.4,103.3 191,117.4 183.8,120" fill="#0998dc"/>
<polygon points="196.4,103.3 213.2,104.5 191,117.4" fill="#0792d5"/>
<polygon points="213.2,104.5 212.6,119.9 191,117.4" fill="#0a99dc"/>
<polygon points="213.2,104.5 223.8,99.4 212.6,119.9" fill="#048bce"/>
<polygon points="223.8,99.4 222.5,118.5 212.6,119.9" fill="#16aaec"/>
<polygon points="223.8,99.4 236.9,101.7 222.5,118.5" fill="#0b9cdf"/>
<polygon points="236.9,101.7 236.1,118.4 222.5,118.5" fill="#27b3f2"/>
<polygon points="236.9,101.7 257.1,96.9 236.1,118.4" fill="#21b0f0"/>
<polygon points="257.1,96.9 256.3,121.1 236.1,118.4" fill="#0b9de1"/>
<polygon points="257.1,96.9 274.5,97.9 256.3,121.1" fill="#0997da"/>
<polygon points="274.5,97.9 265.8,123.1 256.3,121.1" fill="#027cbb"/>
<polygon points="274.5,97.9 289.8,97.4 265.8,123.1" fill="#0283c6"/>
<polygon points="289.8,97.4 285.6,121.9 265.8,123.1" fill="#027fc0"/>
<polygon points="289.8,97.4 300,100 285.6,121.9" fill="#0284c7"/>
<polygon points="300,100 300,120 285.6,121.9" fill="#0c9fe3"/>
<polygon points="0,120 11.3,124.9 0,140" fill="#027cbb"/>
<polygon points="11.3,124.9 12.3,139.3 0,140" fill="#1eaeef"/>
<polygon points="11.3,124.9 32.5,117.2 12.3,139.3" fill="#0ea5e9"/>
<polygon points="32.5,117.2 25.4,137.3 12.3,139.3" fill="#0895d9"/>
<polygon points="32.5,117.2 44.4,119.3 25.4,137.3" fill="#0790d4"/>
<polygon points="44.4,119.3 45.4,141.7 25.4,137.3" fill="#058ccf"/>
<polygon points="44.4,119.3 60.4,117.6 45.4,141.7" fill="#0894d8"/>
<polygon points="60.4,117.6 58.2,142.3 45.4,141.7" fill="#0369a0"/>
<polygon points="60.4,117.6 74.6,117.9 58.2,142.3" fill="#056194"/>
<polygon points="74.6,117.9 78.3,140 58.2,142.3" fill="#085782"/>
<polygon points="74.6,117.9 94,124.6 78.3,140" fill="#0280c1"/>
<polygon points="94,124.6 94.2,138.4 78.3,140" fill="#0373af"/>
<polygon points="94,124.6 107.3,116.2 94.2,138.4" fill="#0c9ee2"/>
<polygon points="107.3,116.2 100.5,143.1 94.2,138.4" fill="#0279b7"/>
<polygon points="107.3,116.2 120.9,117.5 100.5,143.1" fill="#0285c8"/>
<polygon points="120.9,117.5 117.4,136.9 100.5,143.1" fill="#04669c"/>
<polygon points="120.9,117.5 130.7,118.4 117.4,136.9" fill="#065d8c"/>
<polygon points="130.7,118.4 135.4,142.4 117.4,136.9" fill="#0278b7"/>
<polygon points="130.7,118.4 151.1,119.7 135.4,142.4" fill="#0277b4"/>
<polygon points="151.1,119.7 148.3,140.8 135.4,142.4" fill="#0893d7"/>
<polygon points="151.1,119.7 160.5,115.1 148.3,140.8" fill="#0895d9"/>
<polygon points="160.5,115.1 161.7,137.1 148.3,140.8" fill="#17aaec"/>
<polygon points="160.5,115.1 183.8,120 161.7,137.1" fill="#14a8eb"/>
<polygon points="183.8,120 178.3,142.8 161.7,137.1" fill="#0278b7"/>
<polygon points="183.8,120 191,117.4 178.3,142.8" fill="#0370ab"/>
<polygon points="191,117.4 190.9,144.5 178.3,142.8" fill="#0372ae"/>
<polygon points="191,117.4 212.6,119.9 190.9,144.5" fill="#0da1e5"/>
<polygon points="212.6,119.9 210.4,139.7 190.9,144.5" fill="#0ca0e4"/>
<polygon points="212.6,119.9 222.5,118.5 210.4,139.7" fill="#27b3f2"/>
<polygon points="222.5,118.5 222,138.6 210.4,139.7" fill="#027bbb"/>
<polygon points="222.5,118.5 236.1,118.4 222,138.6" fill="#0489cd"/>
<polygon points="236.1,118.4 237.3,143.5 222,138.6" fill="#0283c6"/>
<polygon points="236.1,118.4 256.3,121.1 237.3,143.5" fill="#0a9bdf"/>
<polygon points="256.3,121.1 252.7,144 237.3,143.5" fill="#0284c7"/>
<polygon points="256.3,121.1 265.8,123.1 252.7,144" fill="#036ea8"/>
<polygon points="265.8,123.1 265.7,139.2 252.7,144" fill="#036ea8"/>
<polygon points="265.8,123.1 285.6,121.9 265.7,139.2" fill="#0277b5"/>
<polygon points="285.6,121.9 286.7,137 265.7,139.2" fill="#027ebf"/>
<polygon points="285.6,121.9 300,120 286.7,137" fill="#0da1e5"/>
<polygon points="300,120 300,140 286.7,137" fill="#0791d5"/>
<polygon points="0,140 12.3,139.3 0,160" fill="#46c1f9"/>
<polygon points="12.3,139.3 17.8,161.8 0,160" fill="#5cc9fa"/>
<polygon points="12.3,139.3 25.4,137.3 17.8,161.8" fill="#17aaec"/>
<polygon points="25.4,137.3 27.2,156.2 17.8,161.8" fill="#0895d9"/>
<polygon points="25.4,137.3 45.4,141.7 27.2,156.2" fill="#027cbb"/>
<polygon points="45.4,141.7 43.8,156.4 27.2,156.2" fill="#027dbd"/>
<polygon points="45.4,141.7 58.2,142.3 43.8,156.4" fill="#04669b"/>
<polygon points="58.2,142.3 58.2,165 43.8,156.4" fill="#056193"/>
<polygon points="58.2,142.3 78.3,140 58.2,165" fill="#075a86"/>
<polygon points="78.3,140 74.2,163 58.2,165" fill="#036aa3"/>
<polygon points="78.3,140 94.2,138.4 74.2,163" fill="#056091"/>
<polygon points="94.2,138.4 87.3,155.7 74.2,163" fill="#03689f"/>
<polygon points="94.2,138.4 100.5,143.1 87.3,155.7" fill="#046498"/>
<polygon points="100.5,143.1 100.3,164.5 87.3,155.7" fill="#0791d5"/>
<polygon points="100.5,143.1 117.4,136.9 100.3,164.5" fill="#0388cb"/>
<polygon points="117.4,136.9 115.9,155.9 100.3,164.5" fill="#0da2e6"/>
<polygon points="117.4,136.9 135.4,142.4 115.9,155.9" fill="#0da3e6"/>
<polygon points="135.4,142.4 135.1,157.5 115.9,155.9" fill="#0c9fe3"/>
<polygon points="135.4,142.4 148.3,140.8 135.1,157.5" fill="#0793d6"/>
<polygon points="148.3,140.8 153.2,159.5 135.1,157.5" fill="#0791d5"/>
<polygon points="148.3,140.8 161.7,137.1 153.2,159.5" fill="#13a8eb"/>
<polygon points="161.7,137.1 161.5,164.1 153.2,159.5" fill="#0b9ce0"/>
<polygon points="161.7,137.1 178.3,142.8 161.5,164.1" fill="#0370ab"/>
<polygon points="178.3,142.8 176.6,161 161.5,164.1" fill="#03679e"/>
<polygon points="178.3,142.8 190.9,144.5 176.6,161" fill="#0370ab"/>
<polygon points="190.9,144.5 196,159.2 176.6,161" fill="#027fc0"/>
<polygon points="190.9,144.5 210.4,139.7 196,159.2" fill="#0280c1"/>
<polygon points="210.4,139.7 210,156.7 196,159.2" fill="#0283c5"/>
<polygon points="210.4,139.7 222,138.6 210,156.7" fill="#036aa3"/>
<polygon points="222,138.6 220.8,155.2 210,156.7" fill="#0281c3"/>
<polygon points="222,138.6 237.3,143.5 220.8,155.2" fill="#068fd2"/>
<polygon points="237.3,143.5 238,162.8 220.8,155.2" fill="#1aaced"/>
<polygon points="237.3,143.5 252.7,144 238,162.8" fill="#058bce"/>
<polygon points="252.7,144 250.8,162.9 238,162.8" fill="#0a99dd"/>
<polygon points="252.7,144 265.7,139.2 250.8,162.9" fill="#0793d6"/>
<polygon points="265.7,139.2 267,159.5 250.8,162.9" fill="#0282c4"/>
<polygon points="265.7,139.2 286.7,137 267,159.5" fill="#03689f"/>
<polygon points="286.7,137 288.3,159.5 267,159.5" fill="#04679d"/>
<polygon points="286.7,137 300,140 288.3,159.5" fill="#036faa"/>
<polygon points="300,140 300,160 288.3,159.5" fill="#056092"/>
<polygon points="0,160 17.8,161.8 0,180" fill="#0fa6e9"/>
<polygon points="17.8,161.8 12.8,184.3 0,180" fill="#0ea5e9"/>
<polygon points="17.8,161.8 27.2,156.2 12.8,184.3" fill="#2fb8f5"/>
<polygon points="27.2,156.2 32.3,176.2 12.8,184.3" fill="#23b1f1"/>
<polygon points="27.2,156.2 43.8,156.4 32.3,176.2" fill="#068ed1"/>
<polygon points="43.8,156.4 40.9,177.4 32.3,176.2" fill="#0b9cdf"/>
<polygon points="43.8,156.4 58.2,165 40.9,177.4" fill="#0281c2"/>
<polygon points="58.2,165 59.9,175.3 40.9,177.4" fill="#048acd"/>
<polygon points="58.2,165 74.2,163 59.9,175.3" fill="#027fc0"/>
<polygon points="74.2,163 74.3,180.4 59.9,175.3" fill="#0998dc"/>
<polygon points="74.2,163 87.3,155.7 74.3,180.4" fill="#0690d3"/>
<polygon points="87.3,155.7 85.6,184.7 74.3,180.4" fill="#13a8eb"/>
<polygon points="87.3,155.7 100.3,164.5 85.6,184.7" fill="#1fafef"/>
<polygon points="100.3,164.5 100.5,177.9 85.6,184.7" fill="#27b3f2"/>
<polygon points="100.3,164.5 115.9,155.9 100.5,177.9" fill="#1fafef"/>
<polygon points="115.9,155.9 116.3,179.3 100.5,177.9" fill="#0279b7"/>
<polygon points="115.9,155.9 135.1,157.5 116.3,179.3" fill="#0369a1"/>
<polygon points="135.1,157.5 133.4,176.5 116.3,179.3" fill="#0368a0"/>
<polygon points="135.1,157.5 153.2,159.5 133.4,176.5" fill="#0b9de1"/>
<polygon points="153.2,159.5 153.9,181.4 133.4,176.5" fill="#1aaced"/>
<polygon points="153.2,159.5 161.5,164.1 153.9,181.4" fill="#0996da"/>
<polygon points="161.5,164.1 167.5,182 153.9,181.4" fill="#0374b1"/>
<polygon points="161.5,164.1 176.6,161 167.5,182" fill="#036faa"/>
<polygon points="176.6,161 183.3,181.8 167.5,182" fill="#0281c3"/>
<polygon points="176.6,161 196,159.2 183.3,181.8" fill="#0387cb"/>
<polygon points="196,159.2 199.2,184.8 183.3,181.8" fill="#0893d7"/>
<polygon points="196,159.2 210,156.7 199.2,184.8" fill="#058dd0"/>
<polygon points="210,156.7 207,177.9 199.2,184.8" fill="#0279b7"/>
<polygon points="210,156.7 220.8,155.2 207,177.9" fill="#0488cb"/>
<polygon points="220.8,155.2 224.7,179.9 207,177.9" fill="#0ea4e8"/>
<polygon points="220.8,155.2 238,162.8 224.7,179.9" fill="#2bb5f3"/>
<polygon points="238,162.8 235.6,177.3 224.7,179.9" fill="#13a8eb"/>
<polygon points="238,162.8 250.8,162.9 235.6,177.3" fill="#14a9eb"/>
<polygon points="250.8,162.9 253.9,175.9 235.6,177.3" fill="#17aaec"/>
<polygon points="250.8,162.9 267,159.5 253.9,175.9" fill="#048acd"/>
<polygon points="267,159.5 266.5,180 253.9,175.9" fill="#0376b3"/>
<polygon points="267,159.5 288.3,159.5 266.5,180" fill="#036da7"/>
<polygon points="288.3,159.5 282.3,178.2 266.5,180" fill="#0b9de1"/>
<polygon points="288.3,159.5 300,160 282.3,178.2" fill="#027bba"/>
<polygon points="300,160 300,180 282.3,178.2" fill="#0376b3"/>
<polygon points="0,180 12.8,184.3 0,200" fill="#0280c1"/>
<polygon points="12.8,184.3 15,200 0,200" fill="#11a6ea"/>
<polygon points="12.8,184.3 32.3,176.2 15,200" fill="#35bbf7"/>
<polygon points="32.3,176.2 30,200 15,200" fill="#058dd0"/>
<polygon points="32.3,176.2 40.9,177.4 30,200" fill="#058dd0"/>
<polygon points="40.9,177.4 45,200 30,200" fill="#0894d8"/>
<polygon points="40.9,177.4 59.9,175.3 45,200" fill="#18abed"/>
<polygon points="59.9,175.3 60,200 45,200" fill="#24b2f1"/>
<polygon points="59.9,175.3 74.3,180.4 60,200" fill="#1aaced"/>
<polygon points="74.3,180.4 75,200 60,200" fill="#0b9de1"/>
<polygon points="74.3,180.4 85.6,184.7 75,200" fill="#0c9fe3"/>
<polygon points="85.6,184.7 90,200 75,200" fill="#0a99dd"/>
<polygon points="85.6,184.7 100.5,177.9 90,200" fill="#13a8eb"/>
<polygon points="100.5,177.9 105,200 90,200" fill="#11a7ea"/>
<polygon points="100.5,177.9 116.3,179.3 105,200" fill="#027dbd"/>
<polygon points="116.3,179.3 120,200 105,200" fill="#0388cb"/>
<polygon points="116.3,179.3 133.4,176.5 120,200" fill="#0282c4"/>
<polygon points="133.4,176.5 135,200 120,200" fill="#20aff0"/>
<polygon points="133.4,176.5 153.9,181.4 135,200" fill="#0ea5e9"/>
<polygon points="153.9,181.4 150,200 135,200" fill="#0278b6"/>
<polygon points="153.9,181.4 167.5,182 150,200" fill="#046499"/>
<polygon points="167.5,182 165,200 150,200" fill="#056294"/>
<polygon points="167.5,182 183.3,181.8 165,200" fill="#0282c4"/>
<polygon points="183.3,181.8 180,200 165,200" fill="#0895d9"/>
<polygon points="183.3,181.8 199.2,184.8 180,200" fill="#0ca0e4"/>
<polygon points="199.2,184.8 195,200 180,200" fill="#0b9cdf"/>
<polygon points="199.2,184.8 207,177.9 195,200" fill="#027ab9"/>
<polygon points="207,177.9 210,200 195,200" fill="#0386c9"/>
<polygon points="207,177.9 224.7,179.9 210,200" fill="#0ca0e4"/>
<polygon points="224.7,179.9 225,200 210,200" fill="#0da3e7"/>
<polygon points="224.7,179.9 235.6,177.3 225,200" fill="#0894d7"/>
<polygon points="235.6,177.3 240,200 225,200" fill="#04679d"/>
<polygon points="235.6,177.3 253.9,175.9 240,200" fill="#0278b6"/>
<polygon points="253.9,175.9 255,200 240,200" fill="#058bcf"/>
<polygon points="253.9,175.9 266.5,180 255,200" fill="#16aaec"/>
<polygon points="266.5,180 270,200 255,200" fill="#11a7ea"/>
<polygon points="266.5,180 282.3,178.2 270,200" fill="#0da3e7"/>
<polygon points="282.3,178.2 285,200 270,200" fill="#27b3f2"/>
<polygon points="282.3,178.2 300,180 285,200" fill="#17aaec"/>
<polygon points="300,180 300,200 285,200" fill="#10a6ea"/>
</svg>
