<svg width="300" height="200" viewBox="0 0 300 200" fill="none" xmlns="http://www.w3.org/2000/svg">
<polygon points="0,0 15,0 0,20" fill="#027cbc"/>
<polygon points="15,0 19.1,18.2 0,20" fill="#0281c2"/>
<polygon points="15,0 30,0 19.1,18.2" fill="#0372ad"/>
<polygon points="30,0 31.9,20.2 19.1,18.2" fill="#0284c7"/>
<polygon points="30,0 45,0 31.9,20.2" fill="#0da1e5"/>
<polygon points="45,0 41.5,16.2 31.9,20.2" fill="#29b4f3"/>
<polygon points="45,0 60,0 41.5,16.2" fill="#0998db"/>
<polygon points="60,0 58.3,23.9 41.5,16.2" fill="#056296"/>
<polygon points="60,0 75,0 58.3,23.9" fill="#075986"/>
<polygon points="75,0 74.3,15.1 58.3,23.9" fill="#027ab8"/>
<polygon points="75,0 90,0 74.3,15.1" fill="#0893d7"/>
<polygon points="90,0 89.2,18 74.3,15.1" fill="#0998db"/>
<polygon points="90,0 105,0 89.2,18" fill="#0283c5"/>
<polygon points="105,0 102.2,15.7 89.2,18" fill="#0b9cdf"/>
<polygon points="105,0 120,0 102.2,15.7" fill="#35bbf7"/>
<polygon points="120,0 121,22.5 102.2,15.7" fill="#21b0f0"/>
<polygon points="120,0 135,0 121,22.5" fill="#28b4f2"/>
<polygon points="135,0 137.6,15.2 121,22.5" fill="#027ebf"/>
<polygon points="135,0 150,0 137.6,15.2" fill="#10a6ea"/>
<polygon points="150,0 149.9,22.8 137.6,15.2" fill="#058bce"/>
<polygon points="150,0 165,0 149.9,22.8" fill="#17aaec"/>
<polygon points="165,0 161.4,21.5 149.9,22.8" fill="#0690d3"/>
<polygon points="165,0 180,0 161.4,21.5" fill="#0a9ade"/>
<polygon points="180,0 176,17.2 161.4,21.5" fill="#0ea5e9"/>
<polygon points="180,0 195,0 176,17.2" fill="#1aaced"/>
<polygon points="195,0 190.7,24.3 176,17.2" fill="#1cadee"/>
<polygon points="195,0 210,0 190.7,24.3" fill="#12a7ea"/>
<polygon points="210,0 214.5,21.3 190.7,24.3" fill="#0b9ee1"/>
<polygon points="210,0 225,0 214.5,21.3" fill="#0385c9"/>
<polygon points="225,0 223.5,23 214.5,21.3" fill="#0371ac"/>
<polygon points="225,0 240,0 223.5,23" fill="#04669b"/>
<polygon points="240,0 243.7,19.4 223.5,23" fill="#0368a0"/>
<polygon points="240,0 255,0 243.7,19.4" fill="#036ea9"/>
<polygon points="255,0 259.5,21.1 243.7,19.4" fill="#03689f"/>
<polygon points="255,0 270,0 259.5,21.1" fill="#04669c"/>
<polygon points="270,0 269.4,21.9 259.5,21.1" fill="#0370ab"/>
<polygon points="270,0 285,0 269.4,21.9" fill="#0279b7"/>
<polygon points="285,0 288.1,17.2 269.4,21.9" fill="#0279b7"/>
<polygon points="285,0 300,0 288.1,17.2" fill="#056192"/>
<polygon points="300,0 300,20 288.1,17.2" fill="#065e8d"/>
<polygon points="0,20 19.1,18.2 0,40" fill="#1cadee"/>
<polygon points="19.1,18.2 11.1,39.6 0,40" fill="#55c6fa"/>
<polygon points="19.1,18.2 31.9,20.2 11.1,39.6" fill="#29b5f3"/>
<polygon points="31.9,20.2 27.2,37.1 11.1,39.6" fill="#24b2f1"/>
<polygon points="31.9,20.2 41.5,16.2 27.2,37.1" fill="#0a99dd"/>
<polygon points="41.5,16.2 45.8,40.3 27.2,37.1" fill="#0b9ee1"/>
<polygon points="41.5,16.2 58.3,23.9 45.8,40.3" fill="#027ebe"/>
<polygon points="58.3,23.9 58.7,36.1 45.8,40.3" fill="#04669b"/>
<polygon points="58.3,23.9 74.3,15.1 58.7,36.1" fill="#036ea9"/>
<polygon points="74.3,15.1 74.1,43.4 58.7,36.1" fill="#0790d4"/>
<polygon points="74.3,15.1 89.2,18 74.1,43.4" fill="#0da2e6"/>
<polygon points="89.2,18 85.3,38.5 74.1,43.4" fill="#0489cc"/>
<polygon points="89.2,18 102.2,15.7 85.3,38.5" fill="#0998db"/>
<polygon points="102.2,15.7 106.3,37.2 85.3,38.5" fill="#058dd0"/>
<polygon points="102.2,15.7 121,22.5 106.3,37.2" fill="#0281c3"/>
<polygon points="121,22.5 124.1,44 106.3,37.2" fill="#04659a"/>
<polygon points="121,22.5 137.6,15.2 124.1,44" fill="#056193"/>
<polygon points="137.6,15.2 137.6,37.4 124.1,44" fill="#056396"/>
<polygon points="137.6,15.2 149.9,22.8 137.6,37.4" fill="#036ba4"/>
<polygon points="149.9,22.8 153,42.2 137.6,37.4" fill="#027fc0"/>
<polygon points="149.9,22.8 161.4,21.5 153,42.2" fill="#0387ca"/>
<polygon points="161.4,21.5 166.3,38.3 153,42.2" fill="#0a99dd"/>
<polygon points="161.4,21.5 176,17.2 166.3,38.3" fill="#18abed"/>
<polygon points="176,17.2 181.8,36.4 166.3,38.3" fill="#0ca1e5"/>
<polygon points="176,17.2 190.7,24.3 181.8,36.4" fill="#0a9bde"/>
<polygon points="190.7,24.3 198,40.2 181.8,36.4" fill="#0370aa"/>
<polygon points="190.7,24.3 214.5,21.3 198,40.2" fill="#0279b7"/>
<polygon points="214.5,21.3 209.8,35.3 198,40.2" fill="#0373af"/>
<polygon points="214.5,21.3 223.5,23 209.8,35.3" fill="#027ebf"/>
<polygon points="223.5,23 227.1,44.5 209.8,35.3" fill="#046499"/>
<polygon points="223.5,23 243.7,19.4 227.1,44.5" fill="#065f8f"/>
<polygon points="243.7,19.4 240.5,40.5 227.1,44.5" fill="#055f90"/>
<polygon points="243.7,19.4 259.5,21.1 240.5,40.5" fill="#046499"/>
<polygon points="259.5,21.1 253.9,44.2 240.5,40.5" fill="#0373af"/>
<polygon points="259.5,21.1 269.4,21.9 253.9,44.2" fill="#0285c8"/>
<polygon points="269.4,21.9 272.6,40.9 253.9,44.2" fill="#0488cb"/>
<polygon points="269.4,21.9 288.1,17.2 272.6,40.9" fill="#0372ae"/>
<polygon points="288.1,17.2 289.7,42 272.6,40.9" fill="#046499"/>
<polygon points="288.1,17.2 300,20 289.7,42" fill="#04659a"/>
<polygon points="300,20 300,40 289.7,42" fill="#065e8f"/>
<polygon points="0,40 11.1,39.6 0,60" fill="#38bdf8"/>
<polygon points="11.1,39.6 19.2,55.4 0,60" fill="#19abed"/>
<polygon points="11.1,39.6 27.2,37.1 19.2,55.4" fill="#25b2f1"/>
<polygon points="27.2,37.1 26.6,57.2 19.2,55.4" fill="#0278b6"/>
<polygon points="27.2,37.1 45.8,40.3 26.6,57.2" fill="#027bba"/>
<polygon points="45.8,40.3 47.5,63.8 26.6,57.2" fill="#04669b"/>
<polygon points="45.8,40.3 58.7,36.1 47.5,63.8" fill="#03689f"/>
<polygon points="58.7,36.1 60.7,63.6 47.5,63.8" fill="#056091"/>
<polygon points="58.7,36.1 74.1,43.4 60.7,63.6" fill="#0376b4"/>
<polygon points="74.1,43.4 72.5,61.4 60.7,63.6" fill="#0894d7"/>
<polygon points="74.1,43.4 85.3,38.5 72.5,61.4" fill="#0998db"/>
<polygon points="85.3,38.5 88.8,57.2 72.5,61.4" fill="#1eaeef"/>
<polygon points="85.3,38.5 106.3,37.2 88.8,57.2" fill="#0998dc"/>
<polygon points="106.3,37.2 104,61.7 88.8,57.2" fill="#027fc0"/>
<polygon points="106.3,37.2 124.1,44 104,61.7" fill="#065e8e"/>
<polygon points="124.1,44 116.7,58.6 104,61.7" fill="#03679e"/>
<polygon points="124.1,44 137.6,37.4 116.7,58.6" fill="#0375b2"/>
<polygon points="137.6,37.4 131.5,63.4 116.7,58.6" fill="#0279b8"/>
<polygon points="137.6,37.4 153,42.2 131.5,63.4" fill="#0376b3"/>
<polygon points="153,42.2 148.5,59 131.5,63.4" fill="#0277b4"/>
<polygon points="153,42.2 166.3,38.3 148.5,59" fill="#0791d4"/>
<polygon points="166.3,38.3 168.4,58 148.5,59" fill="#058ccf"/>
<polygon points="166.3,38.3 181.8,36.4 168.4,58" fill="#0488cb"/>
<polygon points="181.8,36.4 184.7,61.5 168.4,58" fill="#058bce"/>
<polygon points="181.8,36.4 198,40.2 184.7,61.5" fill="#0277b5"/>
<polygon points="198,40.2 193.2,64.6 184.7,61.5" fill="#0998dc"/>
<polygon points="198,40.2 209.8,35.3 193.2,64.6" fill="#0388cb"/>
<polygon points="209.8,35.3 206.7,58.7 193.2,64.6" fill="#0996da"/>
<polygon points="209.8,35.3 227.1,44.5 206.7,58.7" fill="#046499"/>
<polygon points="227.1,44.5 227.7,60.6 206.7,58.7" fill="#0372ae"/>
<polygon points="227.1,44.5 240.5,40.5 227.7,60.6" fill="#0373b0"/>
<polygon points="240.5,40.5 237.3,57.6 227.7,60.6" fill="#0b9cdf"/>
<polygon points="240.5,40.5 253.9,44.2 237.3,57.6" fill="#0690d4"/>
<polygon points="253.9,44.2 250.8,60 237.3,57.6" fill="#0998dc"/>
<polygon points="253.9,44.2 272.6,40.9 250.8,60" fill="#027cbc"/>
<polygon points="272.6,40.9 269.5,60.1 250.8,60" fill="#0371ad"/>
<polygon points="272.6,40.9 289.7,42 269.5,60.1" fill="#036ba4"/>
<polygon points="289.7,42 280.1,57.3 269.5,60.1" fill="#0895d8"/>
<polygon points="289.7,42 300,40 280.1,57.3" fill="#027dbd"/>
<polygon points="300,40 300,60 280.1,57.3" fill="#12a8eb"/>
<polygon points="0,60 19.2,55.4 0,80" fill="#0284c7"/>
<polygon points="19.2,55.4 11.3,76.1 0,80" fill="#0998db"/>
<polygon points="19.2,55.4 26.6,57.2 11.3,76.1" fill="#0280c1"/>
<polygon points="26.6,57.2 26.3,77 11.3,76.1" fill="#0a99dd"/>
<polygon points="26.6,57.2 47.5,63.8 26.3,77" fill="#0375b2"/>
<polygon points="47.5,63.8 45.3,77 26.3,77" fill="#058bce"/>
<polygon points="47.5,63.8 60.7,63.6 45.3,77" fill="#036ba3"/>
<polygon points="60.7,63.6 63.2,81.5 45.3,77" fill="#0283c5"/>
<polygon points="60.7,63.6 72.5,61.4 63.2,81.5" fill="#068fd2"/>
<polygon points="72.5,61.4 79.9,83.5 63.2,81.5" fill="#0489cc"/>
<polygon points="72.5,61.4 88.8,57.2 79.9,83.5" fill="#12a8eb"/>
<polygon points="88.8,57.2 86.2,75.5 79.9,83.5" fill="#0c9fe3"/>
<polygon points="88.8,57.2 104,61.7 86.2,75.5" fill="#068ed1"/>
<polygon points="104,61.7 105.6,78.7 86.2,75.5" fill="#036ea8"/>
<polygon points="104,61.7 116.7,58.6 105.6,78.7" fill="#0371ac"/>
<polygon points="116.7,58.6 123.8,78.2 105.6,78.7" fill="#0283c6"/>
<polygon points="116.7,58.6 131.5,63.4 123.8,78.2" fill="#027dbc"/>
<polygon points="131.5,63.4 133.6,75.4 123.8,78.2" fill="#046499"/>
<polygon points="131.5,63.4 148.5,59 133.6,75.4" fill="#056396"/>
<polygon points="148.5,59 147.7,77.1 133.6,75.4" fill="#03679e"/>
<polygon points="148.5,59 168.4,58 147.7,77.1" fill="#027ab9"/>
<polygon points="168.4,58 167.1,80.4 147.7,77.1" fill="#0792d5"/>
<polygon points="168.4,58 184.7,61.5 167.1,80.4" fill="#13a8eb"/>
<polygon points="184.7,61.5 176.9,75.9 167.1,80.4" fill="#22b1f0"/>
<polygon points="184.7,61.5 193.2,64.6 176.9,75.9" fill="#2bb5f3"/>
<polygon points="193.2,64.6 198.7,75.7 176.9,75.9" fill="#31b9f5"/>
<polygon points="193.2,64.6 206.7,58.7 198.7,75.7" fill="#16aaec"/>
<polygon points="206.7,58.7 209,79.3 198.7,75.7" fill="#068ed1"/>
<polygon points="206.7,58.7 227.7,60.6 209,79.3" fill="#058dd1"/>
<polygon points="227.7,60.6 225.2,76.1 209,79.3" fill="#0b9de1"/>
<polygon points="227.7,60.6 237.3,57.6 225.2,76.1" fill="#15a9eb"/>
<polygon points="237.3,57.6 237.7,83.7 225.2,76.1" fill="#0c9ee2"/>
<polygon points="237.3,57.6 250.8,60 237.7,83.7" fill="#0998db"/>
<polygon points="250.8,60 258.6,84 237.7,83.7" fill="#048acd"/>
<polygon points="250.8,60 269.5,60.1 258.6,84" fill="#027ebf"/>
<polygon points="269.5,60.1 267.6,75.1 258.6,84" fill="#0285c8"/>
<polygon points="269.5,60.1 280.1,57.3 267.6,75.1" fill="#0ea4e8"/>
<polygon points="280.1,57.3 283.9,80.3 267.6,75.1" fill="#068fd2"/>
<polygon points="280.1,57.3 300,60 283.9,80.3" fill="#17aaec"/>
<polygon points="300,60 300,80 283.9,80.3" fill="#058bcf"/>
<polygon points="0,80 11.3,76.1 0,100" fill="#13a8eb"/>
<polygon points="11.3,76.1 14,103.1 0,100" fill="#19abed"/>
<polygon points="11.3,76.1 26.3,77 14,103.1" fill="#25b2f1"/>
<polygon points="26.3,77 26.5,96 14,103.1" fill="#0387ca"/>
<polygon points="26.3,77 45.3,77 26.5,96" fill="#0283c5"/>
<polygon points="45.3,77 44.4,101.9 26.5,96" fill="#036ba4"/>
<polygon points="45.3,77 63.2,81.5 44.4,101.9" fill="#058ccf"/>
<polygon points="63.2,81.5 60.6,102.1 44.4,101.9" fill="#027bbb"/>
<polygon points="63.2,81.5 79.9,83.5 60.6,102.1" fill="#0370aa"/>
<polygon points="79.9,83.5 77.7,103.5 60.6,102.1" fill="#0280c1"/>
<polygon points="79.9,83.5 86.2,75.5 77.7,103.5" fill="#0894d7"/>
<polygon points="86.2,75.5 86.8,103.2 77.7,103.5" fill="#0280c1"/>
<polygon points="86.2,75.5 105.6,78.7 86.8,103.2" fill="#036ba4"/>
<polygon points="105.6,78.7 103.1,101.8 86.8,103.2" fill="#027ebf"/>
<polygon points="105.6,78.7 123.8,78.2 103.1,101.8" fill="#0997db"/>
<polygon points="123.8,78.2 117.9,101.2 103.1,101.8" fill="#12a7ea"/>
<polygon points="123.8,78.2 133.6,75.4 117.9,101.2" fill="#0376b3"/>
<polygon points="133.6,75.4 137.9,101.3 117.9,101.2" fill="#056294"/>
<polygon points="133.6,75.4 147.7,77.1 137.9,101.3" fill="#075a86"/>
<polygon points="147.7,77.1 150.5,101.1 137.9,101.3" fill="#046397"/>
<polygon points="147.7,77.1 167.1,80.4 150.5,101.1" fill="#058ccf"/>
<polygon points="167.1,80.4 166,98.4 150.5,101.1" fill="#0373af"/>
<polygon points="167.1,80.4 176.9,75.9 166,98.4" fill="#0281c3"/>
<polygon points="176.9,75.9 176.7,95.1 166,98.4" fill="#0996da"/>
<polygon points="176.9,75.9 198.7,75.7 176.7,95.1" fill="#4bc3f9"/>
<polygon points="198.7,75.7 192.1,99.3 176.7,95.1" fill="#34bbf7"/>
<polygon points="198.7,75.7 209,79.3 192.1,99.3" fill="#0996da"/>
<polygon points="209,79.3 211.4,104.2 192.1,99.3" fill="#027cbc"/>
<polygon points="209,79.3 225.2,76.1 211.4,104.2" fill="#0282c4"/>
<polygon points="225.2,76.1 222.4,103.9 211.4,104.2" fill="#0375b3"/>
<polygon points="225.2,76.1 237.7,83.7 222.4,103.9" fill="#0282c5"/>
<polygon points="237.7,83.7 237,95.5 222.4,103.9" fill="#0387ca"/>
<polygon points="237.7,83.7 258.6,84 237,95.5" fill="#0895d9"/>
<polygon points="258.6,84 253.1,97.7 237,95.5" fill="#027dbd"/>
<polygon points="258.6,84 267.6,75.1 253.1,97.7" fill="#027ab9"/>
<polygon points="267.6,75.1 274.3,96.9 253.1,97.7" fill="#027ab9"/>
<polygon points="267.6,75.1 283.9,80.3 274.3,96.9" fill="#0373af"/>
<polygon points="283.9,80.3 284.3,98.9 274.3,96.9" fill="#036da6"/>
<polygon points="283.9,80.3 300,80 284.3,98.9" fill="#036ba4"/>
<polygon points="300,80 300,100 284.3,98.9" fill="#036ea9"/>
<polygon points="0,100 14,103.1 0,120" fill="#0489cc"/>
<polygon points="14,103.1 16.6,116.1 0,120" fill="#04679d"/>
<polygon points="14,103.1 26.5,96 16.6,116.1" fill="#056294"/>
<polygon points="26.5,96 29.2,117.6 16.6,116.1" fill="#09537b"/>
<polygon points="26.5,96 44.4,101.9 29.2,117.6" fill="#065d8c"/>
<polygon points="44.4,101.9 47.1,116.8 29.2,117.6" fill="#056294"/>
<polygon points="44.4,101.9 60.6,102.1 47.1,116.8" fill="#04669d"/>
<polygon points="60.6,102.1 56.8,123.3 47.1,116.8" fill="#04669c"/>
<polygon points="60.6,102.1 77.7,103.5 56.8,123.3" fill="#058dd0"/>
<polygon points="77.7,103.5 75.8,116.1 56.8,123.3" fill="#16a9ec"/>
<polygon points="77.7,103.5 86.8,103.2 75.8,116.1" fill="#0489cc"/>
<polygon points="86.8,103.2 94.4,123.2 75.8,116.1" fill="#0280c1"/>
<polygon points="86.8,103.2 103.1,101.8 94.4,123.2" fill="#058ccf"/>
<polygon points="103.1,101.8 104.8,116.3 94.4,123.2" fill="#1dadee"/>
<polygon points="103.1,101.8 117.9,101.2 104.8,116.3" fill="#20afef"/>
<polygon points="117.9,101.2 116.6,123.5 104.8,116.3" fill="#0b9de1"/>
<polygon points="117.9,101.2 137.9,101.3 116.6,123.5" fill="#0376b4"/>
<polygon points="137.9,101.3 138.9,118.1 116.6,123.5" fill="#056193"/>
<polygon points="137.9,101.3 150.5,101.1 138.9,118.1" fill="#075b88"/>
<polygon points="150.5,101.1 149.7,124.3 138.9,118.1" fill="#046499"/>
<polygon points="150.5,101.1 166,98.4 149.7,124.3" fill="#065e8e"/>
<polygon points="166,98.4 160.6,118.9 149.7,124.3" fill="#056091"/>
<polygon points="166,98.4 176.7,95.1 160.6,118.9" fill="#0387ca"/>
<polygon points="176.7,95.1 179.8,120.8 160.6,118.9" fill="#058dd1"/>
<polygon points="176.7,95.1 192.1,99.3 179.8,120.8" fill="#0690d3"/>
<polygon points="192.1,99.3 190.7,116.4 179.8,120.8" fill="#04679d"/>
<polygon points="192.1,99.3 211.4,104.2 190.7,116.4" fill="#0278b6"/>
<polygon points="211.4,104.2 207.1,121.5 190.7,116.4" fill="#0280c1"/>
<polygon points="211.4,104.2 222.4,103.9 207.1,121.5" fill="#0278b5"/>
<polygon points="222.4,103.9 226.3,120.4 207.1,121.5" fill="#0278b6"/>
<polygon points="222.4,103.9 237,95.5 226.3,120.4" fill="#027ab9"/>
<polygon points="237,95.5 236.9,121.8 226.3,120.4" fill="#068fd3"/>
<polygon points="237,95.5 253.1,97.7 236.9,121.8" fill="#0285c8"/>
<polygon points="253.1,97.7 255.3,120.4 236.9,121.8" fill="#0388cb"/>
<polygon points="253.1,97.7 274.3,96.9 255.3,120.4" fill="#027fc0"/>
<polygon points="274.3,96.9 267.4,116.1 255.3,120.4" fill="#0282c5"/>
<polygon points="274.3,96.9 284.3,98.9 267.4,116.1" fill="#0376b4"/>
<polygon points="284.3,98.9 287.6,119.8 267.4,116.1" fill="#0387ca"/>
<polygon points="284.3,98.9 300,100 287.6,119.8" fill="#0280c2"/>
<polygon points="300,100 300,120 287.6,119.8" fill="#0285c8"/>
<polygon points="0,120 16.6,116.1 0,140" fill="#056091"/>
<polygon points="16.6,116.1 12.8,137.9 0,140" fill="#075b88"/>
<polygon points="16.6,116.1 29.2,117.6 12.8,137.9" fill="#09527b"/>
<polygon points="29.2,117.6 32.9,137.4 12.8,137.9" fill="#065d8c"/>
<polygon points="29.2,117.6 47.1,116.8 32.9,137.4" fill="#056295"/>
<polygon points="47.1,116.8 41,137.7 32.9,137.4" fill="#046397"/>
<polygon points="47.1,116.8 56.8,123.3 41,137.7" fill="#056295"/>
<polygon points="56.8,123.3 56.5,142.1 41,137.7" fill="#0368a0"/>
<polygon points="56.8,123.3 75.8,116.1 56.5,142.1" fill="#0388cb"/>
<polygon points="75.8,116.1 76.9,144.6 56.5,142.1" fill="#0277b4"/>
<polygon points="75.8,116.1 94.4,123.2 76.9,144.6" fill="#058dd0"/>
<polygon points="94.4,123.2 94.3,142.2 76.9,144.6" fill="#0793d6"/>
<polygon points="94.4,123.2 104.8,116.3 94.3,142.2" fill="#14a9eb"/>
<polygon points="104.8,116.3 106.5,143.9 94.3,142.2" fill="#0894d7"/>
<polygon points="104.8,116.3 116.6,123.5 106.5,143.9" fill="#0284c7"/>
<polygon points="116.6,123.5 117.1,135.9 106.5,143.9" fill="#0a9ade"/>
<polygon points="116.6,123.5 138.9,118.1 117.1,135.9" fill="#0792d6"/>
<polygon points="138.9,118.1 140,144 117.1,135.9" fill="#0792d5"/>
<polygon points="138.9,118.1 149.7,124.3 140,144" fill="#036ba4"/>
<polygon points="149.7,124.3 152.1,142.7 140,144" fill="#0387ca"/>
<polygon points="149.7,124.3 160.6,118.9 152.1,142.7" fill="#027fc0"/>
<polygon points="160.6,118.9 162.5,140.5 152.1,142.7" fill="#1cadee"/>
<polygon points="160.6,118.9 179.8,120.8 162.5,140.5" fill="#0488cc"/>
<polygon points="179.8,120.8 177.3,142.1 162.5,140.5" fill="#0372ad"/>
<polygon points="179.8,120.8 190.7,116.4 177.3,142.1" fill="#075984"/>
<polygon points="190.7,116.4 192.4,137.6 177.3,142.1" fill="#04659a"/>
<polygon points="190.7,116.4 207.1,121.5 192.4,137.6" fill="#0282c5"/>
<polygon points="207.1,121.5 212.3,137.6 192.4,137.6" fill="#0da3e7"/>
<polygon points="207.1,121.5 226.3,120.4 212.3,137.6" fill="#0ca0e4"/>
<polygon points="226.3,120.4 225.4,135.8 212.3,137.6" fill="#0fa6e9"/>
<polygon points="226.3,120.4 236.9,121.8 225.4,135.8" fill="#0792d6"/>
<polygon points="236.9,121.8 236.6,137.7 225.4,135.8" fill="#058dd0"/>
<polygon points="236.9,121.8 255.3,120.4 236.6,137.7" fill="#058dd0"/>
<polygon points="255.3,120.4 255.7,136.3 236.6,137.7" fill="#0285c8"/>
<polygon points="255.3,120.4 267.4,116.1 255.7,136.3" fill="#0283c6"/>
<polygon points="267.4,116.1 273.6,144.1 255.7,136.3" fill="#0488cc"/>
<polygon points="267.4,116.1 287.6,119.8 273.6,144.1" fill="#0a9bdf"/>
<polygon points="287.6,119.8 283.8,142.2 273.6,144.1" fill="#11a7ea"/>
<polygon points="287.6,119.8 300,120 283.8,142.2" fill="#0a99dd"/>
<polygon points="300,120 300,140 283.8,142.2" fill="#0ca1e5"/>
<polygon points="0,140 12.8,137.9 0,160" fill="#065d8b"/>
<polygon points="12.8,137.9 17.9,155.6 0,160" fill="#056295"/>
<polygon points="12.8,137.9 32.9,137.4 17.9,155.6" fill="#036da7"/>
<polygon points="32.9,137.4 33.2,157 17.9,155.6" fill="#068ed1"/>
<polygon points="32.9,137.4 41,137.7 33.2,157" fill="#0375b3"/>
<polygon points="41,137.7 43.5,155.3 33.2,157" fill="#0374b1"/>
<polygon points="41,137.7 56.5,142.1 43.5,155.3" fill="#0369a0"/>
<polygon points="56.5,142.1 62.8,156.5 43.5,155.3" fill="#0372ad"/>
<polygon points="56.5,142.1 76.9,144.6 62.8,156.5" fill="#046498"/>
<polygon points="76.9,144.6 78,165 62.8,156.5" fill="#065e8d"/>
<polygon points="76.9,144.6 94.3,142.2 78,165" fill="#0371ad"/>
<polygon points="94.3,142.2 88.1,159.1 78,165" fill="#0283c6"/>
<polygon points="94.3,142.2 106.5,143.9 88.1,159.1" fill="#0792d6"/>
<polygon points="106.5,143.9 109.3,163.8 88.1,159.1" fill="#0370aa"/>
<polygon points="106.5,143.9 117.1,135.9 109.3,163.8" fill="#0283c5"/>
<polygon points="117.1,135.9 117.5,159 109.3,163.8" fill="#12a7ea"/>
<polygon points="117.1,135.9 140,144 117.5,159" fill="#30b8f5"/>
<polygon points="140,144 137.1,155.4 117.5,159" fill="#13a8eb"/>
<polygon points="140,144 152.1,142.7 137.1,155.4" fill="#0b9de1"/>
<polygon points="152.1,142.7 146.6,156.6 137.1,155.4" fill="#0ea5e9"/>
<polygon points="152.1,142.7 162.5,140.5 146.6,156.6" fill="#32baf6"/>
<polygon points="162.5,140.5 160.8,158.3 146.6,156.6" fill="#21b0f0"/>
<polygon points="162.5,140.5 177.3,142.1 160.8,158.3" fill="#0388cb"/>
<polygon points="177.3,142.1 179.7,163.3 160.8,158.3" fill="#036fa9"/>
<polygon points="177.3,142.1 192.4,137.6 179.7,163.3" fill="#036fa9"/>
<polygon points="192.4,137.6 193.9,164.1 179.7,163.3" fill="#027cbc"/>
<polygon points="192.4,137.6 212.3,137.6 193.9,164.1" fill="#058ccf"/>
<polygon points="212.3,137.6 207.2,162 193.9,164.1" fill="#036fa9"/>
<polygon points="212.3,137.6 225.4,135.8 207.2,162" fill="#0386c9"/>
<polygon points="225.4,135.8 225,162 207.2,162" fill="#058dd0"/>
<polygon points="225.4,135.8 236.6,137.7 225,162" fill="#11a7ea"/>
<polygon points="236.6,137.7 240.3,155.5 225,162" fill="#068fd2"/>
<polygon points="236.6,137.7 255.7,136.3 240.3,155.5" fill="#0371ac"/>
<polygon points="255.7,136.3 255.7,159.3 240.3,155.5" fill="#0376b4"/>
<polygon points="255.7,136.3 273.6,144.1 255.7,159.3" fill="#0791d4"/>
<polygon points="273.6,144.1 272.2,160.7 255.7,159.3" fill="#027dbd"/>
<polygon points="273.6,144.1 283.8,142.2 272.2,160.7" fill="#0280c2"/>
<polygon points="283.8,142.2 285.1,159.9 272.2,160.7" fill="#068ed1"/>
<polygon points="283.8,142.2 300,140 285.1,159.9" fill="#2eb7f4"/>
<polygon points="300,140 300,160 285.1,159.9" fill="#20afef"/>
<polygon points="0,160 17.9,155.6 0,180" fill="#0282c5"/>
<polygon points="17.9,155.6 13.7,177.8 0,180" fill="#0277b5"/>
<polygon points="17.9,155.6 33.2,157 13.7,177.8" fill="#0372ad"/>
<polygon points="33.2,157 31.3,175.5 13.7,177.8" fill="#036ca5"/>
<polygon points="33.2,157 43.5,155.3 31.3,175.5" fill="#0285c8"/>
<polygon points="43.5,155.3 42.5,180.4 31.3,175.5" fill="#0278b6"/>
<polygon points="43.5,155.3 62.8,156.5 42.5,180.4" fill="#0370ab"/>
<polygon points="62.8,156.5 61.8,183.2 42.5,180.4" fill="#0283c5"/>
<polygon points="62.8,156.5 78,165 61.8,183.2" fill="#0279b8"/>
<polygon points="78,165 77.7,177.5 61.8,183.2" fill="#027bba"/>
<polygon points="78,165 88.1,159.1 77.7,177.5" fill="#0369a1"/>
<polygon points="88.1,159.1 95,178.9 77.7,177.5" fill="#0369a1"/>
<polygon points="88.1,159.1 109.3,163.8 95,178.9" fill="#04659a"/>
<polygon points="109.3,163.8 103.6,180.2 95,178.9" fill="#056091"/>
<polygon points="109.3,163.8 117.5,159 103.6,180.2" fill="#0386c9"/>
<polygon points="117.5,159 124.2,184.2 103.6,180.2" fill="#0489cc"/>
<polygon points="117.5,159 137.1,155.4 124.2,184.2" fill="#0894d8"/>
<polygon points="137.1,155.4 130.5,181.8 124.2,184.2" fill="#0281c2"/>
<polygon points="137.1,155.4 146.6,156.6 130.5,181.8" fill="#0b9de1"/>
<polygon points="146.6,156.6 148.1,178.1 130.5,181.8" fill="#1fafef"/>
<polygon points="146.6,156.6 160.8,158.3 148.1,178.1" fill="#18abed"/>
<polygon points="160.8,158.3 169.8,184.7 148.1,178.1" fill="#0388cb"/>
<polygon points="160.8,158.3 179.7,163.3 169.8,184.7" fill="#0374b1"/>
<polygon points="179.7,163.3 178.2,178.2 169.8,184.7" fill="#036da7"/>
<polygon points="179.7,163.3 193.9,164.1 178.2,178.2" fill="#0375b2"/>
<polygon points="193.9,164.1 194.5,176 178.2,178.2" fill="#0372ae"/>
<polygon points="193.9,164.1 207.2,162 194.5,176" fill="#056295"/>
<polygon points="207.2,162 213.7,178.3 194.5,176" fill="#03679e"/>
<polygon points="207.2,162 225,162 213.7,178.3" fill="#027dbd"/>
<polygon points="225,162 227.3,177.4 213.7,178.3" fill="#25b2f1"/>
<polygon points="225,162 240.3,155.5 227.3,177.4" fill="#1cadee"/>
<polygon points="240.3,155.5 242,183 227.3,177.4" fill="#0b9bdf"/>
<polygon points="240.3,155.5 255.7,159.3 242,183" fill="#0281c3"/>
<polygon points="255.7,159.3 255.1,184.1 242,183" fill="#0690d3"/>
<polygon points="255.7,159.3 272.2,160.7 255.1,184.1" fill="#0371ac"/>
<polygon points="272.2,160.7 267,178.6 255.1,184.1" fill="#027dbd"/>
<polygon points="272.2,160.7 285.1,159.9 267,178.6" fill="#0998dc"/>
<polygon points="285.1,159.9 289.8,178.3 267,178.6" fill="#0998db"/>
<polygon points="285.1,159.9 300,160 289.8,178.3" fill="#0283c6"/>
<polygon points="300,160 300,180 289.8,178.3" fill="#036aa2"/>
<polygon points="0,180 13.7,177.8 0,200" fill="#0280c1"/>
<polygon points="13.7,177.8 15,200 0,200" fill="#055f90"/>
<polygon points="13.7,177.8 31.3,175.5 15,200" fill="#085782"/>
<polygon points="31.3,175.5 30,200 15,200" fill="#046499"/>
<polygon points="31.3,175.5 42.5,180.4 30,200" fill="#0376b3"/>
<polygon points="42.5,180.4 45,200 30,200" fill="#0489cc"/>
<polygon points="42.5,180.4 61.8,183.2 45,200" fill="#0da2e6"/>
<polygon points="61.8,183.2 60,200 45,200" fill="#35bbf7"/>
<polygon points="61.8,183.2 77.7,177.5 60,200" fill="#0fa5e9"/>
<polygon points="77.7,177.5 75,200 60,200" fill="#14a9eb"/>
<polygon points="77.7,177.5 95,178.9 75,200" fill="#027ebf"/>
<polygon points="95,178.9 90,200 75,200" fill="#0fa6e9"/>
<polygon points="95,178.9 103.6,180.2 90,200" fill="#0281c3"/>
<polygon points="103.6,180.2 105,200 90,200" fill="#068ed2"/>
<polygon points="103.6,180.2 124.2,184.2 105,200" fill="#03689f"/>
<polygon points="124.2,184.2 120,200 105,200" fill="#0369a1"/>
<polygon points="124.2,184.2 130.5,181.8 120,200" fill="#0279b8"/>
<polygon points="130.5,181.8 135,200 120,200" fill="#0ea4e8"/>
<polygon points="130.5,181.8 148.1,178.1 135,200" fill="#34bbf7"/>
<polygon points="148.1,178.1 150,200 135,200" fill="#53c6fa"/>
<polygon points="148.1,178.1 169.8,184.7 150,200" fill="#0b9de1"/>
<polygon points="169.8,184.7 165,200 150,200" fill="#0277b5"/>
<polygon points="169.8,184.7 178.2,178.2 165,200" fill="#056396"/>
<polygon points="178.2,178.2 180,200 165,200" fill="#036ea8"/>
<polygon points="178.2,178.2 194.5,176 180,200" fill="#027aba"/>
<polygon points="194.5,176 195,200 180,200" fill="#027fc0"/>
<polygon points="194.5,176 213.7,178.3 195,200" fill="#0280c1"/>
<polygon points="213.7,178.3 210,200 195,200" fill="#0279b8"/>
<polygon points="213.7,178.3 227.3,177.4 210,200" fill="#0894d7"/>
<polygon points="227.3,177.4 225,200 210,200" fill="#0da2e6"/>
<polygon points="227.3,177.4 242,183 225,200" fill="#1eaeef"/>
<polygon points="242,183 240,200 225,200" fill="#0da2e6"/>
<polygon points="242,183 255.1,184.1 240,200" fill="#0b9bdf"/>
<polygon points="255.1,184.1 255,200 240,200" fill="#0b9ee2"/>
<polygon points="255.1,184.1 267,178.6 255,200" fill="#0da1e5"/>
<polygon points="267,178.6 270,200 255,200" fill="#2fb8f5"/>
<polygon points="267,178.6 289.8,178.3 270,200" fill="#0998dc"/>
<polygon points="289.8,178.3 285,200 270,200" fill="#0281c3"/>
<polygon points="289.8,178.3 300,180 285,200" fill="#03689f"/>
<polygon points="300,180 300,200 285,200" fill="#0277b4"/>
</svg>
