<svg xmlns="http://www.w3.org/2000/ svg" viewBox="0 0 24 24" fill="currentColor" id="github"><path d="M12 .297c-6.63 0-12 5.373-12 12 0 5.303 3.438 9.8 8.205 11.387.6.113.82-.258.82-.577v-2.234c-3.338.726-4.042-1.416-4.042-1.416-.546-1.387-1.333-1.757-1.333-1.757-1.089-.744.084-.729.084-.729 1.205.084 1.838 1.235 1.838 1.235 1.07 1.835 2.809 1.305 3.495.998.108-.775.418-1.305.762-1.605-2.665-.3-5.466-1.332-5.466-5.93 0-1.31.465-2.382 1.235-3.222-.123-.303-.534-1.523.117-3.176 0 0 1.008-.322 3.3 1.23.957-.266 1.983-.399 3.003-.405 1.02.006 2.047.139 3.006.405 2.28-1.552 3.285-1.23 3.285-1.23.657 1.653.246 2.873.123 3.176.771.84 1.23 1.912 1.23 3.222 0 4.61-2.807 5.625-5.479 5.92.429.369.81 1.096.81 2.21v3.293c0 .319.216.694.825.577C20.565 22.092 24 17.592 24 12.297c0-6.627-5.373-12-12-12"/></svg>