<svg xmlns="http://www.w3.org/2000/ svg" viewBox="0 0 24 24" fill="currentColor"><path d="M22.23 0H1.77C.792 0 0 .774 0 1.729v20.542C0 23.226.792 24 1.77 24h20.46C23.208 24 24 23.226 24 22.271V1.729C24 .774 23.208 0 22.23 0zM7.12 20.452H3.56V9h3.56v11.452zM5.34 7.452c-1.14 0-2.06-.92-2.06-2.06s.92-2.06 2.06-2.06 2.06.92 2.06 2.06-.92 2.06-2.06 2.06zM20.452 20.452h-3.56v-5.6c0-1.34-.03-3.06-1.86-3.06-1.86 0-2.14 1.45-2.14 2.95v5.71h-3.56V9h3.42v1.56h.05c.48-.91 1.65-1.87 3.4-1.87 3.63 0 4.3 2.39 4.3 5.5v6.31z"/></svg>
