<svg fill="currentColor" width="100%" height="100%" viewBox="0 0 24 24" version="1.1" xmlns="http://www.w3.org/2000/svg" style="fill-rule:evenodd;clip-rule:evenodd;stroke-linejoin:round;stroke-miterlimit:2;" id="social-youtube"> <g transform="matrix(1.19915,0,0,1.19915,-2.38151,-2.39702)"> <path d="M21.593,7.203C21.361,6.344 20.689,5.67 19.831,5.437C18.265,5.007 12,5 12,5C12,5 5.736,4.993 4.169,5.404C3.312,5.648 2.641,6.323 2.403,7.182C1.99,8.748 1.986,11.996 1.986,11.996C1.986,11.996 1.982,15.26 2.392,16.81C2.622,17.667 3.297,18.344 4.155,18.575C5.737,19.005 11.985,19.012 11.985,19.012C11.985,19.012 18.25,19.019 19.816,18.609C20.675,18.376 21.348,17.704 21.583,16.846C21.997,15.281 22,12.034 22,12.034C22,12.034 22.02,8.769 21.593,7.203ZM9.996,15.005L10.001,9.005L15.208,12.01L9.996,15.005Z" style="fill-rule:nonzero;"/> </g>
</svg>