<svg xmlns="http://www.w3.org/2000/ svg" viewBox="0 0 24 24" fill="currentColor" id="social-pinterest"><path d="M12 0C5.373 0 0 5.373 0 12c0 4.99 3.657 9.128 8.438 10.292-.117-.875-.223-2.22.047-3.176.242-.926 1.558-6.22 1.558-6.22s-.398-.796-.398-1.973c0-1.848 1.073-3.23 2.41-3.23 1.137 0 1.686.854 1.686 1.875 0 1.143-.727 2.854-1.1 4.437-.313 1.32.663 2.4 1.97 2.4 2.364 0 4.18-2.49 4.18-6.08 0-3.18-2.287-5.41-5.55-5.41-3.79 0-6.02 2.84-6.02 5.78 0 1.14.437 2.36.983 3.02.11.13.125.24.092.37-.1.4-.33 1.28-.37 1.46-.06.25-.2.3-.46.18-1.72-.8-2.8-3.3-2.8-5.32 0-4.34 3.15-8.34 9.1-8.34 4.78 0 8.48 3.42 8.48 7.98 0 4.73-2.98 8.54-7.13 8.54-1.39 0-2.7-.72-3.15-1.57l-.86 3.27c-.31 1.2-1.15 2.7-1.72 3.62C9.5 23.88 10.73 24 12 24c6.627 0 12-5.373 12-12S18.627 0 12 0z"/></svg>