<?xml version="1.0" encoding="UTF-8" standalone="no"?>
<!DOCTYPE svg PUBLIC "-//W3C//DTD SVG 1.1//EN" "http://www.w3.org/Graphics/SVG/1.1/DTD/svg11.dtd">
<svg width="100%" height="100%" viewBox="0 0 200 157" version="1.1" xmlns="http://www.w3.org/2000/svg" xmlns:xlink="http://www.w3.org/1999/xlink" xml:space="preserve" xmlns:serif="http://www.serif.com/" style="fill-rule:evenodd;clip-rule:evenodd;stroke-linejoin:round;stroke-miterlimit:2;">
    <g transform="matrix(1,0,0,1,-1645,-833)">
        <g id="logo-square" transform="matrix(0.894121,0,0,0.701885,174.01,-39.6141)">
            <rect x="1645.18" y="1243.24" width="223.683" height="223.683" style="fill:none;"/>
            <clipPath id="_clip1">
                <rect x="1645.18" y="1243.24" width="223.683" height="223.683"/>
            </clipPath>
            <g clip-path="url(#_clip1)">
                <g transform="matrix(0.41808,0,0,0.532587,1467.32,920.781)">
                    <path d="M425.42,605.463L675.241,605.463L675.241,1025.46L425.42,605.463Z" style="fill:rgb(3,105,161);"/>
                </g>
                <g transform="matrix(0.41808,0,0,0.532587,1526.94,920.781)">
                    <path d="M425.42,605.463L675.241,605.463L675.241,1025.46L425.42,605.463Z" style="fill:rgb(14,165,233);"/>
                </g>
                <g transform="matrix(0.41808,0,0,0.532587,1586.56,920.781)">
                    <path d="M425.42,605.463L675.241,605.463L675.241,1025.46L425.42,605.463Z" style="fill:rgb(56,189,248);"/>
                </g>
            </g>
        </g>
    </g>
</svg>
