<?xml version="1.0" encoding="UTF-8" standalone="no"?>
<!DOCTYPE svg PUBLIC "-//W3C//DTD SVG 1.1//EN" "http://www.w3.org/Graphics/SVG/1.1/DTD/svg11.dtd">
<svg width="100%" height="100%" viewBox="0 0 303 303" version="1.1" xmlns="http://www.w3.org/2000/svg" xmlns:xlink="http://www.w3.org/1999/xlink" xml:space="preserve" xmlns:serif="http://www.serif.com/" style="fill-rule:evenodd;clip-rule:evenodd;stroke-linejoin:round;stroke-miterlimit:2;">
    <g id="favicon" transform="matrix(0.197266,0,0,0.147949,0,0)">
        <rect x="0" y="0" width="1536" height="2048" style="fill:none;"/>
        <g transform="matrix(1.37222,0,0,1.37222,-172.858,-505.228)">
            <g transform="matrix(1.89498,0,0,2.52664,-627.446,-945.963)">
                <path d="M425.42,605.463L675.241,605.463L675.241,1025.46L425.42,605.463Z" style="fill:rgb(3,105,161);"/>
            </g>
            <g transform="matrix(1.89498,0,0,2.52664,-357.219,-945.963)">
                <path d="M425.42,605.463L675.241,605.463L675.241,1025.46L425.42,605.463Z" style="fill:rgb(14,165,233);"/>
            </g>
            <g transform="matrix(1.89498,0,0,2.52664,-86.9912,-945.963)">
                <path d="M425.42,605.463L675.241,605.463L675.241,1025.46L425.42,605.463Z" style="fill:rgb(56,189,248);"/>
            </g>
        </g>
    </g>
</svg>
