<?xml version="1.0" standalone="no"?>
<!DOCTYPE svg PUBLIC "-//W3C//DTD SVG 20010904//EN"
 "http://www.w3.org/TR/2001/REC-SVG-20010904/DTD/svg10.dtd">
<svg version="1.0" xmlns="http://www.w3.org/2000/svg"
 width="700.000000pt" height="700.000000pt" viewBox="0 0 700.000000 700.000000"
 preserveAspectRatio="xMidYMid meet">
<metadata>
Created by potrace 1.14, written by Peter Selinger 2001-2017
</metadata>
<g transform="translate(0.000000,700.000000) scale(0.100000,-0.100000)"
fill="#000000" stroke="none">
<path d="M348 5958 c35 -57 294 -492 314 -527 11 -19 68 -115 127 -215 60
-100 215 -361 346 -581 131 -220 280 -470 331 -555 51 -85 111 -186 134 -225
22 -38 50 -86 61 -105 65 -109 194 -325 274 -460 51 -85 262 -441 470 -790
208 -349 419 -705 470 -790 51 -85 164 -275 251 -422 l159 -268 5 1413 5 1412
70 -118 c39 -65 80 -135 93 -155 13 -20 25 -45 29 -54 3 -10 9 -18 13 -18 4 0
11 -8 14 -17 9 -23 7 -21 235 -403 467 -782 650 -1091 664 -1115 6 -11 21 -36
33 -55 58 -94 337 -565 391 -660 20 -36 40 -67 43 -70 3 -3 26 -40 50 -84 l45
-79 3 1419 2 1418 232 -390 c127 -214 236 -398 242 -409 6 -11 19 -31 27 -45
16 -24 153 -254 174 -292 6 -10 51 -87 101 -170 50 -84 189 -318 310 -520 120
-202 224 -376 229 -385 36 -64 366 -617 371 -622 2 -2 4 1115 4 2482 l0 2487
-3171 0 -3171 0 20 -32z"/>
</g>
</svg>
